<svg width="42" height="31" viewBox="0 0 42 31" fill="none" xmlns="http://www.w3.org/2000/svg">
<path d="M7.33072 30V6.69L2.71072 8.58L0.694719 3.666L9.55672 0.0119981H13.7987V30H7.33072ZM24.0484 16.35L25.3504 0.0119981H40.9744V5.262H30.7264L30.1804 10.932C30.2364 10.932 30.3064 10.918 30.3904 10.89C30.4744 10.89 30.5304 10.876 30.5584 10.848C31.5384 10.652 32.3644 10.554 33.0364 10.554C36.1724 10.554 38.4824 11.38 39.9664 13.032C40.6664 13.816 41.1564 14.782 41.4364 15.93C41.7444 17.05 41.8984 18.534 41.8984 20.382C41.8984 22.258 41.7304 23.784 41.3944 24.96C41.0864 26.136 40.5544 27.102 39.7984 27.858C38.1464 29.594 35.5984 30.462 32.1544 30.462C28.9344 30.462 26.5684 29.692 25.0564 28.152C23.7124 26.78 22.9564 24.764 22.7884 22.104L28.8364 21.39C29.1164 23.966 30.2644 25.254 32.2804 25.254C34.4084 25.254 35.4724 23.756 35.4724 20.76C35.4724 18.856 35.2204 17.526 34.7164 16.77C34.2404 15.986 33.3864 15.594 32.1544 15.594C30.6984 15.594 29.5644 16.168 28.7524 17.316L24.0484 16.35Z" fill="#0091B4"/>
</svg>
