<svg width="43" height="31" viewBox="0 0 43 31" fill="none" xmlns="http://www.w3.org/2000/svg">
<path d="M12.6987 30V24.876H0.896719V21.012L10.0527 0.0119981H16.8567L8.20472 19.71H12.6987V13.032H18.4527V19.71H21.0567V24.876H18.4527V30H12.6987ZM25.0484 16.35L26.3504 0.0119981H41.9744V5.262H31.7264L31.1804 10.932C31.2364 10.932 31.3064 10.918 31.3904 10.89C31.4744 10.89 31.5304 10.876 31.5584 10.848C32.5384 10.652 33.3644 10.554 34.0364 10.554C37.1724 10.554 39.4824 11.38 40.9664 13.032C41.6664 13.816 42.1564 14.782 42.4364 15.93C42.7444 17.05 42.8984 18.534 42.8984 20.382C42.8984 22.258 42.7304 23.784 42.3944 24.96C42.0864 26.136 41.5544 27.102 40.7984 27.858C39.1464 29.594 36.5984 30.462 33.1544 30.462C29.9344 30.462 27.5684 29.692 26.0564 28.152C24.7124 26.78 23.9564 24.764 23.7884 22.104L29.8364 21.39C30.1164 23.966 31.2644 25.254 33.2804 25.254C35.4084 25.254 36.4724 23.756 36.4724 20.76C36.4724 18.856 36.2204 17.526 35.7164 16.77C35.2404 15.986 34.3864 15.594 33.1544 15.594C31.6984 15.594 30.5644 16.168 29.7524 17.316L25.0484 16.35Z" fill="#0091B4"/>
</svg>
