<svg width="100" height="39" viewBox="0 0 100 39" fill="none" xmlns="http://www.w3.org/2000/svg">
<path d="M10.5207 11.68C10.6327 11.68 10.7587 11.68 10.8987 11.68C11.5987 11.624 11.9627 11.596 11.9907 11.596C12.8027 11.596 13.6567 11.764 14.5527 12.1C15.4767 12.408 16.2607 12.8 16.9047 13.276C17.9127 14.06 18.6267 15.068 19.0467 16.3C19.4667 17.504 19.6767 19.226 19.6767 21.466C19.6767 23.538 19.4947 25.176 19.1307 26.38C18.7947 27.584 18.2067 28.564 17.3667 29.32C15.7707 30.748 13.4047 31.462 10.2687 31.462C6.76872 31.462 4.23472 30.594 2.66672 28.858C1.99472 28.13 1.51872 27.22 1.23872 26.128C0.958719 25.008 0.818719 23.51 0.818719 21.634C0.818719 19.702 1.00072 18.078 1.36472 16.762C1.72872 15.446 2.41472 13.878 3.42272 12.058L9.68072 1.012H16.9047L10.5207 11.68ZM10.2687 16.594C9.03672 16.594 8.21072 17 7.79072 17.812C7.39872 18.512 7.20272 19.716 7.20272 21.424C7.20272 23.244 7.42672 24.504 7.87472 25.204C8.32272 25.904 9.12072 26.254 10.2687 26.254C11.4727 26.254 12.2847 25.848 12.7047 25.036C13.0967 24.336 13.2927 23.132 13.2927 21.424C13.2927 19.604 13.0687 18.344 12.6207 17.644C12.1727 16.944 11.3887 16.594 10.2687 16.594ZM22.9964 38.896L25.0124 25.204H31.7744L28.5404 38.896H22.9964ZM35.2571 31V26.842L43.6571 16.762C44.2171 16.118 44.8471 15.278 45.5471 14.242C46.2471 13.178 46.7371 12.366 47.0171 11.806C47.5491 10.714 47.8151 9.608 47.8151 8.488C47.8151 6.668 46.8911 5.758 45.0431 5.758C43.6991 5.758 42.7471 6.332 42.1871 7.48C41.8231 8.208 41.5851 8.964 41.4731 9.748L35.5931 9.328C35.9011 3.476 39.1211 0.549999 45.2531 0.549999C48.3611 0.549999 50.6851 1.348 52.2251 2.944C53.5691 4.372 54.2411 6.332 54.2411 8.824C54.2411 11.064 53.5691 13.262 52.2251 15.418C51.6931 16.286 51.2311 16.958 50.8391 17.434C50.4471 17.91 49.3831 19.156 47.6471 21.172L43.6991 25.75H54.1991V31H35.2571ZM69.6987 31V25.876H57.8967V22.012L67.0527 1.012H73.8567L65.2047 20.71H69.6987V14.032H75.4527V20.71H78.0567V25.876H75.4527V31H69.6987ZM82.0484 17.35L83.3504 1.012H98.9744V6.262H88.7264L88.1804 11.932C88.2364 11.932 88.3064 11.918 88.3904 11.89C88.4744 11.89 88.5304 11.876 88.5584 11.848C89.5384 11.652 90.3644 11.554 91.0364 11.554C94.1724 11.554 96.4824 12.38 97.9664 14.032C98.6664 14.816 99.1564 15.782 99.4364 16.93C99.7444 18.05 99.8984 19.534 99.8984 21.382C99.8984 23.258 99.7304 24.784 99.3944 25.96C99.0864 27.136 98.5544 28.102 97.7984 28.858C96.1464 30.594 93.5984 31.462 90.1544 31.462C86.9344 31.462 84.5684 30.692 83.0564 29.152C81.7124 27.78 80.9564 25.764 80.7884 23.104L86.8364 22.39C87.1164 24.966 88.2644 26.254 90.2804 26.254C92.4084 26.254 93.4724 24.756 93.4724 21.76C93.4724 19.856 93.2204 18.526 92.7164 17.77C92.2404 16.986 91.3864 16.594 90.1544 16.594C88.6984 16.594 87.5644 17.168 86.7524 18.316L82.0484 17.35Z" fill="#0091B4"/>
</svg>
