<svg width="157" height="146" viewBox="0 0 157 146" fill="none" xmlns="http://www.w3.org/2000/svg">
<path d="M17.8228 116.083C17.7594 116.083 17.6974 116.065 17.6428 116.033L9.47444 111.317C9.42003 111.286 9.37479 111.241 9.34321 111.186C9.31163 111.132 9.29482 111.07 9.29444 111.007V101.575C9.29418 101.512 9.3107 101.45 9.34231 101.395C9.37392 101.34 9.4195 101.294 9.47444 101.262L17.6428 96.5463C17.6976 96.5147 17.7596 96.498 17.8228 96.498C17.886 96.498 17.9481 96.5147 18.0028 96.5463L26.1712 101.262C26.2262 101.294 26.2718 101.34 26.3034 101.395C26.335 101.45 26.3515 101.512 26.3512 101.575V111.007C26.3509 111.07 26.334 111.132 26.3025 111.186C26.2709 111.241 26.2256 111.286 26.1712 111.317L18.0028 116.033C17.9483 116.065 17.8862 116.083 17.8228 116.083ZM10 110.799L17.8084 115.306L25.6168 110.799V101.781L17.8228 97.2735L10 101.781V110.799Z" fill="#C3C3C3"/>
<path d="M34.1631 116.083C34.0997 116.083 34.0376 116.065 33.9831 116.033L25.8111 111.317C25.7567 111.286 25.7115 111.241 25.6799 111.186C25.6483 111.132 25.6315 111.07 25.6311 111.007V101.575C25.6309 101.512 25.6474 101.45 25.679 101.395C25.7106 101.34 25.7562 101.294 25.8111 101.262L33.9831 96.5463C34.0378 96.5147 34.0999 96.498 34.1631 96.498C34.2263 96.498 34.2884 96.5147 34.3431 96.5463L42.5115 101.262C42.5665 101.294 42.612 101.34 42.6436 101.395C42.6752 101.45 42.6918 101.512 42.6915 101.575V111.007C42.6911 111.07 42.6743 111.132 42.6427 111.186C42.6112 111.241 42.5659 111.286 42.5115 111.317L34.3431 116.033C34.2886 116.065 34.2265 116.083 34.1631 116.083ZM26.3511 110.799L34.1631 115.306L41.9715 110.799V101.781L34.1631 97.2735L26.3511 101.781V110.799Z" fill="#C3C3C3"/>
<path d="M34.1632 97.2163C34.0677 97.2163 33.9762 97.1784 33.9087 97.1109C33.8412 97.0434 33.8032 96.9518 33.8032 96.8563V91.2799C33.8032 91.1844 33.8412 91.0929 33.9087 91.0254C33.9762 90.9579 34.0677 90.9199 34.1632 90.9199C34.2587 90.9199 34.3503 90.9579 34.4178 91.0254C34.4853 91.0929 34.5232 91.1844 34.5232 91.2799V96.8743C34.5186 96.9666 34.4786 97.0536 34.4116 97.1173C34.3446 97.181 34.2557 97.2164 34.1632 97.2163Z" fill="#C3C3C3"/>
<path d="M42.3315 101.937C42.2513 101.937 42.1731 101.911 42.1096 101.861C42.0461 101.812 42.0008 101.743 41.9809 101.666C41.9611 101.588 41.9678 101.506 42 101.432C42.0322 101.359 42.0881 101.298 42.1587 101.26L46.9107 98.657C46.9939 98.6118 47.0916 98.6011 47.1826 98.6274C47.2735 98.6537 47.3505 98.7148 47.3968 98.7974C47.4197 98.8387 47.4343 98.8842 47.4396 98.9312C47.445 98.9782 47.441 99.0258 47.428 99.0713C47.415 99.1167 47.3931 99.1592 47.3636 99.1962C47.3342 99.2332 47.2977 99.2641 47.2564 99.287L42.5043 101.89C42.4516 101.92 42.3922 101.936 42.3315 101.937Z" fill="#C3C3C3"/>
<path d="M11.1413 110.309C11.0458 110.309 10.9542 110.271 10.8867 110.203C10.8192 110.136 10.7812 110.044 10.7812 109.949V102.749C10.7812 102.653 10.8192 102.562 10.8867 102.494C10.9542 102.427 11.0458 102.389 11.1413 102.389C11.2367 102.389 11.3283 102.427 11.3958 102.494C11.4633 102.562 11.5013 102.653 11.5013 102.749V109.949C11.5013 110.044 11.4633 110.136 11.3958 110.203C11.3283 110.271 11.2367 110.309 11.1413 110.309Z" fill="#C3C3C3"/>
<path d="M27.9999 110.309C27.9044 110.309 27.8128 110.271 27.7453 110.203C27.6778 110.136 27.6399 110.044 27.6399 109.949V102.749C27.6399 102.653 27.6778 102.562 27.7453 102.494C27.8128 102.427 27.9044 102.389 27.9999 102.389C28.0954 102.389 28.1869 102.427 28.2545 102.494C28.322 102.562 28.3599 102.653 28.3599 102.749V109.949C28.3599 110.044 28.322 110.136 28.2545 110.203C28.1869 110.271 28.0954 110.309 27.9999 110.309Z" fill="#C3C3C3"/>
<path d="M24.328 102.721C24.265 102.721 24.2029 102.705 24.148 102.674L17.92 99.0525C17.8417 99.0027 17.7856 98.9245 17.7635 98.8343C17.7414 98.7441 17.755 98.6489 17.8015 98.5685C17.848 98.4881 17.9237 98.4288 18.0129 98.4029C18.102 98.3771 18.1978 98.3866 18.28 98.4297L24.5044 102.051C24.5454 102.075 24.5812 102.107 24.6099 102.144C24.6386 102.182 24.6596 102.225 24.6716 102.271C24.6837 102.317 24.6865 102.365 24.6801 102.411C24.6736 102.458 24.658 102.504 24.634 102.544C24.6025 102.598 24.5578 102.642 24.5042 102.673C24.4506 102.704 24.3899 102.72 24.328 102.721Z" fill="#C3C3C3"/>
<path d="M40.5569 102.721C40.4938 102.721 40.4317 102.705 40.3769 102.674L34.1525 99.0525C34.0741 99.0027 34.018 98.9245 33.9959 98.8343C33.9738 98.7441 33.9875 98.6489 34.0339 98.5685C34.0804 98.4881 34.1561 98.4288 34.2453 98.4029C34.3345 98.3771 34.4302 98.3866 34.5125 98.4297L40.7369 102.051C40.7778 102.075 40.8137 102.107 40.8424 102.144C40.871 102.182 40.892 102.225 40.904 102.271C40.9161 102.317 40.919 102.365 40.9125 102.411C40.9061 102.458 40.8904 102.504 40.8665 102.544C40.8346 102.598 40.7893 102.643 40.735 102.674C40.6807 102.705 40.6193 102.721 40.5569 102.721Z" fill="#C3C3C3"/>
<path d="M89.1063 33.3195C89.0429 33.3188 88.9808 33.3014 88.9263 33.2691L80.7579 28.5531C80.7035 28.5217 80.6582 28.4766 80.6267 28.4223C80.5951 28.3679 80.5783 28.3063 80.5779 28.2435V18.8079C80.5776 18.7445 80.5941 18.6821 80.6258 18.6271C80.6574 18.5721 80.7029 18.5264 80.7579 18.4947L88.9263 13.7787C88.981 13.7471 89.0431 13.7305 89.1063 13.7305C89.1695 13.7305 89.2315 13.7471 89.2863 13.7787L97.4547 18.4947C97.5096 18.5264 97.5552 18.5721 97.5868 18.6271C97.6184 18.6821 97.6349 18.7445 97.6347 18.8079V28.2399C97.6343 28.3027 97.6175 28.3643 97.5859 28.4187C97.5543 28.473 97.5091 28.5181 97.4547 28.5495L89.2863 33.2655C89.2321 33.2991 89.17 33.3177 89.1063 33.3195ZM81.2979 28.0347L89.1063 32.5419L96.9147 28.0347V19.0347L89.1063 14.5059L81.2979 19.0131V28.0347Z" fill="#C3C3C3"/>
<path d="M97.2747 19.1692C97.1944 19.1696 97.1163 19.1432 97.0527 19.0941C96.9892 19.045 96.9439 18.9761 96.924 18.8983C96.9042 18.8205 96.9109 18.7383 96.9431 18.6647C96.9753 18.5912 97.0312 18.5305 97.1019 18.4924L101.854 15.8896C101.937 15.8419 102.036 15.8293 102.129 15.8546C102.222 15.8799 102.301 15.9411 102.349 16.0246C102.397 16.1081 102.409 16.2072 102.384 16.3001C102.359 16.3929 102.297 16.4719 102.214 16.5196L97.4619 19.1224C97.4053 19.1558 97.3403 19.1721 97.2747 19.1692Z" fill="#C3C3C3"/>
<path d="M82.756 27.5606C82.6605 27.5606 82.569 27.5227 82.5014 27.4552C82.4339 27.3877 82.396 27.2961 82.396 27.2006V20.0006C82.396 19.9051 82.4339 19.8136 82.5014 19.7461C82.569 19.6786 82.6605 19.6406 82.756 19.6406C82.8515 19.6406 82.943 19.6786 83.0106 19.7461C83.0781 19.8136 83.116 19.9051 83.116 20.0006V27.2006C83.116 27.2961 83.0781 27.3877 83.0106 27.4552C82.943 27.5227 82.8515 27.5606 82.756 27.5606Z" fill="#C3C3C3"/>
<path d="M95.6799 19.9529C95.6156 19.9539 95.5522 19.9378 95.4963 19.9061L89.2791 16.2845C89.236 16.262 89.198 16.231 89.1673 16.1934C89.1365 16.1558 89.1137 16.1124 89.1002 16.0658C89.0867 16.0191 89.0827 15.9703 89.0886 15.9221C89.0944 15.8739 89.11 15.8273 89.1343 15.7853C89.1586 15.7433 89.1911 15.7066 89.2299 15.6775C89.2688 15.6483 89.3131 15.6274 89.3603 15.6158C89.4074 15.6043 89.4565 15.6024 89.5044 15.6102C89.5523 15.6181 89.5981 15.6356 89.6391 15.6617L95.8635 19.2797C95.9044 19.3035 95.9403 19.3351 95.969 19.3728C95.9976 19.4105 96.0186 19.4535 96.0307 19.4994C96.0427 19.5452 96.0456 19.5929 96.0391 19.6399C96.0327 19.6868 96.017 19.732 95.9931 19.7729C95.9613 19.8278 95.9157 19.8734 95.8607 19.905C95.8057 19.9366 95.7433 19.9531 95.6799 19.9529Z" fill="#C3C3C3"/>
<path d="M89.4592 31.5191C89.3795 31.5196 89.3018 31.4937 89.2384 31.4454C89.1751 31.3971 89.1295 31.3291 89.1089 31.2521C89.0883 31.1751 89.0939 31.0934 89.1247 31.0199C89.1555 30.9464 89.2098 30.8852 89.2792 30.8459L95.5 27.2243C95.5411 27.2005 95.5865 27.185 95.6336 27.1788C95.6806 27.1727 95.7285 27.1759 95.7743 27.1882C95.8202 27.2006 95.8631 27.2219 95.9007 27.251C95.9382 27.28 95.9697 27.3162 95.9932 27.3575C96.0404 27.4397 96.0533 27.5372 96.0291 27.6289C96.0048 27.7206 95.9453 27.799 95.8636 27.8471L89.6392 31.4831C89.5833 31.5104 89.5213 31.5228 89.4592 31.5191Z" fill="#C3C3C3"/>
<circle cx="43.5" cy="43.5" r="43.5" fill="#FAFAFA"/>
<path d="M117.64 105.042C117.464 103.847 117.224 102.662 116.92 101.492C117.836 101.282 118.735 101.004 119.609 100.661C119.8 100.58 119.951 100.426 120.029 100.233C120.106 100.041 120.104 99.8256 120.023 99.6347C119.942 99.4437 119.788 99.2928 119.596 99.2152C119.404 99.1375 119.188 99.1395 118.997 99.2207C118.193 99.5366 117.364 99.7894 116.52 99.9767C116.214 98.8967 115.84 97.7375 115.372 96.5171C113.064 90.5015 109.673 86.2967 105.558 84.3599C101.814 82.5959 97.5268 83.0495 93.2896 83.7479C93.0988 82.2251 92.9692 80.6951 92.836 79.2119C92.5048 75.3779 92.2024 71.9219 91.09 69.4919C90.7001 68.5765 90.0964 67.7679 89.3296 67.1339C88.6172 66.567 87.8235 66.1107 86.9752 65.7803C86.9261 65.7579 86.8756 65.7387 86.824 65.7227H86.7916C83.962 64.6679 80.6896 64.8983 77.4532 65.2367C77.4784 65.1647 77.5072 65.0963 77.5324 65.0243C80.0956 58.3787 82.7416 51.5027 77.1544 46.0271C74.7244 43.6439 71.578 42.4271 67.5352 42.3011C64.9255 42.2771 62.3198 42.5098 59.7556 42.9959C61.5556 36.1091 63.2692 29.0099 56.944 22.5802C52.6924 18.2602 44.6464 17.8066 33.0292 21.241C32.2732 21.4642 31.5208 21.6982 30.7864 21.9394C30.8224 21.3743 30.862 20.8126 30.9016 20.2546C31.4308 12.7198 31.8916 6.21464 28.0216 3.71264C27.9362 3.64903 27.8387 3.60363 27.735 3.57925C27.6314 3.55487 27.5239 3.55204 27.4191 3.57092C27.3143 3.5898 27.2145 3.63 27.1259 3.68903C27.0373 3.74805 26.9618 3.82465 26.904 3.91406C26.8462 4.00347 26.8073 4.10381 26.7899 4.20884C26.7725 4.31387 26.7768 4.42136 26.8026 4.52465C26.8284 4.62795 26.8751 4.72484 26.9399 4.80934C27.0047 4.89383 27.0861 4.96412 27.1792 5.01584C30.2608 7.01744 29.8108 13.393 29.3392 20.1358C29.2852 20.9026 29.2312 21.6838 29.1808 22.465C25.0363 23.9099 20.9857 25.6112 17.0524 27.5591C16.9616 27.6063 16.881 27.671 16.8153 27.7494C16.7495 27.8278 16.6998 27.9184 16.6691 28.0161C16.6383 28.1137 16.6271 28.2164 16.636 28.3183C16.645 28.4203 16.6739 28.5195 16.7212 28.6103C16.7685 28.701 16.8332 28.7816 16.9116 28.8474C16.99 28.9131 17.0806 28.9628 17.1782 28.9936C17.2758 29.0243 17.3785 29.0355 17.4805 29.0266C17.5824 29.0177 17.6816 28.9887 17.7724 28.9415C21.4438 27.1267 25.2196 25.5315 29.08 24.1643C28.6444 32.2391 29.026 40.4399 35.4556 44.1731H35.4844C41.8312 47.8235 49.3192 46.4447 56.5624 45.1127L57.6136 44.9183C56.098 50.9123 55.0936 57.0179 59.8852 62.6015C64.2052 67.6415 69.8536 67.5299 75.0808 67.0187C73.0756 72.4979 71.722 78.0023 75.574 82.6787C76.4886 83.8142 77.6479 84.7285 78.9652 85.3535C82.7164 87.1211 87.328 86.3255 91.828 85.5515L91.9468 85.5299C92.7244 90.6743 94.3084 95.5703 98.5996 98.4035C101.966 100.632 105.871 101.91 109.904 102.104H109.925H110.076C111.03 102.148 111.986 102.135 112.938 102.065C113.817 102 114.634 101.895 115.365 101.769C115.656 102.902 115.889 104.048 116.063 105.204C116.08 105.333 116.129 105.456 116.206 105.561C116.283 105.666 116.385 105.75 116.502 105.805C116.637 105.87 116.787 105.894 116.934 105.873C117.035 105.865 117.134 105.837 117.224 105.791C117.314 105.745 117.394 105.681 117.46 105.604C117.525 105.527 117.575 105.437 117.606 105.341C117.637 105.244 117.648 105.143 117.64 105.042ZM30.6784 23.6206C36.4132 21.6982 43.0696 20.1106 48.4516 20.6146L31.6576 36.9191C30.3688 33.1103 30.4048 28.3295 30.6784 23.6206ZM35.8048 42.5567C34.2751 41.5422 33.0574 40.1226 32.2876 38.4563L50.3848 20.9027C52.5448 21.3526 54.4204 22.231 55.8352 23.671C56.0872 23.9266 56.3248 24.1859 56.5552 24.4415L35.8048 42.5567ZM43.39 44.9111C41.2633 44.7829 39.1798 44.2553 37.2484 43.3559L57.52 25.6655C58.4979 27.0424 59.1885 28.6022 59.5504 30.2519C59.4016 30.2756 59.2628 30.3418 59.1508 30.4427L43.6024 44.6159C43.5087 44.6956 43.4359 44.7969 43.39 44.9111ZM56.314 43.6115C52.696 44.2775 49.0168 44.9543 45.496 44.9795L59.7988 31.9475C60.1192 35.4971 59.1472 39.1943 58.1464 43.0139L58.0744 43.2911L56.314 43.6115ZM58.078 55.0271C57.6208 51.7079 58.3948 48.2339 59.3236 44.6447C63.8272 43.8671 68.0896 43.3811 71.686 44.5223L58.078 55.0271ZM60.5548 60.9455C59.5799 59.6869 58.8575 58.2518 58.4272 56.7191C58.4581 56.7033 58.4871 56.6839 58.5136 56.6615L73.2736 45.2675L73.36 45.1991C74.3633 45.7007 75.2817 46.3567 76.0816 47.1431C76.4295 47.4798 76.7531 47.8407 77.05 48.2231L60.5548 60.9455ZM65.0908 63.8255C64.9871 63.8987 64.9031 63.9966 64.8466 64.1104C64.79 64.2241 64.7626 64.3501 64.7668 64.4771C63.5632 63.8957 62.4761 63.0989 61.5592 62.1263L77.878 49.5263C78.5917 50.9099 78.9423 52.4521 78.8968 54.0083L65.0908 63.8255ZM66.0952 65.0135L78.7168 56.0423C78.2992 58.7207 77.2048 61.5575 76.0888 64.4663C75.9628 64.7831 75.844 65.1035 75.7288 65.4203C72.4312 65.7659 69.1048 66.0215 66.0952 65.0171V65.0135ZM74.7604 76.8791C74.4292 73.7867 75.5092 70.3991 76.8304 66.8783C79.8076 66.5615 82.666 66.2663 85.1392 66.8531L74.7604 76.8791ZM76.8016 81.7283C76.0483 80.8266 75.4795 79.7857 75.1276 78.6647C75.1648 78.6389 75.1998 78.61 75.232 78.5783L86.7952 67.4183C87.3591 67.6747 87.8898 67.9987 88.3756 68.3831C88.822 68.7552 89.1892 69.213 89.4556 69.7295L77.7952 82.7471C77.4373 82.4307 77.105 82.0864 76.8016 81.7175V81.7283ZM90.7408 74.6759L84.4768 84.9035C82.4968 84.9035 80.6644 84.5903 79.0768 83.6687L90.1288 71.3171C90.4421 72.3885 90.672 73.4826 90.8164 74.5895C90.7878 74.6111 90.7624 74.6365 90.7408 74.6651V74.6759ZM91.594 84.0575C89.794 84.3671 88.0336 84.6731 86.3488 84.8171L91.0936 77.0699C91.1692 77.8223 91.2376 78.5927 91.3024 79.3667C91.4392 80.8931 91.5724 82.4627 91.7668 84.0251L91.594 84.0575ZM93.5092 85.3067C95.3885 84.9635 97.2912 84.7637 99.2008 84.7091L97.552 95.4911C95.1616 92.8811 94.0996 89.1803 93.52 85.2959L93.5092 85.3067ZM99.4888 97.1435C99.2836 97.0103 99.0856 96.8663 98.8948 96.7187C98.9334 96.6431 98.9589 96.5615 98.9704 96.4775L100.77 84.7559C101.662 84.8206 102.545 84.975 103.406 85.2167L102.66 98.8751C101.555 98.3864 100.494 97.8035 99.4888 97.1327V97.1435ZM104.111 99.4547C104.159 99.3581 104.187 99.2528 104.194 99.1451L104.914 85.7927C105.942 86.2816 106.901 86.9051 107.765 87.6467C107.756 87.7087 107.756 87.7718 107.765 87.8339L109.187 100.545C107.456 100.392 105.75 100.022 104.111 99.4439V99.4547ZM112.802 100.571C112.114 100.617 111.434 100.635 110.764 100.625L109.504 89.3675C112.344 92.6399 114.036 96.9887 114.994 100.308C114.324 100.409 113.586 100.502 112.802 100.56V100.571Z" fill="#C3C3C3"/>
<path d="M7.96948 130.793L26.4771 130.703L44.9847 130.674L81.9999 130.613L119.015 130.674L137.523 130.703L156.03 130.793L137.523 130.88L119.015 130.912L81.9999 130.973L44.9847 130.912L26.4771 130.88L7.96948 130.793Z" fill="#263238"/>
<path d="M82.0001 145.989C115.854 145.989 143.297 143.422 143.297 140.254C143.297 137.087 115.854 134.52 82.0001 134.52C48.1466 134.52 20.7029 137.087 20.7029 140.254C20.7029 143.422 48.1466 145.989 82.0001 145.989Z" fill="#C3C3C3"/>
<path d="M88.0949 116.191H86.6765V143.861H88.0949V116.191Z" fill="#263238"/>
<path d="M118.324 141.922H88.095V143.859H118.324V141.922Z" fill="#263238"/>
<path d="M98.4269 114.357L98.3225 137.52C98.3192 138.244 98.0281 138.938 97.5133 139.448C96.9985 139.958 96.3022 140.243 95.5775 140.239C94.8528 140.236 94.1591 139.945 93.6491 139.43C93.139 138.915 92.8544 138.219 92.8577 137.494L92.9621 114.332L98.4269 114.357Z" fill="#C3C3C3"/>
<path d="M98.0775 121.057L98.0055 137.502C98.0041 137.819 97.9402 138.133 97.8175 138.425C97.6948 138.718 97.5157 138.983 97.2904 139.206C97.0651 139.43 96.798 139.607 96.5044 139.727C96.2108 139.847 95.8964 139.908 95.5791 139.906C95.2619 139.905 94.9481 139.841 94.6556 139.718C94.363 139.596 94.0975 139.417 93.8742 139.191C93.6509 138.966 93.4742 138.699 93.3541 138.405C93.234 138.112 93.1729 137.797 93.1743 137.48L93.2463 121.035L98.0775 121.057Z" fill="#C7C7C7"/>
<path d="M99.2906 112.318L92.1123 112.285L92.096 115.885L99.2743 115.918L99.2906 112.318Z" fill="#B7CF35"/>
<path d="M106.84 114.357L106.736 137.52C106.732 138.244 106.441 138.938 105.926 139.448C105.412 139.958 104.715 140.243 103.991 140.239C103.266 140.236 102.572 139.945 102.062 139.43C101.552 138.915 101.267 138.219 101.271 137.494L101.375 114.332L106.84 114.357Z" fill="#C3C3C3"/>
<path d="M106.498 121.057L106.426 137.502C106.423 138.142 106.166 138.755 105.711 139.206C105.256 139.657 104.64 139.909 104 139.906C103.359 139.904 102.746 139.646 102.295 139.191C101.844 138.736 101.592 138.121 101.595 137.48L101.67 121.035L106.498 121.057Z" fill="#37474F"/>
<path d="M107.711 112.32L100.533 112.287L100.516 115.887L107.695 115.92L107.711 112.32Z" fill="#455A64"/>
<path d="M118.321 126.523V129.112H88.095V126.523H93.0018V127.391C93.0018 127.819 94.2114 128.161 95.6946 128.161C97.1778 128.161 98.3874 127.819 98.3874 127.391V126.523H101.44V127.391C101.44 127.819 102.643 128.161 104.129 128.161C105.616 128.161 106.819 127.819 106.819 127.391V126.523H109.861V127.391C109.861 127.819 111.063 128.161 112.55 128.161C114.037 128.161 115.243 127.819 115.243 127.391V126.523H118.321Z" fill="#455A64"/>
<path d="M118.324 129.113H88.095V130.157H118.324V129.113Z" fill="#263238"/>
<path d="M119.739 116.191H118.321V143.861H119.739V116.191Z" fill="#263238"/>
<path d="M62.2937 140.486H35.8445C35.8445 140.486 39.3689 128.793 41.1041 124.704C41.3776 124.936 41.6758 125.137 41.9933 125.305C42.2457 125.439 42.511 125.548 42.7853 125.629C42.9549 125.684 43.1281 125.727 43.3037 125.758H43.3613L43.5341 125.78C45.0245 125.902 47.1881 124.772 49.2941 124.002C50.193 123.635 51.142 123.405 52.1093 123.321C53.9597 123.242 55.9361 124.182 57.0809 124.84C58.7873 128.901 62.2937 140.486 62.2937 140.486Z" fill="#B7CF35"/>
<path d="M49.2796 124.008C47.0764 124.818 44.794 126.031 43.3036 125.757C42.4901 125.606 41.7311 125.242 41.104 124.702C40.9744 123.982 43.2028 123.075 45.9964 123.32C47.1075 123.461 48.2054 123.691 49.2796 124.008Z" fill="#B7CF35"/>
<g opacity="0.2">
<path d="M49.2796 124.008C47.0764 124.818 44.794 126.031 43.3036 125.757C42.4901 125.606 41.7311 125.242 41.104 124.702C40.9744 123.982 43.2028 123.075 45.9964 123.32C47.1075 123.461 48.2054 123.691 49.2796 124.008Z" fill="black"/>
</g>
<path opacity="0.3" d="M39.5202 132.525C39.4622 132.525 39.4048 132.514 39.351 132.493C39.2477 132.447 39.1667 132.363 39.1256 132.257C39.0845 132.152 39.0865 132.035 39.1314 131.931C41.3274 126.917 44.8338 118.673 44.8914 117.891V108.827C44.9011 108.72 44.9503 108.621 45.0292 108.549C45.1082 108.477 45.2111 108.438 45.318 108.438C45.4248 108.438 45.5278 108.477 45.6067 108.549C45.6856 108.621 45.7348 108.72 45.7446 108.827V117.92C45.7446 118.871 41.2734 129.156 39.9018 132.288C39.8671 132.359 39.8128 132.42 39.7453 132.462C39.6778 132.504 39.5997 132.526 39.5202 132.525Z" fill="white"/>
<path opacity="0.3" d="M41.446 130.488C41.4354 130.491 41.4241 130.491 41.4136 130.488C41.4032 130.484 41.3939 130.477 41.3861 130.469C41.3783 130.461 41.3722 130.452 41.3681 130.442C41.3641 130.431 41.3622 130.42 41.3626 130.409C41.363 130.398 41.3656 130.387 41.3704 130.376C43.12 126.341 46.468 118.554 46.468 117.92V109.932C46.468 109.909 46.4771 109.887 46.4933 109.871C46.5095 109.855 46.5315 109.846 46.5544 109.846C46.5656 109.846 46.5766 109.848 46.5869 109.852C46.5972 109.857 46.6065 109.863 46.6142 109.871C46.622 109.879 46.628 109.889 46.6319 109.899C46.6359 109.91 46.6377 109.921 46.6372 109.932V117.92C46.6372 118.752 41.734 129.962 41.5252 130.441C41.5181 130.456 41.5068 130.468 41.4927 130.477C41.4786 130.485 41.4623 130.489 41.446 130.488Z" fill="white"/>
<g opacity="0.2">
<path d="M62.2937 140.485H35.8445C35.8445 140.485 39.3689 128.792 41.1041 124.703L41.2877 124.271C42.6989 120.937 43.9085 118.003 43.9085 117.643V106.584H54.2009V117.643C54.2009 118.003 55.5473 121.279 57.0809 124.843C58.7873 128.9 62.2937 140.485 62.2937 140.485Z" fill="white"/>
<path d="M62.2936 140.485L49.1068 140.561L35.8444 140.604H35.686L35.7292 140.453C36.5788 137.635 37.4548 134.825 38.3572 132.021C38.8144 130.625 39.2752 129.224 39.7612 127.835C40.2472 126.445 40.7656 125.059 41.3524 123.713C41.9392 122.366 42.4864 120.998 43.03 119.634L43.426 118.608L43.6096 118.093C43.6678 117.938 43.71 117.778 43.7356 117.614V115.407L43.7536 106.584V106.422H43.9156L54.208 106.443H54.3484V106.584V115.411V117.618C54.3713 117.788 54.4148 117.955 54.478 118.115L54.64 118.64L55.036 119.67C55.576 121.034 56.1448 122.391 56.7136 123.749C57.8482 126.466 58.8455 129.24 59.7016 132.057C60.5908 134.84 61.4512 137.666 62.2936 140.485ZM62.2936 140.485C61.4152 137.677 60.5116 134.877 59.5828 132.086C59.1112 130.689 58.636 129.3 58.1428 127.917C57.6496 126.535 57.124 125.163 56.5264 123.817C55.9288 122.471 55.378 121.106 54.8308 119.738L54.4276 118.709L54.2368 118.187C54.1644 118.004 54.116 117.813 54.0928 117.618V115.4L54.0712 106.573L54.2116 106.713L43.9192 106.735L44.0812 106.573V115.397V117.603C44.0569 117.806 44.0073 118.004 43.9336 118.194L43.7428 118.716L43.3396 119.745C42.7924 121.113 42.2164 122.467 41.644 123.824C41.0716 125.181 40.5316 126.535 40.042 127.925C39.5524 129.314 39.0808 130.704 38.62 132.097C37.7032 134.891 36.8152 137.694 35.956 140.507L35.8444 140.355L49.0312 140.399L62.2936 140.485Z" fill="#263238"/>
<path d="M44.002 109.04C44.4053 108.944 44.8187 108.899 45.2332 108.903C45.6489 108.897 46.0637 108.943 46.468 109.04C45.6556 109.218 44.8143 109.218 44.002 109.04Z" fill="#263238"/>
<path d="M44.002 110.318C44.1944 110.227 44.4047 110.18 44.6176 110.18C44.8305 110.18 45.0407 110.227 45.2332 110.318C45.0398 110.406 44.8299 110.451 44.6176 110.451C44.4052 110.451 44.1953 110.406 44.002 110.318Z" fill="#263238"/>
<path d="M44.002 111.292C44.1939 111.2 44.4048 111.154 44.6176 111.159C44.8305 111.153 45.0418 111.198 45.2332 111.292C45.0421 111.387 44.8308 111.434 44.6176 111.429C44.4045 111.432 44.1937 111.385 44.002 111.292Z" fill="#263238"/>
<path d="M44.002 112.271C44.1944 112.18 44.4047 112.133 44.6176 112.133C44.8305 112.133 45.0407 112.18 45.2332 112.271C45.0398 112.359 44.8299 112.404 44.6176 112.404C44.4052 112.404 44.1953 112.359 44.002 112.271Z" fill="#263238"/>
<path d="M44.002 113.169C44.4055 113.075 44.8189 113.03 45.2332 113.036C45.6487 113.028 46.0636 113.073 46.468 113.169C45.6561 113.352 44.8138 113.352 44.002 113.169Z" fill="#263238"/>
<path d="M44.002 114.446C44.1937 114.353 44.4045 114.306 44.6176 114.309C44.8308 114.304 45.0421 114.351 45.2332 114.446C45.0398 114.533 44.8299 114.579 44.6176 114.579C44.4052 114.579 44.1953 114.533 44.002 114.446Z" fill="#263238"/>
<path d="M44.002 115.422C44.1953 115.334 44.4052 115.289 44.6176 115.289C44.8299 115.289 45.0398 115.334 45.2332 115.422C45.0407 115.513 44.8305 115.56 44.6176 115.56C44.4047 115.56 44.1944 115.513 44.002 115.422Z" fill="#263238"/>
<path d="M44.002 116.401C44.1937 116.308 44.4045 116.261 44.6176 116.264C44.8308 116.259 45.0421 116.306 45.2332 116.401C45.0418 116.494 44.8305 116.54 44.6176 116.534C44.4048 116.538 44.1939 116.493 44.002 116.401Z" fill="#263238"/>
</g>
</svg>
