<svg width="183" height="108" viewBox="0 0 183 108" fill="none" xmlns="http://www.w3.org/2000/svg">
<path d="M87.0001 107.791C124.265 107.791 154.474 106.027 154.474 103.851C154.474 101.676 124.265 99.9121 87.0001 99.9121C49.7354 99.9121 19.5264 101.676 19.5264 103.851C19.5264 106.027 49.7354 107.791 87.0001 107.791Z" fill="#C3C3C3"/>
<circle cx="52.5133" cy="52.0834" r="52.0834" fill="#FAFAFA"/>
<path d="M53.7574 63.0117H40.2773V66.5778H53.7574V63.0117Z" fill="#F5F5F5"/>
<path d="M117.698 81.6442C118.586 81.0232 119.263 80.1693 119.645 79.1877C120.027 78.206 120.098 77.1397 119.85 76.1201C119.187 73.2252 116.333 71.3606 113.464 71.9479C110.595 72.5353 108.827 75.3603 109.49 78.2505C109.71 79.2852 110.246 80.2352 111.033 80.9816C111.819 81.728 112.821 82.2374 113.911 82.446C106.218 85.243 108.507 93.3916 108.507 93.3916L127.346 89.5084C127.346 89.5084 125.848 81.1128 117.698 81.6442Z" fill="#C3C3C3"/>
<path d="M54.2662 70.6458C54.8209 70.2664 55.2439 69.7445 55.4829 69.1446C55.7218 68.5448 55.7663 67.8931 55.6109 67.27C55.1964 65.5009 53.4127 64.3614 51.6197 64.7204C49.8267 65.0793 48.7215 66.8057 49.1359 68.5719C49.2733 69.2042 49.6089 69.7848 50.1004 70.2409C50.5919 70.697 51.2176 71.0083 51.8991 71.1358C47.0912 72.8451 48.5219 77.8248 48.5219 77.8248L60.2959 75.4518C60.2959 75.4518 59.3595 70.3211 54.2662 70.6458Z" fill="#C3C3C3"/>
<path d="M181.941 77.7536C181.939 77.7311 181.939 77.7084 181.941 77.6858C181.941 77.6342 181.941 77.5718 181.941 77.4958C181.941 77.3194 181.941 77.0833 181.941 76.7821C181.941 76.1551 181.925 75.2731 181.914 74.1875L181.963 74.2364L173.371 74.2581L173.441 74.1875V76.0222C173.441 76.6192 173.441 77.1973 173.441 77.7536L173.374 77.6858L179.518 77.7184L181.309 77.7374H181.792H181.966C181.913 77.7412 181.861 77.7412 181.808 77.7374H181.339L179.564 77.7564L173.374 77.7889H173.306V77.7211C173.306 77.1638 173.306 76.5867 173.306 75.9896V74.1604L173.376 74.0898L181.969 74.1116H182.02V74.1604C182.02 75.2595 182.001 76.1524 181.993 76.7848C181.993 77.0806 181.993 77.3276 181.993 77.4877C181.982 77.5774 181.965 77.6663 181.941 77.7536Z" fill="#C3C3C3"/>
<path d="M180.63 81.3919C180.629 81.3711 180.629 81.3503 180.63 81.3295V81.1449C180.63 80.9767 180.63 80.7433 180.63 80.4447C180.63 79.8287 180.617 78.9439 180.606 77.8285L180.647 77.8692L167.169 77.8964L167.237 77.8285V79.6333C167.237 80.2276 167.237 80.8138 167.237 81.3865L167.172 81.3213L176.777 81.3512L179.613 81.3702H180.378H180.579H180.649C180.649 81.3702 180.63 81.3702 180.587 81.3702H180.397H179.643L176.823 81.3892L167.172 81.419H167.104V79.598C167.104 79.2994 167.104 79.0009 167.104 78.6997V77.7932L167.175 77.7227L180.652 77.7498H180.696V77.7932C180.696 78.9195 180.677 79.8124 180.671 80.4339C180.671 80.7297 180.671 80.9604 180.671 81.1259C180.671 81.1965 180.671 81.2562 180.671 81.3023C180.671 81.3485 180.633 81.3946 180.63 81.3919Z" fill="#E0E0E0"/>
<path d="M19.2254 82.7207H5.74536V86.2868H19.2254V82.7207Z" fill="#F5F5F5"/>
<path d="M13.5235 90.0411C13.5235 90.0411 13.5235 90.0167 13.5235 89.9759V89.7914C13.5235 89.6231 13.5235 89.3897 13.5235 89.0912C13.5235 88.4751 13.5235 87.5904 13.5018 86.475L13.5425 86.5157L0.0651346 86.5428L0.132983 86.475V88.2797C0.132983 88.8768 0.132983 89.4603 0.132983 90.0357L0.0651346 89.9678L9.67243 89.9977L12.5085 90.0167H13.2738H13.4746C13.498 90.0126 13.5218 90.0126 13.5452 90.0167H13.4828H13.2901H12.5383L9.71856 90.0357L0.0651346 90.0655H0V90.0004C0 89.425 0 88.8415 0 88.2445V86.4397L0.0705626 86.3691L13.5479 86.3963H13.5913V86.4397C13.5913 87.566 13.575 88.4589 13.5696 89.0803C13.5696 89.3762 13.5696 89.6069 13.5696 89.7724C13.5696 89.8457 13.5696 89.9027 13.5696 89.9488C13.5614 89.9827 13.5456 90.0142 13.5235 90.0411Z" fill="#E0E0E0"/>
<path d="M142.766 86.8848H129.286V90.4509H142.766V86.8848Z" fill="#F5F5F5"/>
<path d="M137.067 94.2047C137.065 94.183 137.065 94.1612 137.067 94.1396V93.955C137.067 93.7895 137.067 93.5533 137.067 93.2548C137.067 92.6388 137.053 91.754 137.042 90.6386L137.086 90.6793L123.605 90.7064L123.673 90.6386V94.2047L123.605 94.1368L133.21 94.1667L136.046 94.1857H136.814H137.012H137.086H137.023H136.83H136.079L133.259 94.2047L123.605 94.2345H123.538V90.6467L123.605 90.5762L137.086 90.6033H137.126V90.6467C137.126 91.773 137.11 92.6659 137.105 93.2874C137.105 93.5832 137.105 93.8139 137.105 93.9794C137.105 94.0527 137.105 94.1097 137.105 94.1558C137.093 94.173 137.08 94.1893 137.067 94.2047Z" fill="#E0E0E0"/>
<path d="M95.7745 104.212C95.7745 104.212 95.7745 104.187 95.7745 104.144C95.7745 104.101 95.7745 104.033 95.7745 103.957C95.7745 103.78 95.7745 103.542 95.7609 103.24C95.7609 102.616 95.7446 101.731 95.7338 100.646L95.7826 100.697L87.1958 100.719C87.1306 100.784 87.2799 100.635 87.2663 100.651V101.571C87.2663 101.878 87.2663 102.182 87.2663 102.478C87.2663 103.075 87.2663 103.656 87.2663 104.209L87.2012 104.141L93.3428 104.174L95.1367 104.193H95.6198H95.7907C95.7393 104.197 95.6875 104.197 95.6361 104.193H95.1665L93.3889 104.209L87.2012 104.242H87.1333V104.174C87.1333 103.631 87.1333 103.039 87.1333 102.442V100.616C87.117 100.63 87.2663 100.48 87.2039 100.543L95.7935 100.564H95.845V100.613C95.845 101.699 95.8233 102.605 95.8179 103.238C95.8179 103.533 95.8179 103.78 95.8043 103.943C95.8033 104.034 95.7933 104.124 95.7745 104.212Z" fill="#C3C3C3"/>
<path d="M94.4662 107.853C94.4642 107.831 94.4642 107.81 94.4662 107.788V107.606C94.4662 107.438 94.4662 107.204 94.4662 106.903C94.4662 106.287 94.4526 105.402 94.4417 104.287L94.4852 104.328L81.0051 104.355C81.0377 104.325 80.9373 104.425 81.073 104.287V107.848L81.0051 107.78L90.6124 107.81L93.4457 107.829H94.2138H94.4146H94.4852H94.4227H94.2301H93.4783L90.6585 107.848L81.0051 107.88H80.9373V104.292L81.0051 104.225L94.4852 104.252H94.5259V104.292C94.5259 105.419 94.5096 106.312 94.5042 106.933C94.5042 107.229 94.5042 107.46 94.5042 107.625C94.5042 107.698 94.5042 107.755 94.5042 107.802C94.4927 107.82 94.48 107.837 94.4662 107.853Z" fill="#E0E0E0"/>
<path d="M120.156 66.875H106.676V70.4411H120.156V66.875Z" fill="#F5F5F5"/>
<path d="M91.1525 84.7071L79.9928 79.2793C79.6229 79.0985 79.3397 78.7785 79.2054 78.3893C79.0711 78.0001 79.0966 77.5735 79.2764 77.2031L86.7994 61.7582C86.8886 61.5747 87.0131 61.4107 87.1657 61.2754C87.3183 61.1401 87.4962 61.0362 87.689 60.9697C87.8818 60.9032 88.0858 60.8753 88.2894 60.8876C88.493 60.9 88.6922 60.9523 88.8755 61.0417L95.9507 64.4857L98.6809 72.8011L93.2286 84.0015C93.046 84.3695 92.7251 84.6503 92.3361 84.7825C91.9471 84.9147 91.5216 84.8876 91.1525 84.7071Z" fill="#C3C3C3"/>
<path d="M95.9507 64.4902L93.8339 68.8325C93.6672 69.1774 93.6438 69.5743 93.7689 69.9364C93.894 70.2985 94.1574 70.5964 94.5015 70.7648L98.6809 72.8003L95.9507 64.4902Z" fill="#E0E0E0"/>
<path d="M92.9844 68.2065C92.9572 68.2635 91.7794 67.7451 90.3546 67.0503C88.9298 66.3556 87.7954 65.7477 87.8225 65.6934C87.8496 65.6391 89.0275 66.1547 90.455 66.8495C91.8825 67.5443 93.0115 68.1522 92.9844 68.2065Z" fill="white"/>
<path d="M95.1231 72.2879C95.0959 72.3421 93.1718 71.4737 90.8269 70.3203C88.4821 69.1668 86.5986 68.2061 86.6258 68.1491C86.6529 68.0921 88.5771 68.9633 90.9246 70.1167C93.2722 71.2701 95.1502 72.2227 95.1231 72.2879Z" fill="white"/>
<path d="M94.8895 74.7102C94.8623 74.7672 92.7645 73.801 90.2079 72.5581C87.6514 71.3151 85.5943 70.2567 85.6268 70.1997C85.6594 70.1427 87.7491 71.1088 90.3084 72.3545C92.8676 73.6002 94.9166 74.6641 94.8895 74.7102Z" fill="white"/>
<path d="M93.9451 76.6494C93.918 76.7037 91.8228 75.7403 89.2663 74.4946C86.7098 73.2489 84.6526 72.1932 84.6852 72.1389C84.7178 72.0846 86.8075 73.0481 89.364 74.2938C91.9205 75.5395 93.9804 76.5925 93.9451 76.6494Z" fill="white"/>
<path d="M93.0035 78.5833C92.9763 78.6402 90.8812 77.6741 88.322 76.4311C85.7627 75.1881 83.7083 74.1297 83.7409 74.0727C83.7734 74.0157 85.8631 74.9819 88.4224 76.2276C90.9816 77.4733 93.0306 78.529 93.0035 78.5833Z" fill="white"/>
<path d="M92.0591 80.5205C92.032 80.5748 89.9368 79.6114 87.3803 78.3657C84.8238 77.12 82.7666 76.0643 82.7992 76.01C82.8318 75.9557 84.9215 76.9192 87.478 78.1649C90.0345 79.4105 92.0808 80.4635 92.0591 80.5205Z" fill="white"/>
<path d="M8.11201 42.0371L40.3643 42.0371L40.3643 0.383827L8.11201 0.383827L8.11201 42.0371Z" fill="#E0E0E0"/>
<path d="M8.11206 42.0374C8.13762 41.9971 8.16766 41.9598 8.20162 41.9262L8.47301 41.6141L9.55858 40.4199H9.57215H9.59115C12.3946 40.3901 17.9039 40.3711 24.2301 40.3711C30.5562 40.3711 36.0655 40.3901 38.869 40.4199H38.888H38.9015L39.9871 41.6141L40.2585 41.9262C40.2925 41.9598 40.3225 41.9971 40.3481 42.0374C40.3091 42.0102 40.2735 41.9783 40.2422 41.9425L39.9735 41.6466L38.8554 40.4824H38.888C36.0845 40.5122 30.5752 40.5312 24.2491 40.5312C17.9229 40.5312 12.4136 40.5122 9.61015 40.4824H9.64271L8.52186 41.6466L8.22062 41.9425C8.18766 41.9776 8.15129 42.0094 8.11206 42.0374Z" fill="#C3C3C3"/>
<path d="M40.3641 0.384766C40.3386 0.425119 40.3085 0.462448 40.2745 0.496036L40.0032 0.808138L38.9176 2.00226L38.904 2.01583H38.8877C36.0842 2.04569 30.575 2.06468 24.2488 2.06468C17.9227 2.06468 12.4134 2.04569 9.60995 2.01583H9.57738V2.00226L8.49181 0.808138L8.22042 0.496036C8.18646 0.462448 8.15641 0.425119 8.13086 0.384766C8.16915 0.412908 8.2046 0.444722 8.2367 0.479754L8.52981 0.775571L9.63166 1.9317H9.59909C12.4026 1.90185 17.9118 1.88285 24.238 1.88285C30.5641 1.88285 36.0734 1.90185 38.8769 1.9317L38.8443 1.94527L39.9733 0.775571L40.2691 0.479754C40.2971 0.444572 40.3289 0.412702 40.3641 0.384766Z" fill="#C3C3C3"/>
<path d="M9.59917 40.4512L38.877 40.4512L38.877 1.97045L9.59917 1.97045L9.59917 40.4512Z" fill="white"/>
<path d="M33.8887 6.68945C33.9402 6.68945 33.9836 13.1649 33.9836 21.1493C33.9836 29.1336 33.9402 35.6063 33.8887 35.6063C33.8371 35.6063 33.7964 29.1363 33.7964 21.1493C33.7964 13.1622 33.8371 6.68945 33.8887 6.68945Z" fill="#E0E0E0"/>
<path d="M32.9741 6.68945C33.0257 6.68945 33.0664 13.1649 33.0664 21.1493C33.0664 29.1336 33.0257 35.6063 32.9741 35.6063C32.9225 35.6063 32.8818 29.1363 32.8818 21.1493C32.8818 13.1622 32.9171 6.68945 32.9741 6.68945Z" fill="#E0E0E0"/>
<path d="M32.0596 6.68945C32.1111 6.68945 32.1519 13.1649 32.1519 21.1493C32.1519 29.1336 32.1111 35.6063 32.0596 35.6063C32.008 35.6063 31.9646 29.1363 31.9646 21.1493C31.9646 13.1622 32.008 6.68945 32.0596 6.68945Z" fill="#E0E0E0"/>
<path d="M31.1423 6.68945C31.1939 6.68945 31.2373 13.1649 31.2373 21.1493C31.2373 29.1336 31.1939 35.6063 31.1423 35.6063C31.0908 35.6063 31.05 29.1363 31.05 21.1493C31.05 13.1622 31.0908 6.68945 31.1423 6.68945Z" fill="#E0E0E0"/>
<path d="M30.2278 6.68945C30.2794 6.68945 30.3201 13.1649 30.3201 21.1493C30.3201 29.1336 30.2794 35.6063 30.2278 35.6063C30.1762 35.6063 30.1328 29.1363 30.1328 21.1493C30.1328 13.1622 30.1762 6.68945 30.2278 6.68945Z" fill="#E0E0E0"/>
<path d="M29.3103 6.68945C29.3619 6.68945 29.4053 13.1649 29.4053 21.1493C29.4053 29.1336 29.3619 35.6063 29.3103 35.6063C29.2587 35.6063 29.218 29.1363 29.218 21.1493C29.218 13.1622 29.2587 6.68945 29.3103 6.68945Z" fill="#E0E0E0"/>
<path d="M28.3958 6.68945C28.4473 6.68945 28.488 13.1649 28.488 21.1493C28.488 29.1336 28.4473 35.6063 28.3958 35.6063C28.3442 35.6063 28.3008 29.1363 28.3008 21.1493C28.3008 13.1622 28.3442 6.68945 28.3958 6.68945Z" fill="#E0E0E0"/>
<path d="M27.4892 6.68945C27.5408 6.68945 27.5842 13.1649 27.5842 21.1493C27.5842 29.1336 27.5408 35.6063 27.4892 35.6063C27.4377 35.6063 27.397 29.1363 27.397 21.1493C27.397 13.1622 27.4268 6.68945 27.4892 6.68945Z" fill="#E0E0E0"/>
<path d="M26.564 6.68945C26.6155 6.68945 26.6562 13.1649 26.6562 21.1493C26.6562 29.1336 26.6155 35.6063 26.564 35.6063C26.5124 35.6063 26.4717 29.1363 26.4717 21.1493C26.4717 13.1622 26.5124 6.68945 26.564 6.68945Z" fill="#E0E0E0"/>
<path d="M25.6492 6.68945C25.7008 6.68945 25.7415 13.1649 25.7415 21.1493C25.7415 29.1336 25.7008 35.6063 25.6492 35.6063C25.5976 35.6063 25.5542 29.1363 25.5542 21.1493C25.5542 13.1622 25.5895 6.68945 25.6492 6.68945Z" fill="#E0E0E0"/>
<path d="M24.7319 6.68945C24.7835 6.68945 24.8242 13.1649 24.8242 21.1493C24.8242 29.1336 24.7835 35.6063 24.7319 35.6063C24.6804 35.6063 24.6396 29.1363 24.6396 21.1493C24.6396 13.1622 24.6804 6.68945 24.7319 6.68945Z" fill="#E0E0E0"/>
<path d="M23.8174 6.68945C23.869 6.68945 23.9097 13.1649 23.9097 21.1493C23.9097 29.1336 23.869 35.6063 23.8174 35.6063C23.7658 35.6063 23.7224 29.1363 23.7224 21.1493C23.7224 13.1622 23.7658 6.68945 23.8174 6.68945Z" fill="#E0E0E0"/>
<path d="M22.9001 6.68945C22.9517 6.68945 22.9951 13.1649 22.9951 21.1493C22.9951 29.1336 22.9517 35.6063 22.9001 35.6063C22.8486 35.6063 22.8079 29.1363 22.8079 21.1493C22.8079 13.1622 22.8486 6.68945 22.9001 6.68945Z" fill="#E0E0E0"/>
<path d="M21.9854 6.68945C22.0369 6.68945 22.0776 13.1649 22.0776 21.1493C22.0776 29.1336 22.0369 35.6063 21.9854 35.6063C21.9338 35.6063 21.8904 29.1363 21.8904 21.1493C21.8904 13.1622 21.9338 6.68945 21.9854 6.68945Z" fill="#E0E0E0"/>
<path d="M21.0681 6.68945C21.1197 6.68945 21.1631 13.1649 21.1631 21.1493C21.1631 29.1336 21.1197 35.6063 21.0681 35.6063C21.0165 35.6063 20.9758 29.1363 20.9758 21.1493C20.9758 13.1622 21.0165 6.68945 21.0681 6.68945Z" fill="#E0E0E0"/>
<path d="M20.1616 6.68945C20.2132 6.68945 20.2539 13.1649 20.2539 21.1493C20.2539 29.1336 20.2132 35.6063 20.1616 35.6063C20.1101 35.6063 20.0667 29.1363 20.0667 21.1493C20.0667 13.1622 20.1019 6.68945 20.1616 6.68945Z" fill="#E0E0E0"/>
<path d="M19.2363 6.68945C19.2879 6.68945 19.3313 13.1649 19.3313 21.1493C19.3313 29.1336 19.2879 35.6063 19.2363 35.6063C19.1848 35.6063 19.144 29.1363 19.144 21.1493C19.144 13.1622 19.1848 6.68945 19.2363 6.68945Z" fill="#E0E0E0"/>
<path d="M18.3218 6.68945C18.3733 6.68945 18.414 13.1649 18.414 21.1493C18.414 29.1336 18.3733 35.6063 18.3218 35.6063C18.2702 35.6063 18.2295 29.1363 18.2295 21.1493C18.2295 13.1622 18.2621 6.68945 18.3218 6.68945Z" fill="#E0E0E0"/>
<path d="M17.407 6.68945C17.4586 6.68945 17.4993 13.1649 17.4993 21.1493C17.4993 29.1336 17.4586 35.6063 17.407 35.6063C17.3554 35.6063 17.312 29.1363 17.312 21.1493C17.312 13.1622 17.3554 6.68945 17.407 6.68945Z" fill="#E0E0E0"/>
<path d="M16.4897 6.68945C16.5413 6.68945 16.5847 13.1649 16.5847 21.1493C16.5847 29.1336 16.5413 35.6063 16.4897 35.6063C16.4382 35.6063 16.3975 29.1363 16.3975 21.1493C16.3975 13.1622 16.4382 6.68945 16.4897 6.68945Z" fill="#E0E0E0"/>
<path d="M15.5752 6.68945C15.6268 6.68945 15.6675 13.1649 15.6675 21.1493C15.6675 29.1336 15.6268 35.6063 15.5752 35.6063C15.5236 35.6063 15.4802 29.1363 15.4802 21.1493C15.4802 13.1622 15.5236 6.68945 15.5752 6.68945Z" fill="#E0E0E0"/>
<path d="M14.6579 6.68945C14.7095 6.68945 14.7529 13.1649 14.7529 21.1493C14.7529 29.1336 14.7095 35.6063 14.6579 35.6063C14.6064 35.6063 14.5657 29.1363 14.5657 21.1493C14.5657 13.1622 14.6064 6.68945 14.6579 6.68945Z" fill="#E0E0E0"/>
<path d="M139.189 3.51367H73.7754V57.6619H139.189V3.51367Z" fill="white"/>
<path d="M139.192 57.6618C139.192 57.2846 139.173 36.1458 139.146 3.51359L139.192 3.55702H73.7863L73.8406 3.50545C73.8406 23.1054 73.8406 41.6062 73.8406 57.6537L73.7917 57.6048L139.197 57.6537L73.7917 57.7025H73.7456V57.6537C73.7456 41.6062 73.7456 23.1054 73.7456 3.50545V3.45117H73.8053H139.211H139.254V3.49731C139.208 36.1458 139.192 57.2954 139.192 57.6618Z" fill="#263238"/>
<path d="M131.671 18.1316C131.671 18.1615 119.945 18.1859 105.482 18.1859C91.0196 18.1859 79.29 18.1615 79.29 18.1316C79.29 18.1018 91.0142 18.0801 105.482 18.0801C119.95 18.0801 131.671 18.1018 131.671 18.1316Z" fill="#E0E0E0"/>
<path d="M131.671 23.9137C131.671 23.9435 119.945 23.9679 105.482 23.9679C91.0196 23.9679 79.29 23.9435 79.29 23.9137C79.29 23.8838 91.0142 23.8594 105.482 23.8594C119.95 23.8594 131.671 23.8865 131.671 23.9137Z" fill="#E0E0E0"/>
<path d="M131.671 29.7008C131.671 29.7306 119.945 29.755 105.482 29.755C91.0196 29.755 79.29 29.7306 79.29 29.7008C79.29 29.6709 91.0142 29.6465 105.482 29.6465C119.95 29.6465 131.671 29.6709 131.671 29.7008Z" fill="#E0E0E0"/>
<path d="M131.671 35.484C131.671 35.5138 119.945 35.5382 105.482 35.5382C91.0196 35.5382 79.29 35.5138 79.29 35.484C79.29 35.4541 91.0142 35.4297 105.482 35.4297C119.95 35.4297 131.671 35.4541 131.671 35.484Z" fill="#E0E0E0"/>
<path d="M131.671 41.2684C131.671 41.2982 119.945 41.3226 105.482 41.3226C91.0196 41.3226 79.29 41.2982 79.29 41.2684C79.29 41.2385 91.0142 41.2168 105.482 41.2168C119.95 41.2168 131.671 41.2385 131.671 41.2684Z" fill="#E0E0E0"/>
<path d="M131.671 47.0543C131.671 47.0841 119.945 47.1086 105.482 47.1086C91.0196 47.1086 79.29 47.0841 79.29 47.0543C79.29 47.0244 91.0142 47 105.482 47C119.95 47 131.671 47.0244 131.671 47.0543Z" fill="#E0E0E0"/>
<path d="M116.672 35.9805H111.453V52.7824H116.672V35.9805Z" fill="#B7CF35"/>
<path d="M126.526 30.4277H121.307V52.7823H126.526V30.4277Z" fill="#B7CF35"/>
<path d="M89.2013 44.918H83.9824V52.7829H89.2013V44.918Z" fill="#455A64"/>
<path d="M97.8341 42.5703H92.6152V52.7828H97.8341V42.5703Z" fill="#455A64"/>
<path d="M106.782 39.6016H101.563V52.7831H106.782V39.6016Z" fill="#B7CF35"/>
<path d="M139.219 6.51562H73.7699C73.2401 6.51562 72.7321 6.30518 72.3575 5.93058C71.9829 5.55599 71.7725 5.04793 71.7725 4.51817C71.7725 4.25599 71.8241 3.99638 71.9246 3.75419C72.025 3.51201 72.1721 3.29199 72.3577 3.10672C72.5432 2.92146 72.7634 2.77459 73.0057 2.6745C73.248 2.57442 73.5077 2.52308 73.7699 2.52344H139.219C139.746 2.52631 140.251 2.73773 140.622 3.11151C140.994 3.48528 141.203 3.99101 141.203 4.51817C141.203 5.04559 140.994 5.5516 140.622 5.92581C140.251 6.30001 139.746 6.51204 139.219 6.51562Z" fill="#263238"/>
<path d="M132.147 52.7829H131.908H131.202H128.488L118.528 52.7992L85.6624 52.8154H79.1191V52.7612C79.1191 41.4468 79.1327 31.4487 79.1354 24.2785C79.1354 20.6961 79.149 17.8194 79.1517 15.8355C79.1517 14.8476 79.1517 14.0823 79.1517 13.5612C79.1517 13.2898 79.1517 13.1053 79.1517 12.9723C79.1517 12.8393 79.1517 12.7715 79.1517 12.7715C79.1517 12.7715 79.1517 12.8393 79.1517 12.9723C79.1517 13.1053 79.1517 13.3034 79.1517 13.5612C79.1517 14.0823 79.1517 14.8476 79.1517 15.8355C79.1517 17.8194 79.1517 20.6961 79.168 24.2785C79.168 31.4487 79.168 41.4468 79.187 52.7747L79.1327 52.7205H85.6298L118.495 52.7367L128.456 52.753H131.17H131.875C132.065 52.7774 132.147 52.7829 132.147 52.7829Z" fill="#263238"/>
<path d="M81.7678 15.8316C80.9054 15.904 80.0384 15.904 79.176 15.8316C80.0384 15.7593 80.9054 15.7593 81.7678 15.8316Z" fill="#263238"/>
<path d="M81.7678 21.3355C80.9054 21.4079 80.0384 21.4079 79.176 21.3355C80.0384 21.2632 80.9054 21.2632 81.7678 21.3355Z" fill="#263238"/>
<path d="M81.7678 26.8375C80.9054 26.9099 80.0384 26.9099 79.176 26.8375C80.0384 26.7651 80.9054 26.7651 81.7678 26.8375Z" fill="#263238"/>
<path d="M81.7678 32.3414C80.9054 32.4138 80.0384 32.4138 79.176 32.3414C80.0384 32.269 80.9054 32.269 81.7678 32.3414Z" fill="#263238"/>
<path d="M81.7678 37.8433C80.9054 37.9157 80.0384 37.9157 79.176 37.8433C80.0384 37.771 80.9054 37.771 81.7678 37.8433Z" fill="#263238"/>
<path d="M81.7678 43.3472C80.9054 43.4196 80.0384 43.4196 79.176 43.3472C80.0384 43.2749 80.9054 43.2749 81.7678 43.3472Z" fill="#263238"/>
<path d="M52.1563 21.5721L49.2877 20.3861C47.8807 21.5212 46.1001 22.0888 44.2958 21.9776C42.4914 21.8663 40.794 21.0841 39.5372 19.7848C38.2803 18.4855 37.5549 16.763 37.5037 14.956C37.4524 13.149 38.0789 11.3881 39.26 10.0196C40.4411 8.6511 42.0914 7.77389 43.8865 7.56044C45.6816 7.34699 47.4916 7.81273 48.9607 8.86612C50.4298 9.9195 51.4518 11.4843 51.8257 13.253C52.1996 15.0216 51.8983 16.8662 50.9812 18.424L52.1563 21.5721Z" fill="#FAFAFA"/>
<path d="M52.1562 21.5731L51.0055 18.4169V18.3843L50.9784 18.4087L51.0137 18.4358C51.6675 17.3396 52.0179 16.0891 52.0287 14.8128C52.0328 14.4292 52.0038 14.046 51.9418 13.6675C51.9066 13.4748 51.8767 13.2767 51.8333 13.0786C51.7899 12.8804 51.722 12.685 51.665 12.4842C51.0839 10.724 49.8545 9.25096 48.2265 8.36447C47.3257 7.87189 46.3301 7.57764 45.3063 7.50144C44.2239 7.42753 43.1385 7.59436 42.1283 7.98994C41.074 8.3959 40.1316 9.04711 39.3791 9.88969L39.1077 10.2235C39.01 10.3348 38.9367 10.4596 38.8363 10.5763C38.7359 10.693 38.6626 10.8097 38.5948 10.9373L38.3804 11.3145C38.3079 11.4392 38.2444 11.5689 38.1904 11.7026C38.1307 11.8329 38.0737 11.974 38.0167 12.0934L37.8647 12.5168C37.8171 12.6503 37.7763 12.7862 37.7426 12.9239C37.4692 13.9955 37.4395 15.1149 37.6558 16.1996C37.8586 17.223 38.2839 18.1893 38.9014 19.0302C40.0122 20.5468 41.6645 21.577 43.5151 21.907C44.2994 22.0329 45.0984 22.0384 45.8844 21.9232C46.5659 21.8171 47.2286 21.6133 47.852 21.318C48.3689 21.0704 48.8552 20.7635 49.3012 20.4034H49.2795L52.1562 21.5677L49.2958 20.3654C48.8505 20.7206 48.365 21.0221 47.8492 21.2638C47.2302 21.5556 46.5719 21.7558 45.8952 21.8581C45.116 21.969 44.3244 21.9608 43.5477 21.8337C41.719 21.4974 40.088 20.4751 38.9883 18.9759C38.3793 18.1404 37.9606 17.1816 37.7616 16.167C37.5489 15.0947 37.5795 13.9882 37.8512 12.9293C37.8827 12.7931 37.9226 12.6589 37.9706 12.5276L38.1063 12.1287C38.1633 12.0011 38.2203 11.8709 38.28 11.7406C38.333 11.6095 38.3956 11.4826 38.4672 11.3606L38.6789 10.9888C38.7468 10.8613 38.839 10.75 38.9177 10.6306C38.9964 10.5112 39.0751 10.3918 39.1701 10.2832L39.4415 9.95211C40.1841 9.11741 41.1142 8.47095 42.1554 8.06593C43.1529 7.67606 44.2242 7.51111 45.2927 7.58286C46.303 7.66229 47.2848 7.95652 48.1722 8.44588C49.7843 9.32207 51.0043 10.7768 51.5863 12.5168C51.6433 12.7149 51.6976 12.9103 51.7546 13.1057C51.8116 13.3011 51.8251 13.4965 51.8631 13.6892C51.9245 14.0633 51.9545 14.4418 51.9527 14.8209C51.9441 15.5042 51.84 16.1829 51.6433 16.8373C51.4752 17.3887 51.2439 17.9187 50.954 18.4169L50.8698 18.5634L50.9893 18.444H50.954C51.7247 20.4306 52.102 21.4239 52.1562 21.5731Z" fill="#263238"/>
<path d="M42.5491 14.9589C42.5496 14.8132 42.5069 14.6706 42.4262 14.5493C42.3456 14.4279 42.2308 14.3332 42.0963 14.2772C41.9618 14.2212 41.8137 14.2064 41.6708 14.2347C41.5279 14.263 41.3966 14.3331 41.2935 14.4361C41.1905 14.5391 41.1204 14.6704 41.0921 14.8134C41.0638 14.9563 41.0786 15.1044 41.1346 15.2389C41.1906 15.3734 41.2853 15.4882 41.4067 15.5688C41.528 15.6494 41.6706 15.6922 41.8163 15.6916C42.0106 15.6916 42.197 15.6144 42.3344 15.477C42.4719 15.3396 42.5491 15.1532 42.5491 14.9589Z" fill="#263238"/>
<path d="M45.4883 14.9589C45.4888 14.8133 45.4461 14.6709 45.3656 14.5495C45.2852 14.4282 45.1705 14.3336 45.0361 14.2775C44.9018 14.2214 44.7538 14.2064 44.611 14.2345C44.4681 14.2626 44.3368 14.3324 44.2337 14.4352C44.1306 14.5379 44.0603 14.669 44.0317 14.8117C44.0031 14.9544 44.0175 15.1025 44.0731 15.237C44.1286 15.3715 44.2229 15.4866 44.3439 15.5675C44.4649 15.6484 44.6072 15.6916 44.7528 15.6916C44.9474 15.6917 45.1341 15.6145 45.2719 15.4772C45.4098 15.3399 45.4876 15.1535 45.4883 14.9589Z" fill="#263238"/>
<path d="M48.4167 15.3309C48.4886 15.2052 48.5216 15.061 48.5116 14.9164C48.5016 14.7719 48.449 14.6337 48.3604 14.519C48.2718 14.4044 48.1513 14.3186 48.014 14.2725C47.8766 14.2264 47.7287 14.222 47.5889 14.2599C47.4491 14.2978 47.3237 14.3762 47.2285 14.4854C47.1332 14.5945 47.0725 14.7295 47.0539 14.8731C47.0353 15.0168 47.0597 15.1627 47.124 15.2925C47.1884 15.4223 47.2897 15.5301 47.4153 15.6023C47.4987 15.6507 47.5909 15.6821 47.6866 15.6947C47.7823 15.7072 47.8795 15.7007 47.9726 15.6755C48.0657 15.6502 48.1529 15.6068 48.2291 15.5477C48.3054 15.4885 48.3691 15.4149 48.4167 15.3309Z" fill="#263238"/>
<path d="M16.7694 29.8471L15.6187 27.7655C16.1891 25.9428 16.0571 23.9727 15.2487 22.2424C14.4404 20.5121 13.014 19.1467 11.2501 18.4145C9.48619 17.6824 7.51222 17.6365 5.71616 18.2858C3.9201 18.9352 2.43186 20.2328 1.54392 21.9237C0.655979 23.6145 0.432565 25.5764 0.917585 27.4236C1.40261 29.2708 2.56099 30.8698 4.16505 31.9063C5.76912 32.9429 7.70288 33.342 9.58625 33.0252C11.4696 32.7084 13.1664 31.6987 14.3431 30.1945L16.7694 29.8471Z" fill="white"/>
<path d="M16.7695 29.8465L16.6175 29.8736L16.1588 29.9469L14.3459 30.2183C14.3391 30.2191 14.3323 30.2173 14.3267 30.2133C14.3212 30.2092 14.3174 30.2033 14.3161 30.1965C14.3148 30.1912 14.3148 30.1856 14.3161 30.1803L14.3622 30.2074C13.3352 31.5368 11.8988 32.4906 10.275 32.9213C9.86778 33.0259 9.45316 33.0994 9.03478 33.1412C8.10488 33.231 7.16637 33.1482 6.26657 32.8969C5.22983 32.6084 4.2647 32.1068 3.43288 31.424C2.60107 30.7413 1.92087 29.8925 1.43579 28.9319C0.902546 27.8726 0.623765 26.7036 0.621612 25.5177C0.611019 24.2752 0.907473 23.0493 1.48464 21.9489L1.7099 21.531L1.98129 21.1375L2.10884 20.9421L2.25811 20.7575L2.5485 20.3857C2.65163 20.269 2.76561 20.1632 2.87146 20.0492C2.9773 19.9352 3.08314 19.8239 3.20527 19.7289C3.43349 19.5254 3.67462 19.3369 3.92717 19.1644C4.90753 18.4857 6.02964 18.0393 7.20831 17.8591C8.27604 17.7083 9.3635 17.7828 10.4007 18.0777C11.4379 18.3727 12.4019 18.8815 13.2305 19.5715C13.9488 20.17 14.5505 20.8959 15.0054 21.7128C15.2168 22.085 15.3983 22.4734 15.5482 22.8744C15.6762 23.2503 15.7813 23.6337 15.863 24.0224C16.1037 25.2714 16.0281 26.5607 15.6432 27.773V27.754L16.4872 29.3172L16.7016 29.7162L16.7695 29.8465C16.7695 29.8465 16.7396 29.8003 16.688 29.7108L16.4628 29.3118C16.262 28.959 15.9716 28.4461 15.597 27.7784C15.5951 27.7751 15.5941 27.7714 15.5941 27.7676C15.5941 27.7638 15.5951 27.76 15.597 27.7567C15.967 26.5522 16.0323 25.2746 15.787 24.0387C15.704 23.6548 15.5989 23.276 15.4722 22.9042C15.3199 22.5096 15.1385 22.1267 14.9294 21.759C14.4735 20.9538 13.8737 20.239 13.1599 19.6502C11.7606 18.5025 9.9985 17.8903 8.18901 17.9231C6.37952 17.956 4.64077 18.6317 3.28397 19.8294C3.16922 19.9296 3.05962 20.0356 2.95559 20.1469C2.85246 20.2554 2.73847 20.3613 2.63806 20.4753L2.35038 20.8335L2.20654 21.0153L2.07899 21.208L1.8076 21.5961L1.60405 22.0141C1.03522 23.0966 0.74338 24.3031 0.754595 25.5259C0.754135 26.6931 1.02545 27.8443 1.54706 28.8884C2.23034 30.2512 3.30771 31.3769 4.63916 32.1194C5.97062 32.8618 7.4946 33.1866 9.01307 33.0516C9.43197 33.0126 9.84743 32.9428 10.256 32.8426C10.6363 32.7442 11.0084 32.6163 11.3688 32.46C12.5254 31.9556 13.5404 31.1746 14.3242 30.1857C14.3265 30.1833 14.3292 30.1814 14.3323 30.1801C14.3353 30.1788 14.3386 30.1782 14.3419 30.1782C14.3452 30.1782 14.3484 30.1788 14.3514 30.1801C14.3545 30.1814 14.3572 30.1833 14.3595 30.1857C14.363 30.1904 14.3649 30.1961 14.3649 30.202C14.3649 30.2078 14.363 30.2136 14.3595 30.2183L14.3296 30.183L16.129 29.9387L16.5985 29.8763L16.7695 29.8465Z" fill="#263238"/>
<path d="M5.09424 25.775L6.03597 24.741L8.02256 26.3422L11.5887 22.5645L12.5521 23.5062L7.97371 28.2555L5.09424 25.775Z" fill="#B7CF35"/>
</svg>
