<svg width="138" height="118" viewBox="0 0 138 118" fill="none" xmlns="http://www.w3.org/2000/svg">
<circle cx="50.4907" cy="43.5" r="43.5" fill="#FAFAFA"/>
<path d="M137.556 107.674H126.03V107.761H137.556V107.674Z" fill="#C3C3C3"/>
<path d="M96.2553 108.621H93.2312V108.708H96.2553V108.621Z" fill="#C3C3C3"/>
<path d="M125.682 104.445H119.004V104.532H125.682V104.445Z" fill="#C3C3C3"/>
<path d="M19.5805 105.029H17.3777V105.116H19.5805V105.029Z" fill="#C3C3C3"/>
<path d="M59.3431 106.498H26.7424V106.585H59.3431V106.498Z" fill="#C3C3C3"/>
<path d="M89.1003 62.912L89.3753 65.8317H95.0477L95.3226 62.9154C97.1836 62.5223 98.9542 61.7833 100.543 60.737L102.825 62.6127L106.834 58.6037L104.959 56.3487C106.007 54.755 106.746 52.9783 107.137 51.1113L110.053 50.8364V45.164L107.137 44.889C106.744 43.0281 106.005 41.2574 104.959 39.669L106.834 37.4036L102.825 33.3807L100.56 35.2564C98.9716 34.21 97.201 33.4711 95.34 33.0779L95.0651 30.1582H89.3927L89.1177 33.0779C87.2507 33.469 85.474 34.208 83.8803 35.2564L81.5975 33.3807L77.5885 37.3896L79.4747 39.6447C78.4283 41.2331 77.6894 43.0037 77.2962 44.8647L74.3765 45.1396V50.812L77.2962 51.0869C77.6844 52.9624 78.4235 54.7477 79.4747 56.3487L77.5989 58.6142L81.5975 62.6127L83.8629 60.737C85.456 61.7856 87.233 62.5236 89.1003 62.912ZM92.2115 55.6527C90.6922 55.6527 89.2072 55.2019 87.9443 54.3574C86.6814 53.513 85.6974 52.3128 85.117 50.9088C84.5365 49.5048 84.3857 47.9602 84.6837 46.4704C84.9816 44.9807 85.7148 43.6128 86.7905 42.54C87.8662 41.4672 89.2361 40.7377 90.7266 40.4439C92.2172 40.15 93.7614 40.3051 95.1638 40.8893C96.5662 41.4735 97.7637 42.4608 98.6047 43.726C99.4458 44.9912 99.8925 46.4775 99.8883 47.9967C99.8828 50.0291 99.0716 51.9764 97.6325 53.4116C96.1934 54.8467 94.2439 55.6527 92.2115 55.6527Z" fill="#F0F0F0"/>
<path d="M58.9914 102.633H65.7426L66.0698 99.1525C68.2928 98.6873 70.4083 97.8078 72.3059 96.5599L75.0029 98.7906L79.774 94.0195L77.5433 91.3225C78.7912 89.4249 79.6707 87.3094 80.1359 85.0864L83.6159 84.7593V78.008L80.1359 77.6809C79.6717 75.4576 78.7921 73.3419 77.5433 71.4448L79.774 68.7478L75.0029 63.9732L72.3059 66.2074C70.4092 64.9578 68.2933 64.0781 66.0698 63.6148L65.7426 60.1348H58.9914L58.6643 63.6148C56.4408 64.0781 54.3249 64.9578 52.4282 66.2074L49.7312 63.9732L44.9566 68.7478L47.1908 71.4448C45.942 73.3419 45.0624 75.4576 44.5982 77.6809L41.1182 78.008V84.7593L44.5982 85.0864C45.0624 87.3086 45.942 89.4232 47.1908 91.319L44.9566 94.0195L49.7312 98.7906L52.4282 96.5599C54.3258 97.8078 56.4413 98.6873 58.6643 99.1525L58.9914 102.633ZM62.367 90.5291C60.5596 90.5291 58.7928 89.9931 57.29 88.989C55.7872 87.9848 54.6159 86.5576 53.9242 84.8878C53.2325 83.2179 53.0515 81.3805 53.4042 79.6078C53.7568 77.8351 54.6271 76.2068 55.9052 74.9287C57.1832 73.6507 58.8115 72.7803 60.5842 72.4277C62.3569 72.0751 64.1944 72.2561 65.8642 72.9477C67.534 73.6394 68.9613 74.8107 69.9654 76.3135C70.9696 77.8164 71.5055 79.5832 71.5055 81.3906C71.5018 83.8119 70.5374 86.1327 68.824 87.8435C67.1106 89.5543 64.7883 90.5152 62.367 90.5152V90.5291Z" fill="#F0F0F0"/>
<path d="M21.9667 94.7565C23.5524 92.8281 23.2746 89.9794 21.3462 88.3937C19.4178 86.808 16.5691 87.0858 14.9834 89.0142C13.3978 90.9426 13.6756 93.7913 15.604 95.377C17.5323 96.9627 20.3811 96.6849 21.9667 94.7565Z" fill="#F0F0F0"/>
<path d="M18.0074 90.7653C17.9204 91.0298 18.1188 91.2282 18.4111 91.4265L18.7278 90.4417C18.3137 90.3756 18.084 90.5217 18.0074 90.7653Z" fill="#C3C3C3"/>
<path d="M18.613 92.3594L18.2998 93.3373C18.7244 93.4069 18.954 93.2746 19.0306 93.0345C19.1072 92.7944 18.9227 92.5577 18.613 92.3594Z" fill="#C3C3C3"/>
<path d="M19.6571 88.2006C18.9303 87.9671 18.1505 87.9544 17.4164 88.1642C16.6823 88.3739 16.0269 88.7967 15.5332 89.379C15.0394 89.9613 14.7295 90.677 14.6425 91.4355C14.5556 92.194 14.6956 92.9612 15.0448 93.6402C15.394 94.3191 15.9367 94.8792 16.6043 95.2496C17.2719 95.62 18.0343 95.7841 18.7952 95.7211C19.5561 95.6581 20.2811 95.3709 20.8787 94.8957C21.4763 94.4205 21.9195 93.7788 22.1523 93.0517C22.4642 92.0775 22.3766 91.0193 21.9087 90.1097C21.4409 89.2001 20.631 88.5134 19.6571 88.2006ZM18.1051 93.9321L17.9067 94.5516L17.4543 94.4054L17.6492 93.7929C17.1661 93.6226 16.7454 93.311 16.4416 92.8986L16.8697 92.4183C17.1137 92.7634 17.4502 93.0324 17.8406 93.1944L18.1886 92.0877C17.6213 91.7397 17.0263 91.3291 17.2733 90.56C17.4543 89.9928 18.0215 89.6343 18.9124 89.8257L19.1143 89.1993L19.5701 89.3455L19.3718 89.9614C19.7635 90.1045 20.113 90.3438 20.3879 90.6574L19.9808 91.1446C19.758 90.8957 19.4853 90.6965 19.1804 90.56L18.8324 91.6771C19.3996 92.0251 20.0051 92.4322 19.7581 93.2013C19.5736 93.779 19.0029 94.1305 18.1051 93.9321Z" fill="#C3C3C3"/>
<path d="M126.232 71.6379C128.605 70.8614 129.899 68.3085 129.123 65.9357C128.346 63.5629 125.793 62.2688 123.42 63.0453C121.048 63.8217 119.753 66.3747 120.53 68.7475C121.306 71.1203 123.859 72.4144 126.232 71.6379Z" fill="#F0F0F0"/>
<path d="M123.671 66.9485C123.813 67.1886 124.095 67.1712 124.436 67.0842L123.904 66.1934C123.598 66.4613 123.552 66.7293 123.671 66.9485Z" fill="#C3C3C3"/>
<path d="M125.282 67.5505L125.807 68.4344C126.155 68.1595 126.194 67.8985 126.065 67.6827C125.936 67.467 125.63 67.4565 125.282 67.5505Z" fill="#C3C3C3"/>
<path d="M122.853 64.0046C122.197 64.3956 121.673 64.9721 121.345 65.6613C121.017 66.3505 120.901 67.1214 121.011 67.8765C121.121 68.6317 121.453 69.3372 121.964 69.9039C122.475 70.4706 123.143 70.873 123.883 71.0603C124.623 71.2476 125.402 71.2113 126.121 70.956C126.84 70.7008 127.467 70.238 127.924 69.6263C128.38 69.0145 128.645 68.2812 128.684 67.519C128.724 66.7569 128.536 66.0001 128.146 65.3444C127.621 64.4652 126.769 63.8303 125.777 63.579C124.784 63.3278 123.733 63.4809 122.853 64.0046ZM126.135 68.9671L126.465 69.5273L126.058 69.7709L125.727 69.2176C125.279 69.4673 124.766 69.5764 124.255 69.5308L124.179 68.894C124.599 68.9389 125.024 68.8641 125.404 68.6782L124.809 67.6795C124.175 67.8743 123.472 68.0483 123.069 67.3523C122.766 66.8443 122.87 66.1796 123.605 65.6402L123.257 65.0764L123.667 64.8328L123.998 65.3861C124.364 65.1876 124.775 65.0847 125.191 65.0869L125.289 65.7133C124.954 65.7157 124.623 65.788 124.318 65.9255L124.92 66.9348C125.557 66.7399 126.263 66.5519 126.677 67.2479C126.98 67.7665 126.869 68.4311 126.135 68.9775V68.9671Z" fill="#C3C3C3"/>
<path d="M67.1382 51.6987C67.6426 51.9662 68.0565 52.3773 68.3274 52.8799C68.5984 53.3825 68.7142 53.9542 68.6604 54.5227C68.6066 55.0911 68.3855 55.6309 68.0251 56.0737C67.6647 56.5166 67.181 56.8427 66.6354 57.0108C66.0897 57.1789 65.5064 57.1816 64.9592 57.0183C64.4121 56.8551 63.9255 56.5334 63.5611 56.0938C63.1967 55.6542 62.9708 55.1164 62.9119 54.5485C62.853 53.9805 62.9637 53.4078 63.2302 52.9028C63.5888 52.2249 64.202 51.7173 64.9348 51.4915C65.6677 51.2657 66.4603 51.3402 67.1382 51.6987Z" fill="#F0F0F0"/>
<path d="M65.0327 54.4262C65.1928 54.5097 65.3389 54.4053 65.4955 54.2453L64.9109 53.9355C64.8239 54.1861 64.89 54.3497 65.0327 54.4262Z" fill="#C3C3C3"/>
<path d="M66.1047 54.2217L66.6859 54.5314C66.7764 54.2704 66.7172 54.1104 66.578 54.0373C66.4388 53.9642 66.2509 54.0547 66.1047 54.2217Z" fill="#C3C3C3"/>
<path d="M63.6059 53.0979C63.3769 53.529 63.281 54.0183 63.3302 54.5039C63.3794 54.9895 63.5715 55.4496 63.8823 55.826C64.1931 56.2024 64.6085 56.4782 65.076 56.6184C65.5436 56.7587 66.0422 56.7571 66.5088 56.6139C66.9755 56.4707 67.3891 56.1923 67.6975 55.814C68.0059 55.4356 68.1951 54.9743 68.2412 54.4883C68.2874 54.0024 68.1883 53.5137 67.9566 53.0841C67.725 52.6545 67.3711 52.3032 66.9397 52.0748C66.3617 51.7697 65.6863 51.706 65.0615 51.8978C64.4367 52.0896 63.9133 52.5211 63.6059 53.0979ZM67.0441 54.7196L67.413 54.9144L67.2703 55.1859L66.9049 54.991C66.7438 55.2757 66.5015 55.5058 66.2089 55.6522L65.9549 55.3286C66.1997 55.213 66.4071 55.0309 66.5534 54.8031L65.8957 54.4551C65.6138 54.7752 65.2902 55.1024 64.8308 54.8588C64.4828 54.6813 64.3332 54.2846 64.5559 53.7452L64.1836 53.5503L64.3262 53.2788L64.6742 53.4737C64.8084 53.2433 64.9988 53.0505 65.2276 52.9134L65.4886 53.2232C65.3067 53.3359 65.1503 53.4852 65.0292 53.6616L65.6939 54.0096C65.9758 53.693 66.2994 53.3554 66.7553 53.5955C67.1068 53.7765 67.2634 54.1767 67.0441 54.7196Z" fill="#C3C3C3"/>
<path d="M109.872 89.0071C109.472 90.2461 108.714 91.3387 107.693 92.147C106.672 92.9552 105.435 93.4428 104.137 93.5482C102.839 93.6536 101.539 93.372 100.401 92.7391C99.2635 92.1061 98.3388 91.1502 97.7439 89.992C97.149 88.8337 96.9107 87.5252 97.059 86.2317C97.2074 84.9381 97.7357 83.7175 98.5773 82.724C99.419 81.7305 100.536 81.0087 101.788 80.6498C103.039 80.2909 104.369 80.3109 105.609 80.7073C106.435 80.9716 107.2 81.3961 107.861 81.9565C108.522 82.5168 109.066 83.2021 109.462 83.973C109.858 84.744 110.098 85.5854 110.169 86.4492C110.239 87.313 110.138 88.1822 109.872 89.0071Z" fill="#F0F0F0"/>
<path d="M102.909 85.3783C102.787 85.7646 103.076 86.0535 103.501 86.3423L103.96 84.9051C103.358 84.8111 103.024 85.0234 102.909 85.3783Z" fill="#C3C3C3"/>
<path d="M103.797 87.6992L103.337 89.126C103.953 89.2269 104.294 89.0321 104.406 88.6875C104.517 88.343 104.235 87.9915 103.797 87.6992Z" fill="#C3C3C3"/>
<path d="M105.314 81.6411C104.255 81.3018 103.118 81.2842 102.049 81.5906C100.98 81.897 100.026 82.5135 99.3068 83.3623C98.588 84.211 98.137 85.2539 98.0109 86.3589C97.8848 87.464 98.0891 88.5817 98.5982 89.5706C99.1073 90.5595 99.8981 91.3753 100.871 91.9147C101.843 92.4542 102.954 92.693 104.063 92.6012C105.171 92.5093 106.227 92.0909 107.098 91.3987C107.969 90.7065 108.615 89.7717 108.954 88.7124C109.18 88.0091 109.265 87.2682 109.204 86.5321C109.143 85.7959 108.938 85.0789 108.6 84.4222C108.262 83.7654 107.797 83.1818 107.234 82.7046C106.67 82.2274 106.017 81.866 105.314 81.6411ZM103.055 89.9931L102.766 90.8979L102.105 90.6856L102.391 89.7878C101.685 89.5427 101.071 89.0888 100.63 88.4862L101.253 87.7902C101.609 88.2933 102.1 88.6853 102.669 88.9212L103.188 87.3065C102.363 86.8019 101.496 86.2034 101.855 85.0828C102.119 84.2615 102.944 83.7326 104.242 84.0144L104.534 83.1027L105.195 83.315L104.91 84.2128C105.48 84.4227 105.989 84.772 106.389 85.229L105.798 85.925C105.473 85.5611 105.076 85.2695 104.632 85.0689L104.106 86.6975C104.934 87.2056 105.818 87.8007 105.46 88.9212C105.195 89.7564 104.364 90.2854 103.055 90.007V89.9931Z" fill="#C3C3C3"/>
<path d="M10.622 66.8522C14.0499 65.633 15.8403 61.8657 14.6211 58.4379C13.4018 55.01 9.63458 53.2196 6.20671 54.4388C2.77884 55.6581 0.988406 59.4253 2.20767 62.8532C3.42693 66.2811 7.19417 68.0715 10.622 66.8522Z" fill="#F0F0F0"/>
<path d="M9.03255 58.9964C8.68455 59.1947 8.68455 59.6019 8.79591 60.103L10.1183 59.3757C9.74595 58.892 9.35967 58.8189 9.03255 58.9964Z" fill="#C3C3C3"/>
<path d="M8.07911 61.2891L6.76367 62.0129C7.14299 62.5105 7.52231 62.601 7.84247 62.4235C8.16263 62.2461 8.19743 61.8041 8.07911 61.2891Z" fill="#C3C3C3"/>
<path d="M13.3547 57.9355C12.8189 56.961 12.0061 56.1672 11.0191 55.6546C10.0322 55.1419 8.91535 54.9334 7.80991 55.0554C6.70446 55.1775 5.66001 55.6245 4.80862 56.3401C3.95723 57.0556 3.33713 58.0076 3.02671 59.0755C2.7163 60.1435 2.72951 61.2795 3.06468 62.34C3.39986 63.4004 4.04194 64.3377 4.90974 65.0333C5.77755 65.7288 6.83211 66.1515 7.9401 66.2477C9.04808 66.344 10.1597 66.1096 11.1345 65.5741C12.4414 64.8552 13.4094 63.6467 13.8257 62.2144C14.242 60.7821 14.0726 59.243 13.3547 57.9355ZM5.95975 62.4595L5.12803 62.9154L4.78003 62.3064L5.60479 61.854C5.26305 61.1897 5.12963 60.4377 5.22198 59.6964L6.15463 59.6164C6.06585 60.2269 6.15402 60.8501 6.40867 61.412L7.89115 60.5977C7.64059 59.6616 7.42135 58.6315 8.45491 58.0643C9.21007 57.6467 10.174 57.8346 10.9222 58.9308L11.7609 58.4715L12.1089 59.0805L11.2667 59.5328C11.5365 60.0782 11.6657 60.6823 11.6426 61.2903L10.7273 61.3947C10.7392 60.9073 10.6503 60.4228 10.4663 59.9713L8.96647 60.7961C9.21703 61.7322 9.45367 62.7727 8.42011 63.34C7.67191 63.7576 6.71491 63.5592 5.95279 62.4595H5.95975Z" fill="#C3C3C3"/>
<path d="M67.9908 117.791C105.256 117.791 135.465 116.027 135.465 113.851C135.465 111.676 105.256 109.912 67.9908 109.912C30.7261 109.912 0.51709 111.676 0.51709 113.851C0.51709 116.027 30.7261 117.791 67.9908 117.791Z" fill="#C3C3C3"/>
<path d="M114.696 6.16211H113.304C109.476 6.16211 106.368 9.91007 106.368 14.535C106.368 19.1599 109.473 22.9079 113.304 22.9079H114.696C118.524 22.9079 121.635 19.1599 121.635 14.535C121.635 9.91007 118.528 6.16211 114.696 6.16211Z" fill="#B7CF35"/>
<path opacity="0.2" d="M114.696 6.16211H113.304C109.476 6.16211 106.368 9.91007 106.368 14.535C106.368 19.1599 109.473 22.9079 113.304 22.9079H114.696C118.524 22.9079 121.635 19.1599 121.635 14.535C121.635 9.91007 118.528 6.16211 114.696 6.16211Z" fill="black"/>
<path d="M113.3 22.9079C117.133 22.9079 120.24 19.1592 120.24 14.535C120.24 9.91078 117.133 6.16211 113.3 6.16211C109.468 6.16211 106.361 9.91078 106.361 14.535C106.361 19.1592 109.468 22.9079 113.3 22.9079Z" fill="#B7CF35"/>
<path opacity="0.3" d="M113.3 21.6826C116.572 21.6826 119.223 18.4823 119.223 14.5346C119.223 10.587 116.572 7.38672 113.3 7.38672C110.029 7.38672 107.377 10.587 107.377 14.5346C107.377 18.4823 110.029 21.6826 113.3 21.6826Z" fill="white"/>
<path d="M113.725 18.3866V19.5942H112.994V18.4145C112.184 18.3773 111.412 18.0613 110.809 17.5201L111.209 16.4309C111.7 16.8899 112.326 17.1769 112.994 17.2487V15.098C112.002 14.8057 110.941 14.402 110.941 12.923C110.941 11.8234 111.602 10.8664 112.994 10.7028V9.48828H113.725V10.6819C114.381 10.7204 115.011 10.9489 115.538 11.3396L115.173 12.4254C114.744 12.1189 114.247 11.9196 113.725 11.8442V14.0192C114.717 14.3116 115.796 14.6874 115.796 16.1838C115.796 17.2696 115.128 18.2161 113.725 18.3866ZM112.994 13.7791V11.8616C112.747 11.8786 112.515 11.9898 112.348 12.1724C112.18 12.355 112.089 12.5951 112.093 12.843C112.093 13.3615 112.476 13.5982 112.994 13.7791ZM114.654 16.2673C114.654 15.7384 114.261 15.4913 113.725 15.3103V17.2139C114.376 17.0956 114.654 16.7302 114.654 16.2673Z" fill="#B7CF35"/>
<path d="M124.262 28.2325H105.227C104.799 28.2325 104.388 28.4026 104.085 28.7054C103.782 29.0082 103.612 29.4189 103.612 29.8472V113.767H125.884V29.8472C125.885 29.6344 125.843 29.4237 125.761 29.2271C125.68 29.0305 125.56 28.852 125.41 28.7019C125.259 28.5518 125.08 28.433 124.883 28.3524C124.686 28.2718 124.475 28.2311 124.262 28.2325Z" fill="#B7CF35"/>
<path opacity="0.1" d="M124.262 28.2325H105.227C104.799 28.2325 104.388 28.4026 104.085 28.7054C103.782 29.0082 103.612 29.4189 103.612 29.8472V113.767H125.884V29.8472C125.885 29.6344 125.843 29.4237 125.761 29.2271C125.68 29.0305 125.56 28.852 125.41 28.7019C125.259 28.5518 125.08 28.433 124.883 28.3524C124.686 28.2718 124.475 28.2311 124.262 28.2325Z" fill="white"/>
<path opacity="0.3" d="M105.227 28.2324H123.232C123.66 28.2324 124.071 28.4025 124.374 28.7054C124.677 29.0082 124.847 29.4189 124.847 29.8471V113.767H103.619V29.8471C103.619 29.4201 103.788 29.0104 104.089 28.7078C104.391 28.4052 104.8 28.2343 105.227 28.2324Z" fill="white"/>
<path d="M92.121 56.0899H73.0715C72.6457 56.0935 72.2385 56.2653 71.9387 56.5677C71.6389 56.8701 71.4707 57.2787 71.4707 57.7046V72.4842H81.3539C81.1032 72.2341 80.9045 71.9368 80.7695 71.6095C80.6345 71.2821 80.5658 70.9312 80.5674 70.5771C80.5603 69.9766 80.7592 69.3918 81.1309 68.92C81.5026 68.4483 82.0247 68.1181 82.6102 67.9845C83.1954 68.1182 83.717 68.4485 84.0881 68.9203C84.4593 69.3921 84.6574 69.9769 84.6495 70.5771C84.6515 70.931 84.5834 71.2817 84.449 71.6091C84.3146 71.9364 84.1166 72.2338 83.8665 72.4842H93.7427V57.7046C93.7432 57.4918 93.7015 57.2811 93.6201 57.0845C93.5387 56.8879 93.4191 56.7094 93.2683 56.5593C93.1176 56.4092 92.9386 56.2904 92.7416 56.2098C92.5447 56.1293 92.3338 56.0885 92.121 56.0899Z" fill="#B7CF35"/>
<path d="M84.8965 88.5195H83.8525C84.1027 88.7698 84.3006 89.0673 84.435 89.3946C84.5694 89.722 84.6376 90.0727 84.6355 90.4266C84.6435 91.0268 84.4453 91.6116 84.0742 92.0834C83.7031 92.5552 83.1815 92.8855 82.5963 93.0192C82.0107 92.8856 81.4886 92.5554 81.117 92.0837C80.7453 91.6119 80.5464 91.0271 80.5535 90.4266C80.5519 90.0725 80.6206 89.7216 80.7556 89.3942C80.8906 89.0669 81.0892 88.7696 81.34 88.5195H71.4707V113.767H93.7427V88.5195H84.8965Z" fill="#B7CF35"/>
<path opacity="0.1" d="M92.121 56.0899H73.0715C72.6457 56.0935 72.2385 56.2653 71.9387 56.5677C71.6389 56.8701 71.4707 57.2787 71.4707 57.7046V72.4842H81.3539C81.1032 72.2341 80.9045 71.9368 80.7695 71.6095C80.6345 71.2821 80.5658 70.9312 80.5674 70.5771C80.5603 69.9766 80.7592 69.3918 81.1309 68.92C81.5026 68.4483 82.0247 68.1181 82.6102 67.9845C83.1954 68.1182 83.717 68.4485 84.0881 68.9203C84.4593 69.3921 84.6574 69.9769 84.6495 70.5771C84.6515 70.931 84.5834 71.2817 84.449 71.6091C84.3146 71.9364 84.1166 72.2338 83.8665 72.4842H93.7427V57.7046C93.7432 57.4918 93.7015 57.2811 93.6201 57.0845C93.5387 56.8879 93.4191 56.7094 93.2683 56.5593C93.1176 56.4092 92.9386 56.2904 92.7416 56.2098C92.5447 56.1293 92.3338 56.0885 92.121 56.0899Z" fill="white"/>
<path opacity="0.1" d="M84.8965 88.5195H83.8525C84.1027 88.7698 84.3006 89.0673 84.435 89.3946C84.5694 89.722 84.6376 90.0727 84.6355 90.4266C84.6435 91.0268 84.4453 91.6116 84.0742 92.0834C83.7031 92.5552 83.1815 92.8855 82.5963 93.0192C82.0107 92.8856 81.4886 92.5554 81.117 92.0837C80.7453 91.6119 80.5464 91.0271 80.5535 90.4266C80.5519 90.0725 80.6206 89.7216 80.7556 89.3942C80.8906 89.0669 81.0892 88.7696 81.34 88.5195H71.4707V113.767H93.7427V88.5195H84.8965Z" fill="white"/>
<path opacity="0.3" d="M83.8525 88.5195C84.1027 88.7698 84.3006 89.0673 84.435 89.3946C84.5694 89.722 84.6376 90.0727 84.6355 90.4266C84.6482 90.7711 84.5913 91.1146 84.4683 91.4367C84.3452 91.7587 84.1584 92.0526 83.9192 92.3009C83.6799 92.5491 83.3931 92.7466 83.0758 92.8814C82.7585 93.0163 82.4173 93.0858 82.0725 93.0858C81.7278 93.0858 81.3865 93.0163 81.0693 92.8814C80.752 92.7466 80.4651 92.5491 80.2259 92.3009C79.9866 92.0526 79.7999 91.7587 79.6768 91.4367C79.5537 91.1146 79.4968 90.7711 79.5095 90.4266C79.5079 90.0725 79.5766 89.7216 79.7116 89.3942C79.8466 89.0669 80.0452 88.7696 80.296 88.5195H71.4707V113.767H92.6987V88.5195H83.8525Z" fill="white"/>
<path opacity="0.3" d="M71.4707 57.7046V72.4841H80.3099C80.0592 72.2341 79.8605 71.9368 79.7255 71.6094C79.5905 71.2821 79.5218 70.9312 79.5234 70.5771C79.5107 70.2326 79.5676 69.889 79.6907 69.567C79.8138 69.2449 80.0005 68.951 80.2398 68.7028C80.479 68.4545 80.7659 68.2571 81.0832 68.1222C81.4005 67.9874 81.7417 67.9179 82.0864 67.9179C82.4312 67.9179 82.7724 67.9874 83.0897 68.1222C83.407 68.2571 83.6938 68.4545 83.9331 68.7028C84.1723 68.951 84.3591 69.2449 84.4822 69.567C84.6053 69.889 84.6622 70.2326 84.6495 70.5771C84.6515 70.9309 84.5834 71.2817 84.449 71.609C84.3146 71.9364 84.1166 72.2338 83.8665 72.4841H92.6987V57.7046C92.6992 57.4927 92.6578 57.2828 92.5771 57.0869C92.4963 56.891 92.3777 56.713 92.228 56.563C92.0783 56.413 91.9006 56.294 91.7049 56.2128C91.5092 56.1316 91.2993 56.0898 91.0875 56.0898H73.0715C72.6457 56.0935 72.2385 56.2653 71.9387 56.5677C71.6389 56.8701 71.4707 57.2787 71.4707 57.7046Z" fill="white"/>
<path d="M44.2641 23.7051H35.418C35.0603 23.7046 34.706 23.7747 34.3755 23.9112C34.0449 24.0478 33.7445 24.2482 33.4914 24.5009C33.2383 24.7537 33.0376 25.0538 32.9006 25.3842C32.7636 25.7146 32.6931 26.0688 32.6931 26.4264V35.3596C32.6931 36.0817 32.9797 36.7742 33.49 37.2851C34.0002 37.796 34.6924 38.0835 35.4145 38.0844H38.9154L39.841 40.5204L40.7632 38.0844H44.2641C44.9862 38.0835 45.6784 37.796 46.1886 37.2851C46.6989 36.7742 46.9855 36.0817 46.9855 35.3596V26.4195C46.9836 25.6989 46.6961 25.0085 46.1859 24.4997C45.6758 23.9908 44.9847 23.7051 44.2641 23.7051Z" fill="#B7CF35"/>
<path opacity="0.4" d="M44.2641 23.7051H35.418C35.0603 23.7046 34.706 23.7747 34.3755 23.9112C34.0449 24.0478 33.7445 24.2482 33.4914 24.5009C33.2383 24.7537 33.0376 25.0538 32.9006 25.3842C32.7636 25.7146 32.6931 26.0688 32.6931 26.4264V35.3596C32.6931 36.0817 32.9797 36.7742 33.49 37.2851C34.0002 37.796 34.6924 38.0835 35.4145 38.0844H38.9154L39.841 40.5204L40.7632 38.0844H44.2641C44.9862 38.0835 45.6784 37.796 46.1886 37.2851C46.6989 36.7742 46.9855 36.0817 46.9855 35.3596V26.4195C46.9836 25.6989 46.6961 25.0085 46.1859 24.4997C45.6758 23.9908 44.9847 23.7051 44.2641 23.7051Z" fill="white"/>
<path d="M39.8851 36.4674C40.6981 36.4615 41.3543 36.0672 41.3508 35.5867C41.3472 35.1062 40.6854 34.7215 39.8724 34.7275C39.0594 34.7335 38.4032 35.1278 38.4068 35.6083C38.4103 36.0887 39.0722 36.4734 39.8851 36.4674Z" fill="#263238"/>
<path opacity="0.4" d="M39.8851 36.4674C40.6981 36.4615 41.3543 36.0672 41.3508 35.5867C41.3472 35.1062 40.6854 34.7215 39.8724 34.7275C39.0594 34.7335 38.4032 35.1278 38.4068 35.6083C38.4103 36.0887 39.0722 36.4734 39.8851 36.4674Z" fill="white"/>
<path d="M41.9776 33.9856C42.0559 33.9093 42.1019 33.8059 42.1064 33.6967C42.1064 33.2269 41.0972 32.8511 39.8618 32.8615C38.6264 32.872 37.6276 33.2583 37.6311 33.7315C37.637 33.8401 37.6844 33.9422 37.7634 34.0169C37.7416 34.0639 37.7297 34.1148 37.7286 34.1665C37.7311 34.2202 37.7444 34.2729 37.7677 34.3213C37.791 34.3697 37.8239 34.413 37.8643 34.4484C37.84 34.4959 37.8269 34.5482 37.826 34.6015C37.8294 34.6554 37.8434 34.7081 37.8673 34.7565C37.8912 34.8049 37.9245 34.848 37.9652 34.8834C37.9376 34.931 37.9232 34.985 37.9234 35.04C37.9271 35.0937 37.9416 35.146 37.9662 35.1939C37.9907 35.2417 38.0247 35.2841 38.0661 35.3184C38.0379 35.3659 38.0223 35.4198 38.0209 35.475C38.0209 35.8683 38.8596 36.171 39.8862 36.171C40.9128 36.171 41.7445 35.823 41.741 35.4472C41.7398 35.3914 41.7229 35.3371 41.6923 35.2906C41.7338 35.2567 41.7678 35.2143 41.7917 35.1663C41.8157 35.1183 41.8293 35.0658 41.8315 35.0122C41.8321 34.9567 41.8164 34.9022 41.7862 34.8556C41.8512 34.8071 41.8971 34.7374 41.9162 34.6586C41.9352 34.5799 41.9262 34.4969 41.8906 34.4241C41.9696 34.3494 42.017 34.2472 42.0229 34.1387C42.0199 34.0848 42.0044 34.0324 41.9776 33.9856Z" fill="#263238"/>
<path d="M43.8013 29.7885C43.7987 29.1194 43.6266 28.4618 43.301 27.8772C42.9755 27.2926 42.5071 26.8 41.9396 26.4455C41.3721 26.0909 40.7241 25.8859 40.0559 25.8496C39.3878 25.8133 38.7213 25.9469 38.1188 26.2379C37.5163 26.5289 36.9973 26.9678 36.6103 27.5137C36.2233 28.0596 35.981 28.6946 35.9059 29.3595C35.8308 30.0244 35.9254 30.6975 36.1809 31.316C36.4363 31.9344 36.8443 32.4781 37.3668 32.8961C37.4506 32.963 37.5169 33.0493 37.5599 33.1475C37.603 33.2457 37.6215 33.3529 37.6139 33.4599C37.6122 33.4703 37.6122 33.4808 37.6139 33.4912C37.6139 33.968 38.637 34.3508 39.8933 34.3403C41.1495 34.3299 42.1622 33.9366 42.1588 33.4564V33.4251C42.1494 33.3181 42.1664 33.2105 42.2083 33.1116C42.2502 33.0127 42.3156 32.9256 42.3989 32.8578C42.8443 32.4811 43.2009 32.0106 43.4434 31.48C43.6858 30.9494 43.808 30.3718 43.8013 29.7885Z" fill="#B7CF35"/>
<path opacity="0.9" d="M43.8013 29.7885C43.7987 29.1194 43.6266 28.4618 43.301 27.8772C42.9755 27.2926 42.5071 26.8 41.9396 26.4455C41.3721 26.0909 40.7241 25.8859 40.0559 25.8496C39.3878 25.8133 38.7213 25.9469 38.1188 26.2379C37.5163 26.5289 36.9973 26.9678 36.6103 27.5137C36.2233 28.0596 35.981 28.6946 35.9059 29.3595C35.8308 30.0244 35.9254 30.6975 36.1809 31.316C36.4363 31.9344 36.8443 32.4781 37.3668 32.8961C37.4506 32.963 37.5169 33.0493 37.5599 33.1475C37.603 33.2457 37.6215 33.3529 37.6139 33.4599C37.6122 33.4703 37.6122 33.4808 37.6139 33.4912C37.6139 33.968 38.637 34.3508 39.8933 34.3403C41.1495 34.3299 42.1622 33.9366 42.1588 33.4564V33.4251C42.1494 33.3181 42.1664 33.2105 42.2083 33.1116C42.2502 33.0127 42.3156 32.9256 42.3989 32.8578C42.8443 32.4811 43.2009 32.0106 43.4434 31.48C43.6858 30.9494 43.808 30.3718 43.8013 29.7885Z" fill="white"/>
<g opacity="0.2">
<path d="M39.0545 33.7927C39.0167 33.7927 38.9804 33.7777 38.9536 33.7509C38.9268 33.7242 38.9118 33.6879 38.9118 33.65C38.9118 32.2859 37.7947 31.2419 37.7843 31.2314C37.7645 31.2117 37.751 31.1866 37.7454 31.1592C37.7397 31.1318 37.7423 31.1034 37.7526 31.0775C37.763 31.0515 37.7808 31.0292 37.8037 31.0133C37.8267 30.9973 37.8538 30.9885 37.8817 30.9878H38.5325L38.7308 30.5146C38.7404 30.4897 38.757 30.4682 38.7787 30.4527C38.8003 30.4373 38.8261 30.4285 38.8527 30.4276C38.8795 30.4253 38.9063 30.431 38.9299 30.444C38.9534 30.457 38.9726 30.4767 38.9849 30.5006L39.3573 31.1723L39.7053 30.4937C39.7188 30.4714 39.7377 30.4527 39.7601 30.4394C39.7826 30.4261 39.8079 30.4184 39.834 30.4171C39.8599 30.419 39.8849 30.4273 39.9068 30.4413C39.9286 30.4553 39.9467 30.4745 39.9593 30.4972L40.3282 31.2558L40.6762 30.4937C40.6881 30.4694 40.7064 30.4489 40.729 30.4342C40.7517 30.4194 40.7779 30.4112 40.8049 30.4102C40.8324 30.4111 40.8591 30.4197 40.8818 30.4351C40.9046 30.4505 40.9226 30.472 40.9337 30.4972L41.139 30.9704H41.7898C41.8206 30.9708 41.8506 30.9812 41.875 31C41.8995 31.0188 41.9172 31.0451 41.9255 31.0748C41.9339 31.1047 41.9323 31.1365 41.921 31.1654C41.9097 31.1943 41.8893 31.2187 41.8628 31.2349C40.9337 31.7848 40.6727 33.6535 40.6692 33.6709C40.6616 33.706 40.641 33.7369 40.6116 33.7575C40.5822 33.7781 40.5462 33.7868 40.5106 33.782C40.475 33.7772 40.4426 33.7591 40.4197 33.7314C40.3969 33.7037 40.3853 33.6685 40.3873 33.6326C40.3873 33.5596 40.61 32.0388 41.3826 31.2593H41.0346C41.0067 31.2602 40.9792 31.2527 40.9557 31.2378C40.9321 31.223 40.9135 31.2013 40.9024 31.1758L40.7841 30.9043L40.4361 31.6525C40.4243 31.6766 40.406 31.6969 40.3832 31.7111C40.3604 31.7252 40.3341 31.7327 40.3073 31.7326C40.2806 31.7319 40.2547 31.7241 40.232 31.71C40.2094 31.696 40.1909 31.6761 40.1785 31.6525L39.7992 30.88L39.4512 31.5446C39.4388 31.5669 39.4206 31.5854 39.3985 31.5983C39.3765 31.6111 39.3514 31.6178 39.3259 31.6177C39.2737 31.6177 39.225 31.5899 39.2007 31.5446L38.8527 30.9008L38.7343 31.1897C38.723 31.2153 38.7045 31.2372 38.681 31.2526C38.6576 31.2681 38.6302 31.2764 38.6021 31.2767H38.1845C38.7786 31.9334 39.1267 32.7759 39.1693 33.6605C39.1693 33.6977 39.1548 33.7335 39.1288 33.7602C39.1028 33.7868 39.0674 33.8022 39.0301 33.8032L39.0545 33.7927Z" fill="black"/>
</g>
</svg>
