<svg width="116" height="128" viewBox="0 0 116 128" fill="none" xmlns="http://www.w3.org/2000/svg">
<circle cx="47.3352" cy="52.3352" r="41.3352" fill="#FAFAFA"/>
<path d="M31.8347 127.771C29.8621 127.932 27.8877 127.483 26.1782 126.485C24.4688 125.488 23.1067 123.99 22.2759 122.193C21.445 120.397 21.1856 118.389 21.5325 116.441C21.8794 114.492 22.816 112.697 24.2158 111.298C25.6156 109.899 27.411 108.963 29.3597 108.617C31.3084 108.27 33.3163 108.531 35.1123 109.362C36.9083 110.194 38.4058 111.557 39.4026 113.266C40.3993 114.976 40.8473 116.951 40.6859 118.923C40.4969 121.207 39.5036 123.35 37.8827 124.97C36.2619 126.59 34.1187 127.583 31.8347 127.771Z" fill="#FAFAFA"/>
<path d="M31.8348 127.771L31.9894 127.742L32.4462 127.677C32.6885 127.642 32.9287 127.592 33.1655 127.53C33.496 127.455 33.8215 127.361 34.1402 127.246C36.195 126.522 37.947 125.129 39.1143 123.289C39.4997 122.69 39.8181 122.049 40.0638 121.38C40.187 121.026 40.2914 120.666 40.3767 120.301C40.4162 120.11 40.463 119.923 40.4954 119.729C40.5277 119.535 40.5457 119.337 40.5709 119.135C40.5962 118.935 40.607 118.733 40.6033 118.531C40.6033 118.33 40.6033 118.125 40.6033 117.916C40.5817 117.506 40.5457 117.085 40.4882 116.665C40.445 116.452 40.4055 116.244 40.3623 116.032C40.3371 115.927 40.3227 115.819 40.294 115.715L40.1933 115.402C40.1285 115.194 40.0602 114.981 39.9918 114.769L39.7221 114.158L39.5854 113.848C39.5351 113.748 39.4739 113.651 39.4164 113.55L39.0567 112.956L38.6467 112.395L38.4417 112.111L38.2043 111.849C37.5743 111.123 36.8369 110.499 36.0176 109.996L35.3774 109.637C35.158 109.525 34.9278 109.435 34.7013 109.331C34.5862 109.284 34.4747 109.227 34.3416 109.184L33.9819 109.072C33.7461 108.988 33.506 108.916 33.2626 108.856C32.2623 108.625 31.2336 108.542 30.2091 108.608C28.2517 108.78 26.3931 109.544 24.8811 110.799C23.3691 112.054 22.2756 113.74 21.7463 115.632C21.5208 116.481 21.4095 117.355 21.4154 118.233C21.4069 118.444 21.4165 118.656 21.4442 118.866L21.4982 119.491C21.5737 119.894 21.642 120.301 21.7463 120.686C22.1453 122.123 22.8688 123.449 23.8611 124.563C24.6834 125.478 25.6689 126.231 26.7672 126.785L27.4865 127.105C27.7167 127.206 27.9541 127.264 28.1734 127.343C28.5767 127.474 28.989 127.575 29.4071 127.645C29.9864 127.747 30.5741 127.794 31.1622 127.785H31.7772H31.6226L31.1622 127.807C30.5714 127.83 29.9799 127.793 29.3963 127.699C28.9734 127.634 28.5561 127.537 28.1483 127.408C27.9253 127.336 27.6843 127.278 27.4505 127.177L26.7312 126.861C25.4918 126.253 24.3944 125.391 23.5107 124.331C22.627 123.27 21.9768 122.036 21.6025 120.707C21.4946 120.315 21.4262 119.905 21.3435 119.495L21.2896 118.862C21.2627 118.649 21.2518 118.433 21.2572 118.218C21.2357 116.807 21.5253 115.409 22.1052 114.122C22.6852 112.835 23.5413 111.692 24.6128 110.773C26.1915 109.401 28.1675 108.569 30.2523 108.4C31.2962 108.33 32.3447 108.416 33.3633 108.655C33.6127 108.716 33.8587 108.789 34.1006 108.874L34.4603 108.989C34.5826 109.033 34.6941 109.09 34.8199 109.14C35.0501 109.245 35.2839 109.338 35.5105 109.453L36.1579 109.813C36.9933 110.328 37.7453 110.967 38.3878 111.708L38.6251 111.975L38.8373 112.262L39.2509 112.834C39.366 113.039 39.4847 113.241 39.6106 113.442C39.6645 113.543 39.7293 113.64 39.7796 113.744L39.9199 114.061C40.0098 114.269 40.0997 114.478 40.1933 114.686C40.2868 114.895 40.3263 115.114 40.3947 115.327L40.4954 115.647C40.5241 115.751 40.5421 115.863 40.5637 115.97L40.6932 116.614C40.7471 117.042 40.7831 117.47 40.8047 117.887C40.8047 118.1 40.8047 118.308 40.7867 118.513C40.7875 118.719 40.7755 118.924 40.7507 119.128C40.722 119.33 40.6968 119.531 40.6716 119.729C40.6464 119.927 40.5889 120.117 40.5493 120.308C40.4603 120.682 40.3522 121.052 40.2256 121.416C39.9707 122.094 39.644 122.742 39.2509 123.351C38.573 124.398 37.7029 125.307 36.6866 126.03C35.9197 126.57 35.079 126.996 34.1905 127.296C33.8668 127.407 33.5365 127.497 33.2015 127.566C32.9646 127.624 32.7244 127.667 32.4822 127.695L32.0254 127.742C31.9631 127.759 31.8992 127.768 31.8348 127.771Z" fill="#263238"/>
<path d="M94.3364 62.1547C94.3218 61.444 94.3482 60.7331 94.4156 60.0255C94.4205 59.3145 94.4709 58.6045 94.5666 57.8999C94.6577 58.6085 94.6698 59.325 94.6026 60.0363C94.5963 60.7503 94.507 61.4613 94.3364 62.1547Z" fill="#263238"/>
<path d="M92.5166 70.4628C92.6529 69.7659 92.8307 69.0778 93.0489 68.402C93.2102 67.7098 93.4119 67.0277 93.6531 66.3591C93.5944 67.0708 93.4532 67.7733 93.2323 68.4523C93.0693 69.1471 92.8293 69.8214 92.5166 70.4628Z" fill="#263238"/>
<path d="M88.9414 78.1882C89.2239 77.5368 89.5471 76.9038 89.9089 76.2928C90.2144 75.6519 90.5579 75.0298 90.9375 74.4298C90.4545 75.7713 89.7824 77.0369 88.9414 78.1882Z" fill="#263238"/>
<path d="M83.791 84.9427C84.2076 84.3676 84.6592 83.8186 85.1433 83.2991C85.5778 82.7364 86.0475 82.2018 86.5496 81.6986C86.1953 82.3186 85.7705 82.8955 85.2836 83.4178C84.8459 83.9814 84.3451 84.493 83.791 84.9427Z" fill="#263238"/>
<path d="M77.314 90.4527C77.8412 89.9773 78.3987 89.5363 78.9828 89.1328C79.5301 88.678 80.1042 88.2565 80.7019 87.8704C80.223 88.4002 79.6848 88.8733 79.0979 89.2802C78.5479 89.7351 77.9497 90.1283 77.314 90.4527Z" fill="#263238"/>
<path d="M69.8003 94.4413C70.4194 94.0925 71.0596 93.7825 71.7173 93.5133C72.3488 93.186 72.9998 92.8978 73.6666 92.6501C73.0835 93.0626 72.4562 93.4088 71.7964 93.6824C71.162 94.0102 70.4923 94.2648 69.8003 94.4413Z" fill="#263238"/>
<path d="M61.6074 96.7107C62.2874 96.5057 62.9792 96.3424 63.6791 96.2216C64.3658 96.0365 65.0638 95.896 65.7687 95.8008C64.4324 96.302 63.0309 96.6084 61.6074 96.7107Z" fill="#263238"/>
<path d="M53.123 97.1675C53.8304 97.0939 54.5428 97.0819 55.2522 97.1316C55.9617 97.0819 56.6741 97.0939 57.3814 97.1675C55.9691 97.3689 54.5354 97.3689 53.123 97.1675Z" fill="#263238"/>
<path d="M44.7178 95.8116C45.4223 95.9086 46.1202 96.0492 46.8074 96.2325C47.5069 96.3548 48.1987 96.5181 48.879 96.7216C48.1659 96.7005 47.4576 96.598 46.7678 96.4159C46.064 96.2918 45.3764 96.0891 44.7178 95.8116Z" fill="#263238"/>
<path d="M36.8198 92.6501C37.4853 92.8982 38.1351 93.1864 38.7656 93.5133C39.4236 93.7816 40.0639 94.0916 40.6826 94.4412C39.317 94.026 38.0166 93.4206 36.8198 92.6429V92.6501Z" fill="#263238"/>
<path d="M29.7886 87.8739C30.3846 88.2596 30.9574 88.6799 31.5042 89.1327C32.0883 89.5363 32.6457 89.9772 33.173 90.4527C32.5318 90.1313 31.9286 89.7392 31.3747 89.2838C30.7944 88.8753 30.2623 88.4023 29.7886 87.8739Z" fill="#263238"/>
<path d="M23.937 81.6986C24.437 82.2038 24.9066 82.7383 25.3433 83.2991C25.8264 83.8195 26.278 84.3684 26.6956 84.9427C26.1411 84.4949 25.6402 83.9844 25.203 83.4214C24.7165 82.8974 24.2918 82.3194 23.937 81.6986Z" fill="#263238"/>
<path d="M19.5454 74.4155C19.9282 75.0155 20.2729 75.639 20.5776 76.2822C20.9381 76.8975 21.2612 77.5341 21.5451 78.1884C21.1009 77.6335 20.7208 77.0303 20.4122 76.3901C20.0504 75.7663 19.7596 75.104 19.5454 74.4155Z" fill="#263238"/>
<path d="M16.8335 66.3591C17.0744 67.0275 17.275 67.7096 17.4341 68.402C17.6544 69.0774 17.8334 69.7657 17.97 70.4628C17.6543 69.8223 17.4129 69.1478 17.2507 68.4523C17.0307 67.7732 16.8907 67.0707 16.8335 66.3591Z" fill="#263238"/>
<path d="M15.9201 57.9036C16.0139 58.6083 16.0643 59.3182 16.0712 60.0291C16.1407 60.7366 16.1659 61.4477 16.1467 62.1583C15.9813 61.464 15.8933 60.7536 15.8842 60.0399C15.8148 59.3288 15.8269 58.612 15.9201 57.9036Z" fill="#263238"/>
<path d="M16.8298 49.448C16.772 50.1562 16.6699 50.8601 16.5241 51.5556C16.4427 52.2618 16.3166 52.9622 16.1464 53.6524C16.1303 52.9388 16.1955 52.2257 16.3407 51.5268C16.4253 50.8177 16.5893 50.1204 16.8298 49.448Z" fill="#263238"/>
<path d="M19.5455 41.3879C19.3358 42.0673 19.0835 42.7328 18.7902 43.3805C18.557 44.0511 18.2832 44.7069 17.9702 45.3442C18.1059 44.6427 18.3232 43.9595 18.6176 43.3085C18.8534 42.6353 19.1647 41.991 19.5455 41.3879Z" fill="#263238"/>
<path d="M23.9367 34.1049C23.5816 34.7203 23.1913 35.3147 22.7678 35.8852C22.3958 36.4897 21.9874 37.071 21.5449 37.6259C21.8332 36.9718 22.1952 36.3528 22.6239 35.7809C22.9972 35.1747 23.4376 34.6125 23.9367 34.1049Z" fill="#263238"/>
<path d="M29.785 27.9331C29.3079 28.4604 28.7999 28.9588 28.2636 29.4257C27.7713 29.9386 27.2463 30.4192 26.6919 30.8643C27.1114 30.2885 27.594 29.7613 28.1305 29.2926C28.6279 28.7774 29.1831 28.3212 29.785 27.9331Z" fill="#263238"/>
<path d="M36.8199 23.1604C36.2432 23.5729 35.6427 23.9512 35.0216 24.2933C34.4295 24.6888 33.8146 25.0491 33.1802 25.3723C33.7119 24.896 34.2973 24.4832 34.9245 24.1423C35.5169 23.7439 36.1528 23.4145 36.8199 23.1604Z" fill="#263238"/>
<path d="M44.7144 20.0062C44.0612 20.2848 43.3923 20.525 42.7111 20.7255C42.0489 20.9798 41.3714 21.1925 40.6826 21.3621C41.3054 21.0154 41.9653 20.7404 42.65 20.5421C43.3152 20.2847 44.0079 20.1048 44.7144 20.0062Z" fill="#263238"/>
<path d="M53.1233 18.636C52.4244 18.7673 51.7182 18.8562 51.0085 18.9021C50.3069 19.0086 49.5995 19.0723 48.8901 19.0927C50.2727 18.7422 51.6978 18.5885 53.1233 18.636Z" fill="#263238"/>
<path d="M61.604 19.0927C60.8934 19.0701 60.1848 19.0052 59.482 18.8985C58.7723 18.8544 58.0661 18.7667 57.3672 18.6359C58.08 18.5801 58.7968 18.6067 59.5036 18.7151C60.216 18.7587 60.9209 18.8855 61.604 19.0927Z" fill="#263238"/>
<path d="M69.8005 21.3622C69.1117 21.1884 68.4342 20.9722 67.772 20.7148C67.0889 20.5165 66.4187 20.2763 65.7651 19.9955C66.4712 20.0962 67.1637 20.276 67.8296 20.5314C68.5163 20.7316 69.1777 21.0104 69.8005 21.3622Z" fill="#263238"/>
<path d="M77.3102 25.3508C76.6747 25.0294 76.0597 24.669 75.4687 24.2718C74.847 23.9321 74.2464 23.5549 73.6704 23.1425C74.3395 23.3913 74.9778 23.7159 75.573 24.1099C76.1983 24.4547 76.7812 24.8711 77.3102 25.3508Z" fill="#263238"/>
<path d="M83.7877 30.8572C83.2351 30.41 82.7102 29.9296 82.216 29.4186C81.6799 28.954 81.173 28.4567 80.6982 27.9296C81.2966 28.3167 81.8492 28.7704 82.3455 29.2819C82.8841 29.7509 83.3679 30.2794 83.7877 30.8572Z" fill="#263238"/>
<path d="M88.9417 37.6223C88.4959 37.069 88.0862 36.4876 87.7153 35.8815C87.2881 35.3074 86.8977 34.7067 86.5464 34.0833C87.0501 34.5895 87.4942 35.1519 87.8699 35.7593C88.2963 36.3379 88.6559 36.9628 88.9417 37.6223Z" fill="#263238"/>
<path d="M92.5164 45.3406C92.2025 44.702 91.9275 44.0451 91.6928 43.3733C91.403 42.7254 91.1508 42.0613 90.9375 41.3844C91.3203 41.9869 91.6328 42.6313 91.869 43.305C92.16 43.9573 92.3772 44.6401 92.5164 45.3406Z" fill="#263238"/>
<path d="M94.3363 53.6451C94.1743 52.954 94.0542 52.2538 93.9766 51.5483C93.8306 50.8528 93.7285 50.1489 93.6709 49.4407C93.9116 50.1132 94.0769 50.8105 94.1636 51.5195C94.303 52.219 94.3609 52.9323 94.3363 53.6451Z" fill="#263238"/>
<path d="M34.5973 109.119C34.5505 109.097 35.9856 105.839 37.8055 101.839C39.6253 97.84 41.1359 94.6139 41.1827 94.6462C41.2294 94.6786 39.7944 97.9263 37.9745 101.926C36.1546 105.925 34.6441 109.14 34.5973 109.119Z" fill="#263238"/>
<path d="M31.9463 118.297C32.4025 118.097 32.7897 117.767 33.0596 117.348C33.3295 116.929 33.4701 116.44 33.4641 115.942C33.4833 115.617 33.4362 115.292 33.3255 114.986C33.2149 114.681 33.0432 114.401 32.8207 114.164C32.5983 113.927 32.3299 113.737 32.0318 113.608C31.7338 113.478 31.4124 113.41 31.0873 113.408C30.7622 113.407 30.4403 113.472 30.1411 113.599C29.8419 113.726 29.5717 113.913 29.3472 114.148C29.1226 114.383 28.9483 114.661 28.8349 114.966C28.7216 115.271 28.6715 115.595 28.6878 115.92C28.6787 116.422 28.8183 116.916 29.089 117.339C29.3597 117.762 29.7494 118.095 30.2092 118.297C26.5334 118.851 26.6989 122.847 26.6989 122.847L35.3954 122.887C35.3954 122.887 35.5932 118.848 31.9463 118.297Z" fill="#B7CF35"/>
<path d="M50.315 53.1287C51.8201 52.4675 53.0974 51.3781 53.9878 49.9962C54.8781 48.6142 55.3422 47.0008 55.3221 45.357C55.3856 44.2864 55.2301 43.2141 54.8652 42.2056C54.5003 41.1971 53.9336 40.2736 53.1998 39.4915C52.4659 38.7094 51.5804 38.0851 50.5972 37.6567C49.6139 37.2283 48.5537 37.0049 47.4813 37.0001C46.4088 36.9952 45.3466 37.2091 44.3595 37.6285C43.3725 38.048 42.4813 38.6643 41.7405 39.4397C40.9996 40.2152 40.4246 41.1336 40.0506 42.1387C39.6766 43.1439 39.5114 44.2147 39.5652 45.2858C39.5351 46.9424 39.9956 48.5708 40.8886 49.9663C41.7816 51.3618 43.0674 52.4621 44.5841 53.1287C32.4579 54.956 33.0037 68.1382 33.0037 68.1382L61.6938 68.2687C61.6938 68.2687 62.3463 54.9441 50.315 53.1287Z" fill="#B7CF35"/>
<path d="M103.77 103.526C101.972 104.355 99.9621 104.611 98.0132 104.261C96.0643 103.91 94.27 102.97 92.8725 101.567C91.4751 100.164 90.542 98.3662 90.1992 96.416C89.8565 94.4658 90.1206 92.4573 90.9559 90.662C91.7913 88.8667 93.1576 87.3711 94.8702 86.3772C96.5828 85.3833 98.5593 84.9391 100.532 85.1045C102.506 85.2699 104.381 86.0371 105.904 87.3023C107.427 88.5675 108.525 90.2697 109.05 92.1791C109.655 94.3894 109.457 96.7427 108.49 98.8204C107.523 100.898 105.851 102.566 103.77 103.526Z" fill="#FAFAFA"/>
<path d="M103.77 103.526C103.811 103.493 103.856 103.466 103.903 103.444L104.31 103.228C104.529 103.109 104.741 102.98 104.946 102.839C105.232 102.655 105.506 102.453 105.766 102.235C106.482 101.643 107.111 100.954 107.637 100.189C108.727 98.5666 109.313 96.6581 109.32 94.7038C109.315 94.3238 109.288 93.9443 109.241 93.5673C109.212 93.3767 109.194 93.1824 109.158 92.9882C109.122 92.794 109.068 92.6034 109.021 92.4092C108.978 92.2123 108.92 92.0188 108.849 91.8301L108.651 91.2475C108.489 90.8662 108.309 90.485 108.111 90.1074L107.777 89.5571C107.719 89.4672 107.665 89.3737 107.604 89.2837L107.403 89.0248C107.27 88.8485 107.133 88.6651 106.996 88.4997L106.532 88.0177L106.299 87.7732C106.216 87.694 106.126 87.6257 106.04 87.5502L105.515 87.1114L104.939 86.723L104.644 86.5287L104.335 86.3633C103.492 85.9004 102.584 85.5692 101.641 85.3814L100.922 85.2556C100.677 85.2268 100.425 85.2196 100.181 85.198L99.8212 85.1764H99.4616C99.2098 85.1944 98.9581 85.1764 98.7063 85.2232C97.6885 85.347 96.6946 85.6209 95.7571 86.036C93.9666 86.8606 92.4714 88.2134 91.4723 89.9127C90.4732 91.612 90.018 93.5763 90.168 95.5418C90.247 96.4161 90.4418 97.2759 90.747 98.099C90.8136 98.3003 90.8954 98.4963 90.9916 98.6852L91.2541 99.2499C91.4699 99.6095 91.6678 99.9692 91.8979 100.289C92.766 101.502 93.902 102.499 95.2176 103.203C96.3028 103.783 97.4874 104.155 98.7099 104.299L99.4904 104.353C99.7421 104.353 99.9867 104.353 100.21 104.353C100.634 104.338 101.057 104.292 101.476 104.217C102.061 104.108 102.634 103.943 103.188 103.724L103.619 103.566C103.667 103.544 103.718 103.528 103.77 103.519C103.77 103.519 103.724 103.544 103.626 103.584L103.202 103.76C102.655 103.986 102.086 104.156 101.504 104.267C101.087 104.356 100.664 104.415 100.238 104.443C100.001 104.443 99.7565 104.479 99.5191 104.465L98.7243 104.415C97.3524 104.269 96.0266 103.836 94.8336 103.143C93.6406 102.45 92.6071 101.513 91.8008 100.394C91.5635 100.063 91.362 99.6995 91.1427 99.3398L90.8729 98.7643C90.7743 98.5731 90.6902 98.3747 90.6212 98.1709C90.3077 97.3344 90.1069 96.46 90.0241 95.5706C89.8653 93.5738 90.3203 91.5762 91.3281 89.8453C92.336 88.1143 93.8487 86.7325 95.6636 85.885C96.6217 85.465 97.6357 85.1863 98.6739 85.0577C98.9257 85.0182 99.1846 85.029 99.44 85.011H99.8212C99.9507 85.011 100.077 85.011 100.202 85.0326C100.454 85.0505 100.71 85.0577 100.958 85.0901L101.699 85.2196C102.658 85.4164 103.583 85.7584 104.439 86.2338L104.756 86.4029L105.051 86.6007L105.637 86.9999L106.173 87.4495C106.259 87.525 106.353 87.5969 106.435 87.6761L106.673 87.9242L107.144 88.417L107.558 88.9528L107.759 89.2154C107.824 89.3053 107.878 89.4024 107.935 89.4959L108.277 90.057C108.475 90.4418 108.654 90.8303 108.816 91.2151C108.885 91.4165 108.949 91.6143 109.018 91.8085C109.088 92.001 109.146 92.1981 109.19 92.3984C109.237 92.5998 109.28 92.794 109.323 92.9918C109.367 93.1896 109.381 93.3838 109.406 93.5781C109.454 93.9599 109.479 94.3442 109.482 94.729C109.476 95.4553 109.391 96.1788 109.23 96.8869C108.735 99.0221 107.529 100.926 105.81 102.285C105.545 102.502 105.266 102.7 104.975 102.879C104.767 103.012 104.551 103.132 104.328 103.238L103.914 103.44L103.77 103.526Z" fill="#263238"/>
<path d="M100.627 94.5061C101.082 94.3045 101.468 93.974 101.738 93.5554C102.008 93.1367 102.149 92.6483 102.144 92.1503C102.164 91.8258 102.117 91.5008 102.007 91.195C101.896 90.8892 101.725 90.6092 101.502 90.372C101.28 90.1347 101.012 89.9453 100.714 89.8153C100.416 89.6852 100.095 89.6172 99.7696 89.6155C99.4445 89.6138 99.1225 89.6784 98.8233 89.8053C98.524 89.9322 98.2537 90.1188 98.029 90.3537C97.8042 90.5885 97.6297 90.8668 97.5161 91.1713C97.4025 91.4759 97.3522 91.8005 97.3682 92.1251C97.3574 92.6281 97.4963 93.1229 97.7671 93.5468C98.038 93.9707 98.4286 94.3045 98.8895 94.5061C95.203 95.06 95.3793 99.0486 95.3793 99.0486L104.072 99.0881C104.072 99.0881 104.27 95.0564 100.627 94.5061Z" fill="#B7CF35"/>
<path d="M92.0813 88.8378C92.049 88.8774 90.4808 87.6905 88.5782 86.1836C86.6757 84.6766 85.1615 83.4214 85.1939 83.3818C85.2262 83.3423 86.7943 84.5291 88.6933 86.0361C90.5923 87.5431 92.1137 88.7983 92.0813 88.8378Z" fill="#263238"/>
<path d="M10.8702 26.7247C8.89766 26.8853 6.9234 26.4366 5.214 25.4394C3.50461 24.4422 2.14245 22.9443 1.31149 21.1482C0.480528 19.3521 0.2208 17.3442 0.567388 15.3958C0.913977 13.4474 1.85018 11.6522 3.24956 10.2529C4.64894 8.85348 6.44407 7.91727 8.39251 7.57068C10.3409 7.2241 12.3488 7.48382 14.1449 8.31478C15.941 9.14575 17.4389 10.5079 18.4361 12.2173C19.4333 13.9267 19.882 15.901 19.7214 17.8735C19.5325 20.1578 18.5393 22.301 16.9185 23.9218C15.2977 25.5426 13.1545 26.5358 10.8702 26.7247Z" fill="#FAFAFA"/>
<path d="M10.8703 26.7246C10.9208 26.7101 10.9726 26.7004 11.025 26.6959L11.4818 26.6275C11.7245 26.5939 11.9647 26.5447 12.2011 26.4801C12.532 26.4074 12.8576 26.3125 13.1758 26.196C14.5333 25.7152 15.768 24.9408 16.7919 23.9281C17.8158 22.9154 18.6037 21.6893 19.0993 20.3371C19.2246 19.9839 19.3291 19.6236 19.4122 19.2581C19.4518 19.0711 19.5022 18.8985 19.5309 18.6863L19.6065 18.0964C19.6311 17.896 19.6431 17.6942 19.6424 17.4922V16.8772C19.6208 16.4636 19.5849 16.0428 19.5309 15.622L19.4015 14.989C19.3799 14.8847 19.3619 14.7768 19.3331 14.6725L19.2324 14.3596C19.1677 14.151 19.0993 13.9424 19.031 13.7302L18.7828 13.09L18.6462 12.7807C18.5958 12.68 18.5347 12.5829 18.4807 12.4857L18.1211 11.8887C17.9844 11.7053 17.8513 11.5291 17.7147 11.3276L17.5061 11.0435L17.2687 10.7846C16.6388 10.058 15.9013 9.43209 15.0819 8.92872L14.4418 8.56906C14.2224 8.45757 13.9922 8.36406 13.7656 8.26335C13.6505 8.213 13.539 8.15905 13.4059 8.11589L13.0463 8.0008C12.8053 7.93247 12.5715 7.83536 12.327 7.78501C11.3277 7.55524 10.3002 7.47284 9.27705 7.54044C7.2597 7.71972 5.34977 8.52873 3.81743 9.85304C2.38939 11.0976 1.35461 12.731 0.839456 14.5538C0.613963 15.4032 0.502689 16.2789 0.508571 17.1577C0.501989 17.3691 0.511603 17.5808 0.537339 17.7907L0.591291 18.4129C0.670416 18.8193 0.735155 19.2222 0.839456 19.607C1.23831 21.045 1.9632 22.3717 2.95785 23.4841C3.77942 24.3998 4.76506 25.1537 5.86389 25.7068L6.58321 26.0305C6.81339 26.1312 7.05076 26.1888 7.27016 26.2643C7.67356 26.3954 8.08582 26.4976 8.50379 26.57C9.08335 26.67 9.67083 26.717 10.2589 26.7103H10.7193C10.7707 26.7047 10.8225 26.7047 10.8739 26.7103C10.8225 26.7151 10.7707 26.7151 10.7193 26.7103L10.2589 26.7318C9.23908 26.7725 8.21979 26.6387 7.24498 26.3362C7.02199 26.2607 6.78102 26.2031 6.54724 26.106L5.82792 25.7859C4.58811 25.1798 3.49032 24.3187 2.60648 23.2588C1.72264 22.1989 1.07269 20.9643 0.699189 19.6358C0.591292 19.2437 0.522954 18.8337 0.443829 18.4201L0.386282 17.7871C0.35927 17.5736 0.348451 17.3584 0.353914 17.1433C0.346334 16.2502 0.457605 15.36 0.6848 14.4962C1.2202 12.5637 2.33428 10.8413 3.87735 9.56059C5.42042 8.27985 7.31852 7.50209 9.31662 7.33184C10.3592 7.26307 11.4062 7.3479 12.4241 7.5836C12.6794 7.63395 12.9168 7.73106 13.1434 7.80299L13.503 7.91808C13.6217 7.96483 13.7368 8.01878 13.8627 8.06914C14.0929 8.17344 14.3303 8.27055 14.5532 8.38204L15.1934 8.77407C16.0278 9.2873 16.7786 9.9253 17.4197 10.6659L17.6607 10.932L17.8693 11.2197L18.2829 11.7952C18.4016 11.9966 18.5167 12.2016 18.6426 12.3994C18.7001 12.5037 18.7613 12.6008 18.8116 12.7015L18.9519 13.018L19.2252 13.6439C19.2936 13.8596 19.3619 14.0754 19.4266 14.2876L19.5273 14.6041C19.5561 14.712 19.5741 14.8199 19.5957 14.9278L19.7251 15.5716C19.7791 15.9996 19.8151 16.4276 19.8366 16.8484C19.8366 17.057 19.8366 17.2656 19.8366 17.4742C19.8391 17.6786 19.8271 17.8829 19.8007 18.0856C19.7755 18.287 19.7467 18.4885 19.7216 18.6863C19.6964 18.8841 19.6388 19.0747 19.5993 19.2689C19.5109 19.6436 19.4029 20.0134 19.2756 20.3767C19.0222 21.0553 18.6953 21.7041 18.3009 22.3116C17.6209 23.3649 16.7441 24.2772 15.7185 24.9983C14.9445 25.5399 14.0966 25.9675 13.2009 26.2679C12.8778 26.3794 12.5473 26.4683 12.2119 26.534C11.9699 26.5964 11.7233 26.6397 11.4746 26.6635L11.0178 26.7139C10.969 26.7216 10.9197 26.7252 10.8703 26.7246Z" fill="#263238"/>
<path d="M10.9854 17.2225C11.4405 17.0205 11.8267 16.69 12.0963 16.2714C12.366 15.8529 12.5074 15.3646 12.5032 14.8667C12.5266 14.5395 12.4826 14.2109 12.3738 13.9014C12.2651 13.5919 12.0939 13.3081 11.8709 13.0674C11.6479 12.8268 11.3778 12.6346 11.0775 12.5026C10.7771 12.3707 10.4529 12.3018 10.1248 12.3003C9.79674 12.2988 9.47188 12.3648 9.17034 12.494C8.86881 12.6232 8.59704 12.813 8.37188 13.0516C8.14672 13.2902 7.97298 13.5726 7.86142 13.8811C7.74986 14.1896 7.70286 14.5177 7.72333 14.8451C7.71422 15.3473 7.85379 15.8409 8.12449 16.2639C8.39519 16.6869 8.78493 17.0204 9.24469 17.2225C5.56898 17.7764 5.73802 21.7722 5.73802 21.7722L14.431 21.8117C14.431 21.8117 14.6396 17.7656 10.9854 17.2225Z" fill="#B7CF35"/>
<path d="M25.8394 31.7923C25.8035 31.8318 23.6815 30.1486 21.1279 28.0338C18.5743 25.9191 16.5027 24.1711 16.535 24.1315C16.5674 24.092 18.675 25.7752 21.2466 27.89C23.8181 30.0048 25.8718 31.7563 25.8394 31.7923Z" fill="#263238"/>
<path d="M73.6489 14.8882C72.2257 15.005 70.801 14.682 69.5673 13.963C68.3336 13.244 67.3504 12.1637 66.7504 10.8679C66.1504 9.5721 65.9627 8.12338 66.2126 6.71748C66.4624 5.31158 67.1379 4.01627 68.1476 3.00657C69.1573 1.99687 70.4526 1.32146 71.8585 1.07159C73.2644 0.821726 74.7131 1.00946 76.0089 1.60941C77.3046 2.20937 78.385 3.19263 79.104 4.42634C79.823 5.66005 80.1459 7.08473 80.0292 8.50788C79.8927 10.1544 79.1767 11.6992 78.0084 12.8674C76.8401 14.0357 75.2954 14.7517 73.6489 14.8882Z" fill="#FAFAFA"/>
<path d="M73.6491 14.8883C73.6852 14.8764 73.7227 14.8691 73.7606 14.8667L74.0879 14.8128C74.2651 14.7882 74.4405 14.7521 74.613 14.7049C74.8502 14.6609 75.0845 14.602 75.3143 14.5286C76.2895 14.1786 77.176 13.6191 77.9117 12.8896C78.6474 12.1601 79.2144 11.2783 79.5727 10.3062C79.7556 9.78022 79.8763 9.23463 79.9324 8.68057C80.0583 7.45537 79.8508 6.2189 79.3317 5.10196C79.1948 4.80504 79.0399 4.51678 78.8678 4.23878L78.5729 3.83596L78.4254 3.63095L78.2564 3.44393C77.802 2.92282 77.2708 2.47408 76.681 2.11319C76.0709 1.73941 75.4076 1.46048 74.7137 1.28597C73.9952 1.11891 73.2558 1.05952 72.5198 1.10974C71.2408 1.21361 70.0163 1.67271 68.9842 2.43529C67.9522 3.19786 67.1537 4.23358 66.6789 5.42567C66.204 6.61776 66.0715 7.91881 66.2965 9.18213C66.5215 10.4455 67.0949 11.6208 67.9521 12.5757C68.5396 13.2303 69.2432 13.7705 70.0274 14.169L70.5417 14.4027C70.7107 14.4747 70.8797 14.5142 71.038 14.5718C71.3282 14.667 71.6252 14.7403 71.9264 14.7912C72.343 14.8655 72.7656 14.9016 73.1888 14.8991H73.5196H73.6347H73.5232H73.1888C72.453 14.9295 71.7175 14.8358 71.0128 14.6221C70.851 14.5682 70.6783 14.5286 70.5057 14.4567L69.9806 14.2265C69.1662 13.8317 68.434 13.2862 67.8226 12.6188C67.086 11.8074 66.548 10.836 66.2509 9.78112C65.9777 8.78109 65.9277 7.73318 66.1047 6.71169C66.2817 5.69021 66.6812 4.72016 67.275 3.87035C67.8688 3.02053 68.6422 2.31176 69.5406 1.79427C70.4389 1.27679 71.44 0.963278 72.473 0.875963C73.2285 0.826356 73.9871 0.888159 74.7245 1.05939C75.451 1.24354 76.1441 1.5409 76.7781 1.94055C77.3816 2.31301 77.9249 2.77506 78.3894 3.31085L78.5621 3.50507L78.7167 3.71367L79.0152 4.13088C79.1909 4.41609 79.3495 4.71153 79.49 5.01564C80.2562 6.69325 80.3336 8.60447 79.7058 10.3386C79.3437 11.3287 78.7632 12.2244 78.0072 12.9591C77.2513 13.6939 76.3395 14.2488 75.3395 14.5826C75.1041 14.6624 74.8638 14.7273 74.6202 14.7768C74.4448 14.8175 74.267 14.8476 74.0879 14.8667L73.757 14.8991C73.7207 14.9009 73.6843 14.8973 73.6491 14.8883Z" fill="#263238"/>
<path d="M73.7279 8.05482C74.0538 7.9081 74.3296 7.66916 74.5214 7.3675C74.7131 7.06583 74.8124 6.71463 74.8068 6.35723C74.8232 6.12174 74.7912 5.88539 74.7126 5.66278C74.6341 5.44017 74.5107 5.23604 74.3501 5.063C74.1896 4.88995 73.9952 4.75168 73.7791 4.65671C73.563 4.56175 73.3297 4.51212 73.0937 4.51089C72.8576 4.50966 72.6238 4.55685 72.4067 4.64955C72.1896 4.74225 71.9938 4.87849 71.8315 5.04985C71.6691 5.22121 71.5436 5.42404 71.4627 5.64582C71.3819 5.8676 71.3473 6.1036 71.3613 6.33925C71.3552 6.70372 71.4581 7.0617 71.6567 7.36734C71.8554 7.67298 72.1407 7.91236 72.4762 8.05482C69.8256 8.45405 69.9586 11.3349 69.9586 11.3349L76.2275 11.3673C76.2275 11.3673 76.357 8.46484 73.7279 8.05482Z" fill="#B7CF35"/>
<path d="M71.25 14.676C70.9016 15.7201 70.4934 16.7432 70.0272 17.7403C69.617 18.7625 69.1487 19.7604 68.6245 20.7291C68.9775 19.6857 69.3881 18.6627 69.8545 17.6648C70.265 16.6439 70.7309 15.6462 71.25 14.676Z" fill="#263238"/>
<path d="M107.403 55.0443C105.576 55.1935 103.746 54.7783 102.163 53.8548C100.579 52.9312 99.3165 51.5438 98.5465 49.8799C97.7764 48.216 97.5356 46.3558 97.8566 44.5507C98.1775 42.7455 99.0448 41.0824 100.341 39.786C101.638 38.4895 103.301 37.6222 105.106 37.3013C106.911 36.9803 108.771 37.2211 110.435 37.9912C112.099 38.7612 113.486 40.0234 114.41 41.6073C115.334 43.1911 115.749 45.0203 115.6 46.8476C115.425 48.963 114.505 50.9477 113.004 52.4486C111.503 53.9495 109.518 54.8693 107.403 55.0443Z" fill="#FAFAFA"/>
<path d="M107.403 55.0442C107.449 55.031 107.496 55.0214 107.543 55.0154L107.964 54.9543C108.193 54.9237 108.42 54.8781 108.644 54.8176C108.95 54.7488 109.251 54.6611 109.546 54.5551C110.357 54.2662 111.123 53.8655 111.823 53.3646C112.852 52.634 113.712 51.6913 114.346 50.5999C114.979 49.5085 115.371 48.294 115.495 47.0382C115.659 45.4611 115.393 43.8692 114.726 42.431L114.596 42.1432C114.549 42.0497 114.495 41.9598 114.441 41.8699L114.125 41.3196L113.747 40.7837L113.557 40.5212L113.337 40.2802C112.754 39.6067 112.07 39.028 111.309 38.5646C110.531 38.0766 109.681 37.7125 108.791 37.4856C107.866 37.2713 106.915 37.1938 105.968 37.2555C104.156 37.4138 102.435 38.1211 101.035 39.283C99.6357 40.4449 98.6237 42.0061 98.1345 43.7581C97.9248 44.5428 97.8208 45.352 97.8252 46.1642C97.8185 46.3601 97.8281 46.5562 97.854 46.7505C97.854 46.9447 97.8863 47.1353 97.9007 47.3259C97.9762 47.6856 98.0338 48.0776 98.1309 48.4337C98.4989 49.7674 99.1696 50.9982 100.091 52.0303C100.852 52.8779 101.764 53.5756 102.781 54.0875L103.443 54.386C103.659 54.4795 103.878 54.5335 104.08 54.6054C104.454 54.7257 104.836 54.8195 105.223 54.886C105.76 54.9808 106.304 55.0253 106.849 55.019H107.273H107.421H107.273L106.849 55.037C106.302 55.0608 105.753 55.0283 105.213 54.9399C104.821 54.8788 104.434 54.7899 104.054 54.6738C103.849 54.6018 103.626 54.5515 103.411 54.458L102.735 54.1666C101.699 53.6553 100.77 52.9537 99.9939 52.0986C99.0508 51.0583 98.3614 49.8138 97.9798 48.4624C97.8827 48.1028 97.818 47.7215 97.7425 47.3367C97.7245 47.1461 97.7065 46.9483 97.6885 46.7505C97.6663 46.5523 97.6567 46.3528 97.6597 46.1534C97.6545 45.326 97.7573 44.5014 97.9654 43.7006C98.4613 41.9112 99.4921 40.3161 100.92 39.1288C102.347 37.9416 104.104 37.2189 105.953 37.0576C106.919 36.9946 107.888 37.0734 108.831 37.2914C109.743 37.5172 110.615 37.881 111.417 38.3704C112.191 38.8463 112.887 39.4382 113.481 40.1255L113.704 40.3737L113.898 40.6399L114.283 41.1721C114.391 41.3592 114.499 41.5498 114.607 41.7332C114.657 41.8267 114.715 41.9202 114.762 42.0138L114.891 42.3087C115.569 43.7756 115.835 45.3993 115.661 47.0058C115.475 48.7143 114.803 50.3338 113.725 51.6724C112.647 53.011 111.208 54.0126 109.579 54.5587C109.281 54.6633 108.975 54.7463 108.665 54.8068C108.441 54.8622 108.212 54.9019 107.982 54.9255L107.558 54.9723L107.403 55.0442Z" fill="#263238"/>
<path d="M107.504 46.2685C107.927 46.0829 108.285 45.7769 108.535 45.3886C108.785 45.0004 108.916 44.5472 108.91 44.0854C108.929 43.7845 108.885 43.4829 108.783 43.1991C108.681 42.9154 108.523 42.6555 108.317 42.4353C108.111 42.2151 107.862 42.0393 107.585 41.9186C107.309 41.7979 107.011 41.7349 106.709 41.7334C106.408 41.732 106.109 41.7921 105.832 41.91C105.554 42.028 105.304 42.2014 105.096 42.4196C104.888 42.6377 104.726 42.8961 104.621 43.1788C104.517 43.4616 104.471 43.7627 104.486 44.0638C104.477 44.5295 104.606 44.9875 104.857 45.38C105.108 45.7724 105.469 46.0816 105.896 46.2685C102.49 46.7829 102.659 50.4837 102.659 50.4837L110.712 50.5197C110.712 50.5197 110.881 46.7793 107.504 46.2685Z" fill="#B7CF35"/>
<path d="M97.9869 48.3149C97.2873 48.5926 96.5654 48.8103 95.829 48.9659C95.1131 49.1829 94.3805 49.3404 93.6387 49.4371C94.3383 49.1594 95.0602 48.9417 95.7966 48.7861C96.5126 48.5692 97.2451 48.4116 97.9869 48.3149Z" fill="#263238"/>
</svg>
