<svg width="157" height="146" viewBox="0 0 157 146" fill="none" xmlns="http://www.w3.org/2000/svg">
<path d="M17.8228 116.084C17.7594 116.083 17.6974 116.066 17.6428 116.034L9.47444 111.318C9.42003 111.286 9.37479 111.241 9.34321 111.187C9.31163 111.133 9.29482 111.071 9.29444 111.008V101.576C9.29418 101.513 9.3107 101.45 9.34231 101.395C9.37392 101.34 9.4195 101.295 9.47444 101.263L17.6428 96.5469C17.6976 96.5153 17.7596 96.4987 17.8228 96.4987C17.886 96.4987 17.9481 96.5153 18.0028 96.5469L26.1712 101.263C26.2262 101.295 26.2718 101.34 26.3034 101.395C26.335 101.45 26.3515 101.513 26.3512 101.576V111.008C26.3509 111.071 26.334 111.133 26.3025 111.187C26.2709 111.241 26.2256 111.286 26.1712 111.318L18.0028 116.034C17.9483 116.066 17.8862 116.083 17.8228 116.084ZM10 110.799L17.8084 115.306L25.6168 110.799V101.781L17.8228 97.2741L10 101.781V110.799Z" fill="#C3C3C3"/>
<path d="M34.1634 116.084C34.1 116.083 34.0379 116.066 33.9834 116.034L25.8114 111.318C25.7569 111.286 25.7117 111.241 25.6801 111.187C25.6485 111.133 25.6317 111.071 25.6314 111.008V101.576C25.6311 101.513 25.6476 101.45 25.6792 101.395C25.7108 101.34 25.7564 101.295 25.8114 101.263L33.9834 96.5469C34.0381 96.5153 34.1002 96.4987 34.1634 96.4987C34.2265 96.4987 34.2886 96.5153 34.3434 96.5469L42.5118 101.263C42.5667 101.295 42.6123 101.34 42.6439 101.395C42.6755 101.45 42.692 101.513 42.6918 101.576V111.008C42.6914 111.071 42.6746 111.133 42.643 111.187C42.6114 111.241 42.5662 111.286 42.5118 111.318L34.3434 116.034C34.2888 116.066 34.2267 116.083 34.1634 116.084ZM26.3514 110.799L34.1634 115.306L41.9718 110.799V101.781L34.1634 97.2741L26.3514 101.781V110.799Z" fill="#C3C3C3"/>
<path d="M34.1632 97.2164C34.0677 97.2164 33.9762 97.1785 33.9087 97.111C33.8412 97.0435 33.8032 96.9519 33.8032 96.8564V91.28C33.8032 91.1846 33.8412 91.093 33.9087 91.0255C33.9762 90.958 34.0677 90.92 34.1632 90.92C34.2587 90.92 34.3503 90.958 34.4178 91.0255C34.4853 91.093 34.5232 91.1846 34.5232 91.28V96.8744C34.5186 96.9668 34.4786 97.0538 34.4116 97.1174C34.3446 97.1811 34.2557 97.2166 34.1632 97.2164Z" fill="#C3C3C3"/>
<path d="M42.3315 101.936C42.2513 101.936 42.1731 101.91 42.1096 101.861C42.0461 101.812 42.0008 101.743 41.9809 101.665C41.9611 101.587 41.9678 101.505 42 101.431C42.0322 101.358 42.0881 101.297 42.1587 101.259L46.9107 98.6564C46.9939 98.6111 47.0916 98.6005 47.1826 98.6268C47.2735 98.6531 47.3505 98.7142 47.3968 98.7968C47.4197 98.8381 47.4343 98.8836 47.4396 98.9306C47.445 98.9776 47.441 99.0252 47.428 99.0707C47.415 99.1161 47.3931 99.1586 47.3636 99.1956C47.3342 99.2326 47.2977 99.2634 47.2564 99.2864L42.5043 101.889C42.4516 101.919 42.3922 101.935 42.3315 101.936Z" fill="#C3C3C3"/>
<path d="M11.1413 110.31C11.0458 110.31 10.9542 110.272 10.8867 110.204C10.8192 110.137 10.7812 110.045 10.7812 109.95V102.75C10.7812 102.654 10.8192 102.563 10.8867 102.495C10.9542 102.428 11.0458 102.39 11.1413 102.39C11.2367 102.39 11.3283 102.428 11.3958 102.495C11.4633 102.563 11.5013 102.654 11.5013 102.75V109.95C11.5013 110.045 11.4633 110.137 11.3958 110.204C11.3283 110.272 11.2367 110.31 11.1413 110.31Z" fill="#C3C3C3"/>
<path d="M28.0001 110.31C27.9047 110.31 27.8131 110.272 27.7456 110.204C27.6781 110.137 27.6401 110.045 27.6401 109.95V102.75C27.6401 102.654 27.6781 102.563 27.7456 102.495C27.8131 102.428 27.9047 102.39 28.0001 102.39C28.0956 102.39 28.1872 102.428 28.2547 102.495C28.3222 102.563 28.3601 102.654 28.3601 102.75V109.95C28.3601 110.045 28.3222 110.137 28.2547 110.204C28.1872 110.272 28.0956 110.31 28.0001 110.31Z" fill="#C3C3C3"/>
<path d="M24.3278 102.721C24.2647 102.721 24.2027 102.705 24.1478 102.674L17.9198 99.0524C17.8414 99.0025 17.7854 98.9244 17.7633 98.8342C17.7412 98.744 17.7548 98.6488 17.8013 98.5684C17.8477 98.488 17.9235 98.4287 18.0126 98.4028C18.1018 98.3769 18.1975 98.3865 18.2798 98.4296L24.5042 102.051C24.5452 102.075 24.581 102.107 24.6097 102.144C24.6384 102.182 24.6593 102.225 24.6714 102.271C24.6834 102.317 24.6863 102.364 24.6799 102.411C24.6734 102.458 24.6578 102.503 24.6338 102.544C24.6023 102.598 24.5575 102.642 24.5039 102.673C24.4503 102.704 24.3897 102.72 24.3278 102.721Z" fill="#C3C3C3"/>
<path d="M40.5566 102.721C40.4936 102.721 40.4315 102.705 40.3766 102.674L34.1522 99.0524C34.0739 99.0025 34.0178 98.9244 33.9957 98.8342C33.9736 98.744 33.9872 98.6488 34.0337 98.5684C34.0801 98.488 34.1559 98.4287 34.245 98.4028C34.3342 98.3769 34.4299 98.3865 34.5122 98.4296L40.7366 102.051C40.7776 102.075 40.8134 102.107 40.8421 102.144C40.8708 102.182 40.8918 102.225 40.9038 102.271C40.9158 102.317 40.9187 102.364 40.9123 102.411C40.9058 102.458 40.8902 102.503 40.8662 102.544C40.8344 102.598 40.7891 102.643 40.7348 102.674C40.6805 102.704 40.6191 102.721 40.5566 102.721Z" fill="#C3C3C3"/>
<path d="M89.1065 33.32C89.0431 33.3193 88.981 33.3019 88.9265 33.2696L80.7581 28.5536C80.7037 28.5222 80.6585 28.4771 80.6269 28.4227C80.5953 28.3684 80.5785 28.3068 80.5781 28.244V18.8084C80.5779 18.7449 80.5944 18.6826 80.626 18.6276C80.6576 18.5726 80.7032 18.5269 80.7581 18.4952L88.9265 13.7792C88.9812 13.7476 89.0433 13.731 89.1065 13.731C89.1697 13.731 89.2318 13.7476 89.2865 13.7792L97.4549 18.4952C97.5099 18.5269 97.5554 18.5726 97.587 18.6276C97.6187 18.6826 97.6352 18.7449 97.6349 18.8084V28.2404C97.6345 28.3032 97.6177 28.3648 97.5861 28.4191C97.5546 28.4735 97.5093 28.5186 97.4549 28.55L89.2865 33.266C89.2324 33.2996 89.1702 33.3182 89.1065 33.32ZM81.2981 28.0352L89.1065 32.5424L96.9149 28.0352V19.0352L89.1065 14.5064L81.2981 19.0136V28.0352Z" fill="#C3C3C3"/>
<path d="M97.2749 19.1685C97.1946 19.1689 97.1165 19.1424 97.053 19.0933C96.9894 19.0442 96.9441 18.9753 96.9243 18.8975C96.9044 18.8197 96.9111 18.7375 96.9433 18.664C96.9756 18.5905 97.0315 18.5298 97.1021 18.4917L101.854 15.8889C101.938 15.8411 102.037 15.8285 102.13 15.8538C102.222 15.8792 102.301 15.9403 102.349 16.0239C102.397 16.1074 102.409 16.2065 102.384 16.2993C102.359 16.3922 102.298 16.4711 102.214 16.5189L97.4621 19.1217C97.4056 19.1551 97.3405 19.1714 97.2749 19.1685Z" fill="#C3C3C3"/>
<path d="M82.756 27.56C82.6605 27.56 82.569 27.5221 82.5014 27.4546C82.4339 27.3871 82.396 27.2955 82.396 27.2V20C82.396 19.9045 82.4339 19.813 82.5014 19.7455C82.569 19.6779 82.6605 19.64 82.756 19.64C82.8515 19.64 82.943 19.6779 83.0106 19.7455C83.0781 19.813 83.116 19.9045 83.116 20V27.2C83.116 27.2955 83.0781 27.3871 83.0106 27.4546C82.943 27.5221 82.8515 27.56 82.756 27.56Z" fill="#C3C3C3"/>
<path d="M95.6799 19.9532C95.6156 19.9543 95.5522 19.9381 95.4963 19.9064L89.2791 16.2848C89.236 16.2623 89.198 16.2313 89.1673 16.1938C89.1365 16.1562 89.1137 16.1128 89.1002 16.0661C89.0867 16.0195 89.0827 15.9706 89.0886 15.9224C89.0944 15.8742 89.11 15.8277 89.1343 15.7857C89.1586 15.7436 89.1911 15.707 89.2299 15.6778C89.2688 15.6487 89.3131 15.6277 89.3603 15.6162C89.4074 15.6046 89.4565 15.6027 89.5044 15.6106C89.5523 15.6185 89.5981 15.636 89.6391 15.662L95.8635 19.28C95.9044 19.3038 95.9403 19.3355 95.969 19.3732C95.9976 19.4109 96.0186 19.4539 96.0307 19.4997C96.0427 19.5455 96.0456 19.5933 96.0391 19.6402C96.0327 19.6872 96.017 19.7324 95.9931 19.7732C95.9613 19.8282 95.9157 19.8737 95.8607 19.9054C95.8057 19.937 95.7433 19.9535 95.6799 19.9532Z" fill="#C3C3C3"/>
<path d="M89.4592 31.5201C89.3795 31.5206 89.3018 31.4947 89.2384 31.4464C89.1751 31.3981 89.1295 31.3301 89.1089 31.2531C89.0883 31.176 89.0939 31.0944 89.1247 31.0209C89.1555 30.9474 89.2098 30.8862 89.2792 30.8469L95.5 27.2253C95.5411 27.2015 95.5865 27.186 95.6336 27.1798C95.6806 27.1736 95.7285 27.1768 95.7743 27.1892C95.8202 27.2016 95.8631 27.2229 95.9007 27.252C95.9382 27.281 95.9697 27.3172 95.9932 27.3585C96.0404 27.4407 96.0533 27.5382 96.0291 27.6299C96.0048 27.7216 95.9453 27.8 95.8636 27.8481L89.6392 31.4841C89.5833 31.5114 89.5213 31.5238 89.4592 31.5201Z" fill="#C3C3C3"/>
<circle cx="43.5" cy="43.5" r="43.5" fill="#FAFAFA"/>
<path d="M117.64 105.043C117.464 103.848 117.224 102.663 116.92 101.493C117.836 101.283 118.735 101.005 119.609 100.662C119.8 100.58 119.951 100.427 120.029 100.234C120.107 100.042 120.105 99.8266 120.023 99.6357C119.942 99.4447 119.789 99.2938 119.596 99.2162C119.404 99.1385 119.188 99.1405 118.997 99.2216C118.193 99.5376 117.365 99.7904 116.521 99.9777C116.215 98.8977 115.84 97.7384 115.372 96.518C113.065 90.5024 109.673 86.2976 105.559 84.3608C101.815 82.5968 97.5271 83.0504 93.2899 83.7488C93.0991 82.226 92.9695 80.6961 92.8363 79.2129C92.5051 75.3788 92.2027 71.9228 91.0903 69.4928C90.7004 68.5774 90.0967 67.7688 89.3299 67.1348C88.6175 66.568 87.8238 66.1117 86.9755 65.7812C86.9263 65.7589 86.8758 65.7397 86.8243 65.7236H86.7919C83.9623 64.6688 80.6899 64.8992 77.4535 65.2376C77.4787 65.1656 77.5075 65.0972 77.5327 65.0252C80.0959 58.3796 82.7419 51.5036 77.1547 46.028C74.7247 43.6448 71.5783 42.428 67.5355 42.302C64.9257 42.278 62.32 42.5108 59.7559 42.9968C61.5559 36.11 63.2694 29.0108 56.9442 22.5812C52.6926 18.2612 44.6466 17.8076 33.0294 21.242C32.2734 21.4652 31.521 21.6992 30.7866 21.9404C30.8226 21.3752 30.8622 20.8136 30.9018 20.2556C31.431 12.7208 31.8918 6.21562 28.0218 3.71362C27.9365 3.65001 27.8389 3.60461 27.7353 3.58023C27.6317 3.55585 27.5241 3.55302 27.4193 3.5719C27.3145 3.59078 27.2148 3.63098 27.1262 3.69001C27.0375 3.74903 26.962 3.82562 26.9042 3.91504C26.8464 4.00445 26.8076 4.10478 26.7901 4.20981C26.7727 4.31484 26.777 4.42234 26.8028 4.52563C26.8286 4.62893 26.8754 4.72582 26.9402 4.81031C27.0049 4.8948 27.0864 4.96509 27.1794 5.01682C30.261 7.01842 29.811 13.394 29.3394 20.1368C29.2854 20.9036 29.2314 21.6848 29.181 22.466C25.0365 23.9109 20.9859 25.6122 17.0526 27.56C16.9619 27.6073 16.8813 27.672 16.8155 27.7504C16.7498 27.8288 16.7001 27.9194 16.6693 28.017C16.6386 28.1146 16.6273 28.2174 16.6363 28.3193C16.6452 28.4213 16.6742 28.5205 16.7214 28.6112C16.7687 28.702 16.8334 28.7826 16.9118 28.8483C16.9902 28.9141 17.0808 28.9638 17.1784 28.9945C17.2761 29.0253 17.3788 29.0365 17.4807 29.0276C17.5827 29.0186 17.6819 28.9897 17.7726 28.9424C21.444 27.1277 25.2198 25.5325 29.0802 24.1652C28.6446 32.24 29.0262 40.4408 35.4558 44.174H35.4846C41.8314 47.8244 49.3194 46.4456 56.5626 45.1136L57.6138 44.9192C56.0982 50.9132 55.0938 57.0188 59.8855 62.6024C64.2055 67.6424 69.8539 67.5308 75.0811 67.0196C73.0759 72.4988 71.7223 78.0032 75.5743 82.6796C76.4889 83.8152 77.6481 84.7295 78.9655 85.3545C82.7167 87.122 87.3283 86.3264 91.8283 85.5524L91.9471 85.5308C92.7247 90.6752 94.3087 95.5713 98.5999 98.4045C101.966 100.633 105.872 101.911 109.904 102.105H109.925H110.077C111.031 102.149 111.986 102.136 112.939 102.066C113.817 102.001 114.634 101.896 115.365 101.77C115.656 102.903 115.89 104.049 116.063 105.205C116.08 105.334 116.129 105.457 116.206 105.562C116.283 105.667 116.385 105.751 116.503 105.806C116.637 105.871 116.787 105.895 116.935 105.874C117.036 105.866 117.134 105.838 117.224 105.792C117.314 105.746 117.394 105.682 117.46 105.605C117.525 105.528 117.575 105.438 117.606 105.342C117.637 105.245 117.649 105.144 117.64 105.043ZM30.6786 23.6216C36.4134 21.6992 43.0698 20.1116 48.4518 20.6156L31.6578 36.92C30.369 33.1112 30.405 28.3304 30.6786 23.6216ZM35.805 42.5576C34.2753 41.5432 33.0576 40.1236 32.2878 38.4572L50.385 20.9036C52.545 21.3536 54.4207 22.232 55.8354 23.672C56.0875 23.9276 56.3251 24.1868 56.5555 24.4424L35.805 42.5576ZM43.3902 44.912C41.2636 44.7838 39.18 44.2562 37.2486 43.3568L57.5202 25.6664C58.4982 27.0434 59.1887 28.6032 59.5506 30.2528C59.4018 30.2766 59.2631 30.3428 59.1511 30.4436L43.6026 44.6168C43.509 44.6966 43.4361 44.7979 43.3902 44.912ZM56.3142 43.6124C52.6962 44.2784 49.017 44.9552 45.4962 44.9804L59.799 31.9484C60.1194 35.498 59.1475 39.1952 58.1467 43.0148L58.0746 43.292L56.3142 43.6124ZM58.0783 55.028C57.6211 51.7088 58.395 48.2348 59.3238 44.6456C63.8274 43.868 68.0899 43.382 71.6863 44.5232L58.0783 55.028ZM60.555 60.9464C59.5802 59.6879 58.8577 58.2528 58.4275 56.72C58.4584 56.7042 58.4874 56.6849 58.5138 56.6624L73.2739 45.2684L73.3603 45.2C74.3636 45.7017 75.2819 46.3576 76.0819 47.144C76.4297 47.4807 76.7533 47.8416 77.0503 48.224L60.555 60.9464ZM65.0911 63.8264C64.9873 63.8997 64.9034 63.9976 64.8468 64.1114C64.7903 64.2251 64.7629 64.3511 64.7671 64.478C63.5634 63.8966 62.4763 63.0999 61.5595 62.1272L77.8783 49.5272C78.592 50.9108 78.9425 52.4531 78.8971 54.0092L65.0911 63.8264ZM66.0955 65.0144L78.7171 56.0432C78.2995 58.7216 77.2051 61.5584 76.0891 64.4672C75.9631 64.784 75.8443 65.1044 75.7291 65.4212C72.4315 65.7668 69.1051 66.0224 66.0955 65.018V65.0144ZM74.7607 76.88C74.4295 73.7876 75.5095 70.4 76.8307 66.8792C79.8079 66.5624 82.6663 66.2672 85.1395 66.854L74.7607 76.88ZM76.8019 81.7292C76.0485 80.8276 75.4798 79.7866 75.1279 78.6656C75.1651 78.6399 75.2 78.611 75.2323 78.5792L86.7955 67.4192C87.3594 67.6757 87.89 67.9997 88.3759 68.384C88.8222 68.7562 89.1894 69.214 89.4559 69.7304L77.7955 82.748C77.4375 82.4317 77.1053 82.0874 76.8019 81.7184V81.7292ZM90.7411 74.6768L84.4771 84.9044C82.4971 84.9044 80.6647 84.5912 79.0771 83.6696L90.1291 71.318C90.4423 72.3895 90.6722 73.4835 90.8167 74.5904C90.7881 74.612 90.7627 74.6375 90.7411 74.666V74.6768ZM91.5943 84.0584C89.7943 84.368 88.0339 84.674 86.3491 84.818L91.0939 77.0708C91.1695 77.8232 91.2379 78.5936 91.3027 79.3676C91.4395 80.8941 91.5727 82.4636 91.7671 84.026L91.5943 84.0584ZM93.5095 85.3076C95.3888 84.9645 97.2915 84.7647 99.2011 84.71L97.5523 95.4921C95.1619 92.8821 94.0999 89.1813 93.5203 85.2969L93.5095 85.3076ZM99.4891 97.1445C99.2839 97.0113 99.0859 96.8672 98.8951 96.7196C98.9336 96.6441 98.9592 96.5625 98.9707 96.4785L100.771 84.7569C101.662 84.8216 102.545 84.976 103.406 85.2177L102.661 98.8761C101.555 98.3874 100.494 97.8045 99.4891 97.1337V97.1445ZM104.111 99.4557C104.16 99.359 104.188 99.2538 104.194 99.1461L104.914 85.7936C105.943 86.2826 106.901 86.906 107.765 87.6477C107.756 87.7097 107.756 87.7728 107.765 87.8348L109.187 100.546C107.456 100.393 105.751 100.023 104.111 99.4448V99.4557ZM112.802 100.572C112.114 100.618 111.434 100.636 110.764 100.626L109.504 89.3684C112.345 92.6409 114.037 96.9896 114.994 100.309C114.325 100.41 113.587 100.503 112.802 100.561V100.572Z" fill="#C3C3C3"/>
<path d="M7.96973 130.794L26.4773 130.704L44.9849 130.675L82.0001 130.614L119.015 130.675L137.523 130.704L156.031 130.794L137.523 130.88L119.015 130.912L82.0001 130.974L44.9849 130.912L26.4773 130.88L7.96973 130.794Z" fill="#263238"/>
<path d="M81.9998 145.989C115.853 145.989 143.297 143.422 143.297 140.254C143.297 137.087 115.853 134.52 81.9998 134.52C48.1463 134.52 20.7026 137.087 20.7026 140.254C20.7026 143.422 48.1463 145.989 81.9998 145.989Z" fill="#C3C3C3"/>
<path d="M88.0947 116.192H86.6763V143.862H88.0947V116.192Z" fill="#263238"/>
<path d="M118.324 141.921H88.0947V143.858H118.324V141.921Z" fill="#263238"/>
<path d="M98.4267 114.356L98.3223 137.518C98.3189 138.243 98.0278 138.937 97.513 139.447C96.9983 139.957 96.3019 140.242 95.5772 140.238C94.8526 140.235 94.1589 139.944 93.6488 139.429C93.1388 138.914 92.8541 138.218 92.8575 137.493L92.9619 114.331L98.4267 114.356Z" fill="#C3C3C3"/>
<path d="M98.0775 121.056L98.0055 137.5C98.0041 137.818 97.9402 138.132 97.8175 138.424C97.6948 138.717 97.5157 138.982 97.2904 139.205C97.0651 139.429 96.798 139.605 96.5044 139.726C96.2108 139.846 95.8964 139.907 95.5791 139.905C95.2619 139.904 94.9481 139.84 94.6556 139.717C94.363 139.595 94.0975 139.415 93.8742 139.19C93.6509 138.965 93.4742 138.698 93.3541 138.404C93.234 138.11 93.1729 137.796 93.1743 137.479L93.2463 121.034L98.0775 121.056Z" fill="#C7C7C7"/>
<path d="M99.2906 112.318L92.1123 112.285L92.096 115.885L99.2743 115.918L99.2906 112.318Z" fill="#B7CF35"/>
<path d="M106.84 114.356L106.736 137.518C106.732 138.243 106.441 138.937 105.927 139.447C105.412 139.957 104.716 140.242 103.991 140.238C103.266 140.235 102.572 139.944 102.062 139.429C101.552 138.914 101.268 138.218 101.271 137.493L101.375 114.331L106.84 114.356Z" fill="#C3C3C3"/>
<path d="M106.498 121.056L106.426 137.5C106.423 138.141 106.166 138.754 105.711 139.205C105.256 139.656 104.64 139.908 104 139.905C103.359 139.902 102.746 139.645 102.295 139.19C101.844 138.735 101.592 138.12 101.595 137.479L101.67 121.034L106.498 121.056Z" fill="#37474F"/>
<path d="M107.711 112.32L100.533 112.288L100.516 115.888L107.695 115.92L107.711 112.32Z" fill="#455A64"/>
<path d="M118.32 126.524V129.112H88.0947V126.524H93.0015V127.392C93.0015 127.82 94.2111 128.162 95.6943 128.162C97.1775 128.162 98.3871 127.82 98.3871 127.392V126.524H101.44V127.392C101.44 127.82 102.642 128.162 104.129 128.162C105.616 128.162 106.818 127.82 106.818 127.392V126.524H109.86V127.392C109.86 127.82 111.063 128.162 112.55 128.162C114.036 128.162 115.242 127.82 115.242 127.392V126.524H118.32Z" fill="#455A64"/>
<path d="M118.324 129.112H88.0947V130.156H118.324V129.112Z" fill="#263238"/>
<path d="M119.739 116.192H118.32V143.862H119.739V116.192Z" fill="#263238"/>
<path d="M62.2934 140.485H35.8442C35.8442 140.485 39.3686 128.792 41.1038 124.702C41.3774 124.935 41.6756 125.136 41.993 125.304C42.2454 125.438 42.5108 125.547 42.785 125.628C42.9547 125.683 43.1279 125.726 43.3034 125.757H43.361L43.5338 125.779C45.0242 125.901 47.1878 124.771 49.2938 124C50.1927 123.633 51.1418 123.404 52.109 123.32C53.9594 123.241 55.9358 124.18 57.0806 124.839C58.787 128.9 62.2934 140.485 62.2934 140.485Z" fill="#B7CF35"/>
<path d="M49.2796 124.008C47.0764 124.818 44.794 126.031 43.3036 125.757C42.4901 125.606 41.7311 125.242 41.104 124.702C40.9744 123.982 43.2028 123.075 45.9964 123.32C47.1075 123.461 48.2054 123.691 49.2796 124.008Z" fill="#B7CF35"/>
<g opacity="0.2">
<path d="M49.2796 124.008C47.0764 124.818 44.794 126.031 43.3036 125.757C42.4901 125.606 41.7311 125.242 41.104 124.702C40.9744 123.982 43.2028 123.075 45.9964 123.32C47.1075 123.461 48.2054 123.691 49.2796 124.008Z" fill="black"/>
</g>
<path opacity="0.3" d="M39.5202 132.525C39.4622 132.525 39.4048 132.514 39.351 132.493C39.2477 132.447 39.1667 132.362 39.1256 132.257C39.0845 132.152 39.0865 132.035 39.1314 131.931C41.3274 126.916 44.8338 118.672 44.8914 117.891V108.826C44.9011 108.72 44.9503 108.621 45.0292 108.549C45.1082 108.477 45.2111 108.437 45.318 108.437C45.4248 108.437 45.5278 108.477 45.6067 108.549C45.6856 108.621 45.7348 108.72 45.7446 108.826V117.92C45.7446 118.87 41.2734 129.156 39.9018 132.288C39.8671 132.359 39.8128 132.42 39.7453 132.462C39.6778 132.504 39.5997 132.526 39.5202 132.525Z" fill="white"/>
<path opacity="0.3" d="M41.4462 130.488C41.4357 130.491 41.4244 130.491 41.4138 130.488C41.4035 130.483 41.3941 130.477 41.3863 130.469C41.3785 130.461 41.3724 130.451 41.3684 130.441C41.3643 130.431 41.3625 130.419 41.3628 130.408C41.3632 130.397 41.3659 130.386 41.3706 130.376C43.1202 126.34 46.4682 118.554 46.4682 117.92V109.932C46.4682 109.909 46.4773 109.887 46.4935 109.871C46.5097 109.854 46.5317 109.845 46.5546 109.845C46.5658 109.845 46.5769 109.847 46.5872 109.852C46.5974 109.856 46.6067 109.863 46.6145 109.871C46.6222 109.879 46.6282 109.888 46.6322 109.899C46.6361 109.909 46.6379 109.92 46.6374 109.932V117.92C46.6374 118.752 41.7342 129.962 41.5254 130.441C41.5183 130.456 41.507 130.468 41.4929 130.476C41.4788 130.485 41.4626 130.489 41.4462 130.488Z" fill="white"/>
<g opacity="0.2">
<path d="M62.2934 140.485H35.8442C35.8442 140.485 39.3686 128.792 41.1038 124.702L41.2874 124.27C42.6986 120.937 43.9082 118.003 43.9082 117.643V106.584H54.2006V117.643C54.2006 118.003 55.547 121.279 57.0806 124.843C58.787 128.9 62.2934 140.485 62.2934 140.485Z" fill="white"/>
<path d="M62.2936 140.485L49.1068 140.56L35.8444 140.604H35.686L35.7292 140.452C36.5788 137.635 37.4548 134.824 38.3572 132.021C38.8144 130.624 39.2752 129.224 39.7612 127.834C40.2472 126.445 40.7656 125.059 41.3524 123.712C41.9392 122.366 42.4864 120.998 43.03 119.634L43.426 118.608L43.6096 118.093C43.6678 117.938 43.71 117.777 43.7356 117.614V115.407L43.7536 106.584V106.422H43.9156L54.208 106.443H54.3484V106.584V115.411V117.618C54.3713 117.788 54.4148 117.955 54.478 118.114L54.64 118.64L55.036 119.67C55.576 121.034 56.1448 122.391 56.7136 123.748C57.8482 126.466 58.8455 129.239 59.7016 132.057C60.5908 134.84 61.4512 137.666 62.2936 140.485ZM62.2936 140.485C61.4152 137.677 60.5116 134.877 59.5828 132.086C59.1112 130.689 58.636 129.3 58.1428 127.917C57.6496 126.535 57.124 125.163 56.5264 123.817C55.9288 122.47 55.378 121.106 54.8308 119.738L54.4276 118.708L54.2368 118.186C54.1644 118.004 54.116 117.813 54.0928 117.618V115.4L54.0712 106.573L54.2116 106.713L43.9192 106.735L44.0812 106.573V115.396V117.603C44.0569 117.805 44.0073 118.004 43.9336 118.194L43.7428 118.716L43.3396 119.745C42.7924 121.113 42.2164 122.467 41.644 123.824C41.0716 125.181 40.5316 126.535 40.042 127.924C39.5524 129.314 39.0808 130.704 38.62 132.097C37.7032 134.89 36.8152 137.694 35.956 140.506L35.8444 140.355L49.0312 140.398L62.2936 140.485Z" fill="#263238"/>
<path d="M44.002 109.039C44.4053 108.944 44.8187 108.898 45.2332 108.902C45.6489 108.896 46.0637 108.942 46.468 109.039C45.6556 109.217 44.8143 109.217 44.002 109.039Z" fill="#263238"/>
<path d="M44.002 110.317C44.1944 110.226 44.4047 110.179 44.6176 110.179C44.8305 110.179 45.0407 110.226 45.2332 110.317C45.0398 110.405 44.8299 110.45 44.6176 110.45C44.4052 110.45 44.1953 110.405 44.002 110.317Z" fill="#263238"/>
<path d="M44.002 111.292C44.1939 111.201 44.4048 111.155 44.6176 111.159C44.8305 111.153 45.0418 111.199 45.2332 111.292C45.0421 111.387 44.8308 111.434 44.6176 111.429C44.4045 111.432 44.1937 111.385 44.002 111.292Z" fill="#263238"/>
<path d="M44.002 112.272C44.1944 112.181 44.4047 112.133 44.6176 112.133C44.8305 112.133 45.0407 112.181 45.2332 112.272C45.0398 112.359 44.8299 112.405 44.6176 112.405C44.4052 112.405 44.1953 112.359 44.002 112.272Z" fill="#263238"/>
<path d="M44.002 113.168C44.4055 113.074 44.8189 113.029 45.2332 113.035C45.6487 113.027 46.0636 113.072 46.468 113.168C45.6561 113.35 44.8138 113.35 44.002 113.168Z" fill="#263238"/>
<path d="M44.002 114.446C44.1937 114.353 44.4045 114.306 44.6176 114.309C44.8308 114.304 45.0421 114.351 45.2332 114.446C45.0398 114.534 44.8299 114.579 44.6176 114.579C44.4052 114.579 44.1953 114.534 44.002 114.446Z" fill="#263238"/>
<path d="M44.002 115.422C44.1953 115.334 44.4052 115.289 44.6176 115.289C44.8299 115.289 45.0398 115.334 45.2332 115.422C45.0407 115.513 44.8305 115.56 44.6176 115.56C44.4047 115.56 44.1944 115.513 44.002 115.422Z" fill="#263238"/>
<path d="M44.002 116.401C44.1937 116.308 44.4045 116.261 44.6176 116.264C44.8308 116.259 45.0421 116.306 45.2332 116.401C45.0418 116.494 44.8305 116.54 44.6176 116.534C44.4048 116.538 44.1939 116.493 44.002 116.401Z" fill="#263238"/>
</g>
</svg>
