<svg width="183" height="108" viewBox="0 0 183 108" fill="none" xmlns="http://www.w3.org/2000/svg">
<path d="M87.9996 107.791C125.264 107.791 155.473 106.027 155.473 103.851C155.473 101.676 125.264 99.9121 87.9996 99.9121C50.7349 99.9121 20.5259 101.676 20.5259 103.851C20.5259 106.027 50.7349 107.791 87.9996 107.791Z" fill="#C3C3C3"/>
<circle cx="53.1537" cy="52.0834" r="52.0834" fill="#FAFAFA"/>
<path d="M54.398 63.0114H40.918V66.5775H54.398V63.0114Z" fill="#F5F5F5"/>
<path d="M118.339 81.6435C119.226 81.0225 119.903 80.1685 120.285 79.1869C120.668 78.2053 120.739 77.139 120.49 76.1194C119.827 73.2245 116.973 71.3598 114.104 71.9472C111.235 72.5346 109.467 75.3596 110.13 78.2498C110.35 79.2845 110.887 80.2345 111.673 80.9809C112.46 81.7272 113.461 82.2366 114.551 82.4453C106.859 85.2423 109.148 93.3909 109.148 93.3909L127.986 89.5077C127.986 89.5077 126.488 81.112 118.339 81.6435Z" fill="#C3C3C3"/>
<path d="M54.9068 70.6468C55.4616 70.2673 55.8845 69.7455 56.1235 69.1456C56.3624 68.5457 56.4069 67.8941 56.2515 67.271C55.837 65.5019 54.0533 64.3624 52.2603 64.7213C50.4674 65.0803 49.3621 66.8067 49.7766 68.5729C49.914 69.2052 50.2495 69.7858 50.741 70.2419C51.2326 70.698 51.8583 71.0093 52.5397 71.1368C47.7318 72.8461 49.1625 77.8258 49.1625 77.8258L60.9366 75.4527C60.9366 75.4527 60.0002 70.3221 54.9068 70.6468Z" fill="#C3C3C3"/>
<path d="M182.582 77.7533C182.58 77.7307 182.58 77.708 182.582 77.6854C182.582 77.6339 182.582 77.5714 182.582 77.4954C182.582 77.319 182.582 77.0829 182.582 76.7817C182.582 76.1548 182.566 75.2727 182.555 74.1872L182.604 74.236L174.011 74.2577L174.082 74.1872V76.0218C174.082 76.6189 174.082 77.1969 174.082 77.7533L174.014 77.6854L180.158 77.718L181.95 77.737H182.433H182.606C182.554 77.7408 182.501 77.7408 182.449 77.737H181.98L180.205 77.756L174.014 77.7886H173.946V77.7207C173.946 77.1634 173.946 76.5863 173.946 75.9892V74.16L174.017 74.0895L182.609 74.1112H182.661V74.16C182.661 75.2592 182.642 76.1521 182.634 76.7844C182.634 77.0802 182.634 77.3272 182.634 77.4873C182.623 77.5771 182.605 77.666 182.582 77.7533Z" fill="#C3C3C3"/>
<path d="M181.271 81.3926C181.27 81.3718 181.27 81.351 181.271 81.3302V81.1457C181.271 80.9774 181.271 80.744 181.271 80.4455C181.271 79.8294 181.258 78.9447 181.247 77.8292L181.288 77.8699L167.81 77.8971L167.878 77.8292V79.634C167.878 80.2283 167.878 80.8145 167.878 81.3872L167.813 81.3221L177.418 81.3519L180.254 81.3709H181.019H181.22H181.29C181.29 81.3709 181.271 81.3709 181.228 81.3709H181.038H180.283L177.464 81.3899L167.813 81.4198H167.745V79.5987C167.745 79.3002 167.745 79.0016 167.745 78.7004V77.794L167.816 77.7234L181.293 77.7505H181.336V77.794C181.336 78.9202 181.317 79.8131 181.312 80.4346C181.312 80.7304 181.312 80.9611 181.312 81.1267C181.312 81.1972 181.312 81.2569 181.312 81.3031C181.312 81.3492 181.274 81.3953 181.271 81.3926Z" fill="#E0E0E0"/>
<path d="M19.8663 82.7198H6.38623V86.2859H19.8663V82.7198Z" fill="#F5F5F5"/>
<path d="M14.1641 90.0419C14.1641 90.0419 14.1641 90.0175 14.1641 89.9768V89.7923C14.1641 89.624 14.1641 89.3906 14.1641 89.0921C14.1641 88.476 14.1641 87.5913 14.1424 86.4758L14.1831 86.5165L0.70576 86.5437L0.773608 86.4758V88.2806C0.773608 88.8777 0.773608 89.4612 0.773608 90.0365L0.70576 89.9687L10.3131 89.9985L13.1491 90.0175H13.9144H14.1153C14.1386 90.0135 14.1625 90.0135 14.1858 90.0175H14.1234H13.9307H13.179L10.3592 90.0365L0.70576 90.0664H0.640625V90.0012C0.640625 89.4259 0.640625 88.8424 0.640625 88.2453V86.4406L0.711188 86.37L14.1885 86.3971H14.232V86.4406C14.232 87.5668 14.2157 88.4597 14.2102 89.0812C14.2102 89.377 14.2102 89.6077 14.2102 89.7733C14.2102 89.8465 14.2102 89.9035 14.2102 89.9497C14.202 89.9835 14.1863 90.0151 14.1641 90.0419Z" fill="#E0E0E0"/>
<path d="M143.406 86.8857H129.926V90.4518H143.406V86.8857Z" fill="#F5F5F5"/>
<path d="M137.707 94.2052C137.705 94.1835 137.705 94.1617 137.707 94.14V93.9555C137.707 93.7899 137.707 93.5538 137.707 93.2553C137.707 92.6392 137.694 91.7545 137.683 90.6391L137.726 90.6798L124.246 90.7069L124.314 90.6391V94.2052L124.246 94.1373L133.851 94.1672L136.687 94.1862H137.455H137.653H137.726H137.664H137.471H136.719L133.899 94.2052L124.246 94.235H124.178V90.6472L124.246 90.5767L137.726 90.6038H137.767V90.6472C137.767 91.7735 137.751 92.6664 137.745 93.2879C137.745 93.5837 137.745 93.8144 137.745 93.9799C137.745 94.0532 137.745 94.1102 137.745 94.1563C137.734 94.1735 137.721 94.1898 137.707 94.2052Z" fill="#E0E0E0"/>
<path d="M96.4148 104.211C96.4148 104.211 96.4148 104.187 96.4148 104.143C96.4148 104.1 96.4148 104.032 96.4148 103.956C96.4148 103.78 96.4148 103.541 96.4013 103.24C96.4013 102.616 96.385 101.731 96.3741 100.645L96.423 100.697L87.8361 100.718C87.771 100.784 87.9203 100.634 87.9067 100.651V101.571C87.9067 101.877 87.9067 102.181 87.9067 102.477C87.9067 103.074 87.9067 103.655 87.9067 104.209L87.8416 104.141L93.9832 104.173L95.7771 104.192H96.2602H96.4311C96.3796 104.196 96.3279 104.196 96.2764 104.192H95.8069L94.0293 104.209L87.8416 104.241H87.7737V104.173C87.7737 103.631 87.7737 103.039 87.7737 102.442V100.615C87.7574 100.629 87.9067 100.48 87.8443 100.542L96.4338 100.564H96.4854V100.613C96.4854 101.698 96.4637 102.605 96.4583 103.237C96.4583 103.533 96.4583 103.78 96.4447 103.943C96.4437 104.033 96.4337 104.123 96.4148 104.211Z" fill="#C3C3C3"/>
<path d="M95.107 107.853C95.1051 107.832 95.1051 107.81 95.107 107.788V107.607C95.107 107.438 95.107 107.205 95.107 106.904C95.107 106.288 95.0935 105.403 95.0826 104.287L95.126 104.328L81.646 104.355C81.6785 104.325 81.5781 104.426 81.7138 104.287V107.848L81.646 107.78L91.2533 107.81L94.0866 107.829H94.8546H95.0555H95.126H95.0636H94.8709H94.1192L91.2994 107.848L81.646 107.881H81.5781V104.293L81.646 104.225L95.126 104.252H95.1667V104.293C95.1667 105.419 95.1505 106.312 95.145 106.933C95.145 107.229 95.145 107.46 95.145 107.626C95.145 107.699 95.145 107.756 95.145 107.802C95.1336 107.82 95.1209 107.837 95.107 107.853Z" fill="#E0E0E0"/>
<path d="M120.797 66.876H107.317V70.4421H120.797V66.876Z" fill="#F5F5F5"/>
<path d="M91.7934 84.7064L80.6337 79.2785C80.2638 79.0978 79.9806 78.7778 79.8463 78.3886C79.712 77.9994 79.7375 77.5728 79.9172 77.2024L87.4402 61.7574C87.5294 61.574 87.6539 61.41 87.8066 61.2747C87.9592 61.1394 88.137 61.0355 88.3298 60.969C88.5226 60.9024 88.7267 60.8745 88.9303 60.8869C89.1339 60.8992 89.333 60.9516 89.5164 61.041L96.5916 64.4849L99.3218 72.8004L93.8695 84.0008C93.6869 84.3688 93.366 84.6496 92.977 84.7818C92.588 84.914 92.1624 84.8869 91.7934 84.7064Z" fill="#C3C3C3"/>
<path d="M96.5914 64.4904L94.4745 68.8326C94.3078 69.1776 94.2844 69.5745 94.4095 69.9366C94.5346 70.2987 94.798 70.5965 95.1421 70.7649L99.3216 72.8004L96.5914 64.4904Z" fill="#E0E0E0"/>
<path d="M93.6252 68.2057C93.5981 68.2627 92.4203 67.7444 90.9955 67.0496C89.5707 66.3548 88.4362 65.7469 88.4634 65.6926C88.4905 65.6384 89.6684 66.154 91.0959 66.8488C92.5234 67.5435 93.6524 68.1515 93.6252 68.2057Z" fill="white"/>
<path d="M95.7637 72.2875C95.7365 72.3418 93.8124 71.4733 91.4676 70.3199C89.1227 69.1665 87.2393 68.2058 87.2664 68.1488C87.2935 68.0918 89.2177 68.9629 91.5653 70.1164C93.9128 71.2698 95.7908 72.2224 95.7637 72.2875Z" fill="white"/>
<path d="M95.5301 74.7109C95.5029 74.7679 93.4051 73.8018 90.8486 72.5588C88.2921 71.3158 86.2349 70.2574 86.2675 70.2004C86.3 70.1434 88.3898 71.1096 90.949 72.3553C93.5082 73.6009 95.5572 74.6648 95.5301 74.7109Z" fill="white"/>
<path d="M94.586 76.6487C94.5588 76.703 92.4637 75.7395 89.9072 74.4939C87.3507 73.2482 85.2935 72.1925 85.3261 72.1382C85.3586 72.0839 87.4484 73.0473 90.0049 74.293C92.5614 75.5387 94.6213 76.5917 94.586 76.6487Z" fill="white"/>
<path d="M93.6439 78.5839C93.6167 78.6409 91.5216 77.6747 88.9623 76.4317C86.4031 75.1887 84.3487 74.1303 84.3812 74.0733C84.4138 74.0163 86.5035 74.9825 89.0628 76.2282C91.622 77.4739 93.671 78.5296 93.6439 78.5839Z" fill="white"/>
<path d="M92.6997 80.5215C92.6726 80.5758 90.5775 79.6124 88.0209 78.3667C85.4644 77.121 83.4073 76.0653 83.4398 76.011C83.4724 75.9567 85.5621 76.9201 88.1186 78.1658C90.6752 79.4115 92.7215 80.4645 92.6997 80.5215Z" fill="white"/>
<path d="M8.75264 42.0381L41.0049 42.0381L41.0049 0.384804L8.75264 0.384804L8.75264 42.0381Z" fill="#E0E0E0"/>
<path d="M8.75244 42.0381C8.778 41.9977 8.80804 41.9604 8.842 41.9268L9.11339 41.6147L10.199 40.4206H10.2125H10.2315C13.035 40.3907 18.5443 40.3717 24.8704 40.3717C31.1966 40.3717 36.7059 40.3907 39.5093 40.4206H39.5283H39.5419L40.6275 41.6147L40.8989 41.9268C40.9328 41.9604 40.9629 41.9977 40.9884 42.0381C40.9494 42.0108 40.9139 41.9789 40.8826 41.9431L40.6139 41.6472L39.4958 40.483H39.5283C36.7249 40.5128 31.2156 40.5318 24.8894 40.5318C18.5633 40.5318 13.054 40.5128 10.2505 40.483H10.2831L9.16224 41.6472L8.861 41.9431C8.82804 41.9782 8.79167 42.0101 8.75244 42.0381Z" fill="#C3C3C3"/>
<path d="M41.0047 0.384766C40.9792 0.425119 40.9491 0.462448 40.9152 0.496036L40.6438 0.808138L39.5582 2.00226L39.5446 2.01583H39.5284C36.7249 2.04569 31.2156 2.06468 24.8895 2.06468C18.5633 2.06468 13.0541 2.04569 10.2506 2.01583H10.218V2.00226L9.13244 0.808138L8.86104 0.496036C8.82708 0.462448 8.79704 0.425119 8.77148 0.384766C8.80977 0.412908 8.84522 0.444722 8.87733 0.479754L9.17043 0.775571L10.2723 1.9317H10.2397C13.0432 1.90185 18.5525 1.88285 24.8786 1.88285C31.2048 1.88285 36.714 1.90185 39.5175 1.9317L39.4849 1.94527L40.6139 0.775571L40.9097 0.479754C40.9377 0.444572 40.9695 0.412702 41.0047 0.384766Z" fill="#C3C3C3"/>
<path d="M10.2398 40.4504L39.5176 40.4504L39.5176 1.96972L10.2398 1.96972L10.2398 40.4504Z" fill="white"/>
<path d="M34.5293 6.68921C34.5808 6.68921 34.6243 13.1646 34.6243 21.149C34.6243 29.1334 34.5808 35.6061 34.5293 35.6061C34.4777 35.6061 34.437 29.1361 34.437 21.149C34.437 13.1619 34.4777 6.68921 34.5293 6.68921Z" fill="#E0E0E0"/>
<path d="M33.6147 6.68921C33.6663 6.68921 33.707 13.1646 33.707 21.149C33.707 29.1334 33.6663 35.6061 33.6147 35.6061C33.5632 35.6061 33.5225 29.1361 33.5225 21.149C33.5225 13.1619 33.5577 6.68921 33.6147 6.68921Z" fill="#E0E0E0"/>
<path d="M32.7 6.68921C32.7515 6.68921 32.7922 13.1646 32.7922 21.149C32.7922 29.1334 32.7515 35.6061 32.7 35.6061C32.6484 35.6061 32.605 29.1361 32.605 21.149C32.605 13.1619 32.6484 6.68921 32.7 6.68921Z" fill="#E0E0E0"/>
<path d="M31.7827 6.68921C31.8343 6.68921 31.8777 13.1646 31.8777 21.149C31.8777 29.1334 31.8343 35.6061 31.7827 35.6061C31.7311 35.6061 31.6904 29.1361 31.6904 21.149C31.6904 13.1619 31.7311 6.68921 31.7827 6.68921Z" fill="#E0E0E0"/>
<path d="M30.8684 6.68921C30.92 6.68921 30.9607 13.1646 30.9607 21.149C30.9607 29.1334 30.92 35.6061 30.8684 35.6061C30.8169 35.6061 30.7734 29.1361 30.7734 21.149C30.7734 13.1619 30.8169 6.68921 30.8684 6.68921Z" fill="#E0E0E0"/>
<path d="M29.9512 6.68921C30.0027 6.68921 30.0461 13.1646 30.0461 21.149C30.0461 29.1334 30.0027 35.6061 29.9512 35.6061C29.8996 35.6061 29.8589 29.1361 29.8589 21.149C29.8589 13.1619 29.8996 6.68921 29.9512 6.68921Z" fill="#E0E0E0"/>
<path d="M29.0364 6.68921C29.088 6.68921 29.1287 13.1646 29.1287 21.149C29.1287 29.1334 29.088 35.6061 29.0364 35.6061C28.9848 35.6061 28.9414 29.1361 28.9414 21.149C28.9414 13.1619 28.9848 6.68921 29.0364 6.68921Z" fill="#E0E0E0"/>
<path d="M28.1299 6.68921C28.1814 6.68921 28.2249 13.1646 28.2249 21.149C28.2249 29.1334 28.1814 35.6061 28.1299 35.6061C28.0783 35.6061 28.0376 29.1361 28.0376 21.149C28.0376 13.1619 28.0674 6.68921 28.1299 6.68921Z" fill="#E0E0E0"/>
<path d="M27.2046 6.68921C27.2561 6.68921 27.2968 13.1646 27.2968 21.149C27.2968 29.1334 27.2561 35.6061 27.2046 35.6061C27.153 35.6061 27.1123 29.1361 27.1123 21.149C27.1123 13.1619 27.153 6.68921 27.2046 6.68921Z" fill="#E0E0E0"/>
<path d="M26.2898 6.68921C26.3414 6.68921 26.3821 13.1646 26.3821 21.149C26.3821 29.1334 26.3414 35.6061 26.2898 35.6061C26.2382 35.6061 26.1948 29.1361 26.1948 21.149C26.1948 13.1619 26.2301 6.68921 26.2898 6.68921Z" fill="#E0E0E0"/>
<path d="M25.3725 6.68921C25.4241 6.68921 25.4648 13.1646 25.4648 21.149C25.4648 29.1334 25.4241 35.6061 25.3725 35.6061C25.321 35.6061 25.2803 29.1361 25.2803 21.149C25.2803 13.1619 25.321 6.68921 25.3725 6.68921Z" fill="#E0E0E0"/>
<path d="M24.4583 6.68921C24.5098 6.68921 24.5505 13.1646 24.5505 21.149C24.5505 29.1334 24.5098 35.6061 24.4583 35.6061C24.4067 35.6061 24.3633 29.1361 24.3633 21.149C24.3633 13.1619 24.4067 6.68921 24.4583 6.68921Z" fill="#E0E0E0"/>
<path d="M23.5405 6.68921C23.5921 6.68921 23.6355 13.1646 23.6355 21.149C23.6355 29.1334 23.5921 35.6061 23.5405 35.6061C23.489 35.6061 23.4482 29.1361 23.4482 21.149C23.4482 13.1619 23.489 6.68921 23.5405 6.68921Z" fill="#E0E0E0"/>
<path d="M22.6262 6.68921C22.6778 6.68921 22.7185 13.1646 22.7185 21.149C22.7185 29.1334 22.6778 35.6061 22.6262 35.6061C22.5747 35.6061 22.5312 29.1361 22.5312 21.149C22.5312 13.1619 22.5747 6.68921 22.6262 6.68921Z" fill="#E0E0E0"/>
<path d="M21.709 6.68921C21.7605 6.68921 21.804 13.1646 21.804 21.149C21.804 29.1334 21.7605 35.6061 21.709 35.6061C21.6574 35.6061 21.6167 29.1361 21.6167 21.149C21.6167 13.1619 21.6574 6.68921 21.709 6.68921Z" fill="#E0E0E0"/>
<path d="M20.8025 6.68921C20.8541 6.68921 20.8948 13.1646 20.8948 21.149C20.8948 29.1334 20.8541 35.6061 20.8025 35.6061C20.7509 35.6061 20.7075 29.1361 20.7075 21.149C20.7075 13.1619 20.7428 6.68921 20.8025 6.68921Z" fill="#E0E0E0"/>
<path d="M19.8769 6.68921C19.9285 6.68921 19.9719 13.1646 19.9719 21.149C19.9719 29.1334 19.9285 35.6061 19.8769 35.6061C19.8254 35.6061 19.7847 29.1361 19.7847 21.149C19.7847 13.1619 19.8254 6.68921 19.8769 6.68921Z" fill="#E0E0E0"/>
<path d="M18.9624 6.68921C19.014 6.68921 19.0547 13.1646 19.0547 21.149C19.0547 29.1334 19.014 35.6061 18.9624 35.6061C18.9108 35.6061 18.8701 29.1361 18.8701 21.149C18.8701 13.1619 18.9027 6.68921 18.9624 6.68921Z" fill="#E0E0E0"/>
<path d="M18.0476 6.68921C18.0992 6.68921 18.1399 13.1646 18.1399 21.149C18.1399 29.1334 18.0992 35.6061 18.0476 35.6061C17.9961 35.6061 17.9526 29.1361 17.9526 21.149C17.9526 13.1619 17.9961 6.68921 18.0476 6.68921Z" fill="#E0E0E0"/>
<path d="M17.1304 6.68921C17.1819 6.68921 17.2253 13.1646 17.2253 21.149C17.2253 29.1334 17.1819 35.6061 17.1304 35.6061C17.0788 35.6061 17.0381 29.1361 17.0381 21.149C17.0381 13.1619 17.0788 6.68921 17.1304 6.68921Z" fill="#E0E0E0"/>
<path d="M16.2161 6.68921C16.2676 6.68921 16.3084 13.1646 16.3084 21.149C16.3084 29.1334 16.2676 35.6061 16.2161 35.6061C16.1645 35.6061 16.1211 29.1361 16.1211 21.149C16.1211 13.1619 16.1645 6.68921 16.2161 6.68921Z" fill="#E0E0E0"/>
<path d="M15.2983 6.68921C15.3499 6.68921 15.3933 13.1646 15.3933 21.149C15.3933 29.1334 15.3499 35.6061 15.2983 35.6061C15.2468 35.6061 15.2061 29.1361 15.2061 21.149C15.2061 13.1619 15.2468 6.68921 15.2983 6.68921Z" fill="#E0E0E0"/>
<path d="M139.83 3.51392H74.416V57.6621H139.83V3.51392Z" fill="white"/>
<path d="M139.833 57.6622C139.833 57.2849 139.814 36.1462 139.786 3.51396L139.833 3.55738H74.4269L74.4812 3.50582C74.4812 23.1058 74.4812 41.6066 74.4812 57.654L74.4324 57.6052L139.838 57.654L74.4324 57.7029H74.3862V57.654C74.3862 41.6066 74.3862 23.1058 74.3862 3.50582V3.45154H74.4459H139.852H139.895V3.49768C139.849 36.1462 139.833 57.2958 139.833 57.6622Z" fill="#263238"/>
<path d="M132.312 18.1312C132.312 18.161 120.585 18.1854 106.123 18.1854C91.6602 18.1854 79.9307 18.161 79.9307 18.1312C79.9307 18.1013 91.6548 18.0796 106.123 18.0796C120.591 18.0796 132.312 18.1013 132.312 18.1312Z" fill="#E0E0E0"/>
<path d="M132.312 23.9145C132.312 23.9444 120.585 23.9688 106.123 23.9688C91.6602 23.9688 79.9307 23.9444 79.9307 23.9145C79.9307 23.8847 91.6548 23.8602 106.123 23.8602C120.591 23.8602 132.312 23.8874 132.312 23.9145Z" fill="#E0E0E0"/>
<path d="M132.312 29.7005C132.312 29.7304 120.585 29.7548 106.123 29.7548C91.6602 29.7548 79.9307 29.7304 79.9307 29.7005C79.9307 29.6707 91.6548 29.6462 106.123 29.6462C120.591 29.6462 132.312 29.6707 132.312 29.7005Z" fill="#E0E0E0"/>
<path d="M132.312 35.484C132.312 35.5138 120.585 35.5382 106.123 35.5382C91.6602 35.5382 79.9307 35.5138 79.9307 35.484C79.9307 35.4541 91.6548 35.4297 106.123 35.4297C120.591 35.4297 132.312 35.4541 132.312 35.484Z" fill="#E0E0E0"/>
<path d="M132.312 41.2673C132.312 41.2971 120.585 41.3215 106.123 41.3215C91.6602 41.3215 79.9307 41.2971 79.9307 41.2673C79.9307 41.2374 91.6548 41.2157 106.123 41.2157C120.591 41.2157 132.312 41.2374 132.312 41.2673Z" fill="#E0E0E0"/>
<path d="M132.312 47.0534C132.312 47.0833 120.585 47.1077 106.123 47.1077C91.6602 47.1077 79.9307 47.0833 79.9307 47.0534C79.9307 47.0236 91.6548 46.9991 106.123 46.9991C120.591 46.9991 132.312 47.0236 132.312 47.0534Z" fill="#E0E0E0"/>
<path d="M117.312 35.9806H112.093V52.7825H117.312V35.9806Z" fill="#B7CF35"/>
<path d="M127.167 30.4279H121.948V52.7825H127.167V30.4279Z" fill="#B7CF35"/>
<path d="M89.8419 44.9176H84.623V52.7826H89.8419V44.9176Z" fill="#455A64"/>
<path d="M98.4747 42.5701H93.2559V52.7826H98.4747V42.5701Z" fill="#455A64"/>
<path d="M107.422 39.601H102.204V52.7825H107.422V39.601Z" fill="#B7CF35"/>
<path d="M139.859 6.5155H74.4105C73.8808 6.5155 73.3727 6.30505 72.9981 5.93046C72.6235 5.55587 72.4131 5.04781 72.4131 4.51805C72.4131 4.25587 72.4648 3.99626 72.5652 3.75407C72.6656 3.51188 72.8128 3.29186 72.9983 3.1066C73.1838 2.92134 73.404 2.77446 73.6463 2.67438C73.8887 2.57429 74.1483 2.52296 74.4105 2.52332H139.859C140.387 2.52619 140.891 2.73761 141.263 3.11139C141.635 3.48516 141.843 3.99089 141.843 4.51805C141.843 5.04546 141.635 5.55148 141.263 5.92568C140.891 6.29989 140.387 6.51192 139.859 6.5155Z" fill="#263238"/>
<path d="M132.787 52.7825H132.548H131.843H129.129L119.169 52.7988L86.303 52.8151H79.7598V52.7608C79.7598 41.4464 79.7733 31.4483 79.776 24.2782C79.776 20.6958 79.7896 17.819 79.7923 15.8351C79.7923 14.8473 79.7923 14.0819 79.7923 13.5609C79.7923 13.2895 79.7923 13.1049 79.7923 12.9719C79.7923 12.839 79.7923 12.7711 79.7923 12.7711C79.7923 12.7711 79.7923 12.839 79.7923 12.9719C79.7923 13.1049 79.7923 13.303 79.7923 13.5609C79.7923 14.0819 79.7923 14.8473 79.7923 15.8351C79.7923 17.819 79.7923 20.6958 79.8086 24.2782C79.8086 31.4483 79.8086 41.4464 79.8276 52.7744L79.7733 52.7201H86.2705L119.136 52.7364L129.096 52.7527H131.81H132.516C132.706 52.7771 132.787 52.7825 132.787 52.7825Z" fill="#263238"/>
<path d="M82.4087 15.8324C81.5463 15.9047 80.6793 15.9047 79.8169 15.8324C80.6793 15.76 81.5463 15.76 82.4087 15.8324Z" fill="#263238"/>
<path d="M82.4087 21.3363C81.5463 21.4086 80.6793 21.4086 79.8169 21.3363C80.6793 21.2639 81.5463 21.2639 82.4087 21.3363Z" fill="#263238"/>
<path d="M82.4087 26.8374C81.5463 26.9097 80.6793 26.9097 79.8169 26.8374C80.6793 26.765 81.5463 26.765 82.4087 26.8374Z" fill="#263238"/>
<path d="M82.4087 32.3413C81.5463 32.4136 80.6793 32.4136 79.8169 32.3413C80.6793 32.2689 81.5463 32.2689 82.4087 32.3413Z" fill="#263238"/>
<path d="M82.4087 37.8424C81.5463 37.9147 80.6793 37.9147 79.8169 37.8424C80.6793 37.77 81.5463 37.77 82.4087 37.8424Z" fill="#263238"/>
<path d="M82.4087 43.3462C81.5463 43.4185 80.6793 43.4185 79.8169 43.3462C80.6793 43.2738 81.5463 43.2738 82.4087 43.3462Z" fill="#263238"/>
<path d="M52.7967 21.5724L49.9281 20.3864C48.5211 21.5214 46.7404 22.0891 44.9361 21.9778C43.1318 21.8665 41.4344 21.0843 40.1775 19.785C38.9207 18.4857 38.1953 16.7632 38.144 14.9562C38.0927 13.1492 38.7192 11.3884 39.9004 10.0199C41.0815 8.65134 42.7318 7.77413 44.5269 7.56068C46.322 7.34723 48.132 7.81298 49.6011 8.86636C51.0702 9.91974 52.0922 11.4846 52.4661 13.2532C52.8399 15.0219 52.5387 16.8664 51.6216 18.4242L52.7967 21.5724Z" fill="#FAFAFA"/>
<path d="M52.7966 21.5724L51.6459 18.4161V18.3836L51.6188 18.408L51.6541 18.4351C52.3079 17.3389 52.6582 16.0884 52.6691 14.812C52.6732 14.4285 52.6441 14.0453 52.5822 13.6667C52.5469 13.4741 52.5171 13.2759 52.4737 13.0778C52.4302 12.8797 52.3624 12.6843 52.3054 12.4835C51.7243 10.7232 50.4948 9.25023 48.8669 8.36373C47.9661 7.87116 46.9705 7.5769 45.9467 7.50071C44.8643 7.42679 43.7789 7.59363 42.7687 7.98921C41.7144 8.39516 40.772 9.04638 40.0195 9.88896L39.7481 10.2228C39.6504 10.334 39.5771 10.4589 39.4767 10.5756C39.3763 10.6923 39.303 10.809 39.2352 10.9365L39.0208 11.3138C38.9482 11.4384 38.8847 11.5681 38.8308 11.7019C38.7711 11.8321 38.7141 11.9733 38.6571 12.0927L38.5051 12.516C38.4575 12.6496 38.4167 12.7854 38.383 12.9231C38.1095 13.9948 38.0799 15.1142 38.2961 16.1988C38.499 17.2222 38.9243 18.1886 39.5418 19.0295C40.6525 20.546 42.3049 21.5763 44.1555 21.9062C44.9398 22.0322 45.7388 22.0377 46.5247 21.9225C47.2063 21.8164 47.869 21.6125 48.4923 21.3173C49.0093 21.0697 49.4956 20.7627 49.9416 20.4027H49.9199L52.7966 21.567L49.9361 20.3647C49.4909 20.7198 49.0054 21.0213 48.4896 21.263C47.8706 21.5549 47.2123 21.7551 46.5356 21.8574C45.7564 21.9683 44.9648 21.9601 44.1881 21.833C42.3594 21.4967 40.7284 20.4744 39.6287 18.9752C39.0197 18.1396 38.601 17.1809 38.402 16.1663C38.1893 15.0939 38.2199 13.9875 38.4915 12.9286C38.5231 12.7924 38.563 12.6582 38.611 12.5269L38.7466 12.1279C38.8036 12.0004 38.8606 11.8701 38.9203 11.7399C38.9734 11.6088 39.036 11.4818 39.1076 11.3599L39.3193 10.9881C39.3871 10.8605 39.4794 10.7493 39.5581 10.6299C39.6368 10.5105 39.7155 10.391 39.8105 10.2825L40.0819 9.95138C40.8245 9.11667 41.7546 8.47022 42.7958 8.0652C43.7933 7.67533 44.8645 7.51038 45.9331 7.58212C46.9434 7.66155 47.9251 7.95579 48.8126 8.44515C50.4246 9.32133 51.6446 10.776 52.2267 12.516C52.2837 12.7142 52.338 12.9096 52.395 13.105C52.452 13.3004 52.4655 13.4958 52.5035 13.6885C52.5649 14.0625 52.5949 14.4411 52.5931 14.8202C52.5845 15.5035 52.4803 16.1822 52.2837 16.8366C52.1156 17.3879 51.8843 17.918 51.5944 18.4161L51.5102 18.5627L51.6296 18.4433H51.5944C52.3651 20.4299 52.7423 21.4232 52.7966 21.5724Z" fill="#263238"/>
<path d="M43.1892 14.9585C43.1897 14.8128 43.147 14.6703 43.0664 14.5489C42.9858 14.4275 42.8709 14.3328 42.7364 14.2768C42.6019 14.2208 42.4538 14.206 42.3109 14.2343C42.168 14.2626 42.0367 14.3327 41.9337 14.4358C41.8307 14.5388 41.7606 14.6701 41.7323 14.813C41.704 14.9559 41.7188 15.104 41.7748 15.2385C41.8308 15.373 41.9255 15.4879 42.0468 15.5685C42.1682 15.6491 42.3108 15.6918 42.4564 15.6913C42.6508 15.6913 42.8372 15.6141 42.9746 15.4767C43.112 15.3392 43.1892 15.1529 43.1892 14.9585Z" fill="#263238"/>
<path d="M46.1287 14.9585C46.1292 14.8129 46.0865 14.6705 46.006 14.5492C45.9255 14.4279 45.8109 14.3332 45.6765 14.2771C45.5422 14.221 45.3942 14.2061 45.2514 14.2341C45.1085 14.2622 44.9772 14.332 44.8741 14.4348C44.771 14.5375 44.7006 14.6686 44.672 14.8113C44.6434 14.9541 44.6579 15.1021 44.7134 15.2366C44.769 15.3712 44.8633 15.4862 44.9843 15.5671C45.1053 15.6481 45.2476 15.6913 45.3932 15.6913C45.5878 15.6913 45.7744 15.6142 45.9123 15.4768C46.0501 15.3395 46.1279 15.1531 46.1287 14.9585Z" fill="#263238"/>
<path d="M49.0568 15.3303C49.1287 15.2046 49.1618 15.0603 49.1517 14.9158C49.1417 14.7713 49.0891 14.633 49.0005 14.5184C48.912 14.4038 48.7914 14.318 48.6541 14.2719C48.5168 14.2258 48.3689 14.2214 48.2291 14.2593C48.0893 14.2972 47.9638 14.3756 47.8686 14.4848C47.7734 14.5939 47.7126 14.7288 47.694 14.8725C47.6755 15.0161 47.6999 15.1621 47.7642 15.2919C47.8285 15.4217 47.9298 15.5295 48.0554 15.6017C48.1388 15.6501 48.2311 15.6815 48.3267 15.6941C48.4224 15.7066 48.5196 15.7001 48.6127 15.6749C48.7058 15.6496 48.793 15.6062 48.8693 15.547C48.9455 15.4879 49.0092 15.4142 49.0568 15.3303Z" fill="#263238"/>
<path d="M17.4098 29.8472L16.2591 27.7656C16.8294 25.9429 16.6975 23.9728 15.8891 22.2425C15.0807 20.5122 13.6544 19.1468 11.8905 18.4147C10.1266 17.6825 8.1526 17.6366 6.35654 18.286C4.56049 18.9353 3.07224 20.2329 2.1843 21.9238C1.29636 23.6146 1.07295 25.5765 1.55797 27.4237C2.04299 29.2709 3.20137 30.8699 4.80543 31.9065C6.4095 32.943 8.34326 33.3421 10.2266 33.0253C12.11 32.7086 13.8068 31.6988 14.9835 30.1946L17.4098 29.8472Z" fill="white"/>
<path d="M17.4098 29.8472L17.2579 29.8743L16.7992 29.9476L14.9863 30.219C14.9795 30.2198 14.9727 30.218 14.9671 30.214C14.9616 30.21 14.9578 30.204 14.9565 30.1973C14.9552 30.1919 14.9552 30.1863 14.9565 30.181L15.0026 30.2081C13.9756 31.5375 12.5391 32.4914 10.9154 32.9221C10.5082 33.0266 10.0935 33.1001 9.67516 33.1419C8.74526 33.2318 7.80675 33.1489 6.90695 32.8976C5.87021 32.6091 4.90508 32.1075 4.07326 31.4247C3.24145 30.742 2.56125 29.8932 2.07617 28.9326C1.54293 27.8734 1.26415 26.7043 1.26199 25.5185C1.2514 24.276 1.54785 23.0501 2.12502 21.9497L2.35028 21.5317L2.62167 21.1382L2.74922 20.9428L2.89849 20.7583L3.18888 20.3864C3.29201 20.2697 3.40599 20.1639 3.51184 20.0499C3.61768 19.9359 3.72352 19.8247 3.84565 19.7297C4.07387 19.5262 4.315 19.3376 4.56755 19.1652C5.54791 18.4865 6.67002 18.04 7.84869 17.8598C8.91642 17.709 10.0039 17.7835 11.0411 18.0785C12.0783 18.3734 13.0422 18.8823 13.8709 19.5723C14.5892 20.1708 15.1909 20.8967 15.6458 21.7136C15.8572 22.0858 16.0387 22.4742 16.1886 22.8751C16.3166 23.2511 16.4217 23.6344 16.5034 24.0231C16.744 25.2721 16.6685 26.5614 16.2836 27.7737V27.7547L17.1276 29.318L17.342 29.7169L17.4098 29.8472C17.4098 29.8472 17.38 29.801 17.3284 29.7115L17.1032 29.3125C16.9023 28.9597 16.6119 28.4468 16.2374 27.7792C16.2355 27.7759 16.2345 27.7721 16.2345 27.7683C16.2345 27.7645 16.2355 27.7608 16.2374 27.7575C16.6074 26.5529 16.6727 25.2754 16.4274 24.0394C16.3444 23.6555 16.2393 23.2767 16.1126 22.905C15.9603 22.5103 15.7789 22.1275 15.5698 21.7597C15.1139 20.9545 14.5141 20.2398 13.8003 19.651C12.401 18.5033 10.6389 17.8911 8.82939 17.9239C7.0199 17.9567 5.28115 18.6324 3.92435 19.8301C3.8096 19.9303 3.7 20.0363 3.59597 20.1476C3.49284 20.2562 3.37885 20.362 3.27844 20.476L2.99076 20.8342L2.84692 21.0161L2.71937 21.2088L2.44798 21.5969L2.24443 22.0148C1.6756 23.0973 1.38376 24.3038 1.39498 25.5266C1.39452 26.6938 1.66583 27.845 2.18744 28.8892C2.87072 30.2519 3.94809 31.3777 5.27954 32.1201C6.611 32.8625 8.13498 33.1874 9.65345 33.0523C10.0724 33.0134 10.4878 32.9435 10.8964 32.8434C11.2767 32.7449 11.6487 32.617 12.0091 32.4607C13.1658 31.9563 14.1808 31.1753 14.9646 30.1864C14.9669 30.184 14.9696 30.1821 14.9726 30.1809C14.9757 30.1796 14.9789 30.1789 14.9822 30.1789C14.9855 30.1789 14.9888 30.1796 14.9918 30.1809C14.9949 30.1821 14.9976 30.184 14.9999 30.1864C15.0034 30.1911 15.0053 30.1968 15.0053 30.2027C15.0053 30.2086 15.0034 30.2143 14.9999 30.219L14.97 30.1837L16.7694 29.9395L17.2389 29.877L17.4098 29.8472Z" fill="#263238"/>
<path d="M5.73438 25.7762L6.67611 24.7422L8.6627 26.3435L12.2288 22.5657L13.1922 23.5074L8.61385 28.2568L5.73438 25.7762Z" fill="#B7CF35"/>
</svg>
