<svg width="137" height="114" viewBox="0 0 137 114" fill="none" xmlns="http://www.w3.org/2000/svg">
<path d="M69.0001 112.791C106.265 112.791 136.474 111.027 136.474 108.851C136.474 106.676 106.265 104.912 69.0001 104.912C31.7354 104.912 1.52637 106.676 1.52637 108.851C1.52637 111.027 31.7354 112.791 69.0001 112.791Z" fill="#C3C3C3"/>
<path d="M12.6991 113.85H5.78711V113.93H12.6991V113.85Z" fill="#C3C3C3"/>
<path d="M64.8399 94.0959H3.05105C2.567 94.0951 2.10307 93.9022 1.76109 93.5596C1.41912 93.2171 1.22705 92.7528 1.22705 92.2687V5.41117C1.23126 4.9299 1.42519 4.46973 1.76671 4.13061C2.10823 3.79148 2.56976 3.6008 3.05105 3.59998H64.8399C65.3245 3.59998 65.7892 3.79248 66.1319 4.13515C66.4746 4.47782 66.6671 4.94257 66.6671 5.42717V92.2687C66.6671 92.7533 66.4746 93.2181 66.1319 93.5608C65.7892 93.9034 65.3245 94.0959 64.8399 94.0959ZM3.05105 3.66398C2.58822 3.66482 2.14463 3.84928 1.81766 4.17685C1.49069 4.50442 1.30705 4.94834 1.30705 5.41117V92.2687C1.30705 92.7316 1.49069 93.1755 1.81766 93.5031C2.14463 93.8306 2.58822 94.0151 3.05105 94.0159H64.8399C65.303 94.0151 65.7469 93.8307 66.0744 93.5033C66.4019 93.1758 66.5862 92.7319 66.5871 92.2687V5.41117C66.5862 4.94805 66.4019 4.50413 66.0744 4.17665C65.7469 3.84917 65.303 3.66482 64.8399 3.66398H3.05105Z" fill="#C3C3C3"/>
<path d="M134.059 94.0959H72.2671C71.7828 94.0951 71.3185 93.9023 70.9761 93.5598C70.6336 93.2173 70.4408 92.7531 70.4399 92.2687V5.41117C70.445 4.92961 70.6396 4.46944 70.9817 4.13041C71.3237 3.79137 71.7855 3.60079 72.2671 3.59998H134.059C134.54 3.60164 135.001 3.7927 135.341 4.13173C135.682 4.47076 135.876 4.93046 135.88 5.41117V92.2687C135.88 92.7522 135.688 93.216 135.347 93.5585C135.006 93.901 134.543 94.0942 134.059 94.0959ZM72.2671 3.66398C71.804 3.66482 71.3601 3.84917 71.0326 4.17665C70.7051 4.50413 70.5208 4.94805 70.5199 5.41117V92.2687C70.5208 92.7319 70.7051 93.1758 71.0326 93.5033C71.3601 93.8307 71.804 94.0151 72.2671 94.0159H134.059C134.522 94.0151 134.966 93.8307 135.294 93.5033C135.621 93.1758 135.805 92.7319 135.806 92.2687V5.41117C135.805 4.94805 135.621 4.50413 135.294 4.17665C134.966 3.84917 134.522 3.66482 134.059 3.66398H72.2671Z" fill="#C3C3C3"/>
<circle cx="43.5" cy="43.5" r="43.5" fill="#FAFAFA"/>
<path d="M54.9553 97.9983C55.1768 97.9347 55.4027 97.8882 55.6313 97.8593L57.6592 97.5639C58.7644 97.4163 59.8586 97.1958 60.9349 96.9037C62.4097 96.5713 63.8626 96.1476 65.2853 95.6352C69.1916 94.2396 72.8844 92.3038 76.2564 89.8838C81.2148 86.3543 85.3603 81.7996 88.413 76.527C91.4658 71.2544 93.3548 65.3866 93.9525 59.3196C94.7412 51.7006 93.4596 44.0095 90.2435 37.0611L89.6195 35.6711C89.3942 35.2193 89.1342 34.7849 88.8742 34.3505L87.349 31.692L85.5291 29.103L84.6105 27.8346L83.5533 26.6704C80.7428 23.4167 77.445 20.6205 73.778 18.3821C70.028 16.0241 65.9349 14.2655 61.6455 13.1693C57.1889 12.1339 52.6049 11.7592 48.0398 12.0573C39.307 12.8223 31.0147 16.2395 24.2697 21.8528C17.5247 27.4661 12.648 35.0083 10.2905 43.4728C9.28021 47.264 8.77896 51.1733 8.79999 55.0973C8.76791 56.0436 8.81426 56.9909 8.93863 57.9296C8.93863 58.8679 9.09462 59.7888 9.16395 60.7097C9.52792 62.4473 9.80526 64.3413 10.2732 66.0615C12.0465 72.5049 15.279 78.4511 19.7192 83.4374C23.3841 87.5324 27.7813 90.9034 32.6836 93.3764L35.8727 94.8186C36.9126 95.2703 37.9699 95.5309 38.9405 95.8785C40.7436 96.4597 42.5853 96.9126 44.4521 97.2338C47.0378 97.6919 49.6606 97.9071 52.2862 97.8767H54.3314H55.042H54.3314L52.2862 97.9636C49.6484 98.0785 47.0058 97.9213 44.4001 97.4944C42.5116 97.1995 40.6466 96.7697 38.8191 96.2086C37.8312 95.8611 36.7566 95.6178 35.7167 95.1661L32.4583 93.7586C27.4698 91.2882 22.9895 87.8989 19.2512 83.7675C14.7063 78.7418 11.3841 72.729 9.54526 66.2005C9.07729 64.4629 8.76531 62.6211 8.40133 60.7618C8.31467 59.8409 8.22802 58.8852 8.14136 57.9296C8.03425 56.972 7.98791 56.0086 8.00268 55.0452C7.97738 51.0476 8.47265 47.0639 9.47592 43.1948C11.8654 34.55 16.8328 26.8436 23.7126 21.1078C30.5925 15.372 39.0564 11.8808 47.9705 11.1016C52.6226 10.7972 57.2941 11.1777 61.8362 12.231C66.2309 13.3216 70.4333 15.0795 74.2979 17.4438C78.0278 19.7427 81.3832 22.6026 84.2466 25.9232L85.3212 27.1221L86.2571 28.408L88.1116 30.9796C88.6316 31.8831 89.1516 32.8041 89.6715 33.6902C89.9142 34.142 90.1915 34.5938 90.4168 35.0455L91.0407 36.4704C94.3071 43.5574 95.5893 51.4017 94.7498 59.1633C93.8539 67.4175 90.617 75.2414 85.4227 81.7084C80.2284 88.1754 73.2941 93.0145 65.4412 95.6526C64.0046 96.1582 62.5333 96.5589 61.0389 96.8515C59.9558 97.1191 58.8554 97.3107 57.7458 97.4249L55.7006 97.6508L54.9553 97.9983Z" fill="#263238"/>
<path d="M108.418 62.8769C105.293 62.8775 102.238 61.9515 99.6398 60.2159C97.0414 58.4803 95.016 56.0132 93.8197 53.1265C92.6235 50.2397 92.3102 47.0631 92.9194 43.9983C93.5286 40.9335 95.033 38.1182 97.2423 35.9084C99.4517 33.6986 102.267 32.1937 105.331 31.5838C108.396 30.974 111.573 31.2867 114.46 32.4823C117.347 33.678 119.814 35.7029 121.55 38.301C123.286 40.8991 124.213 43.9537 124.213 47.0784C124.209 51.2666 122.543 55.282 119.582 58.2438C116.621 61.2056 112.606 62.8718 108.418 62.8769ZM108.418 31.6C105.356 31.5994 102.363 32.5067 99.8176 34.2071C97.2718 35.9075 95.2874 38.3246 94.1154 41.1529C92.9434 43.9812 92.6364 47.0934 93.2332 50.0962C93.8301 53.0989 95.304 55.8572 97.4686 58.0222C99.6332 60.1872 102.391 61.6617 105.394 62.2592C108.396 62.8567 111.509 62.5504 114.337 61.3789C117.166 60.2075 119.583 58.2236 121.284 55.6781C122.985 53.1326 123.893 50.1399 123.893 47.0784C123.888 42.9754 122.256 39.0419 119.355 36.1403C116.454 33.2387 112.521 31.606 108.418 31.6Z" fill="white"/>
<path d="M109.099 79.0144C106.543 79.0148 104.068 79.9117 102.105 81.5489C100.143 83.1861 98.816 85.4599 98.3569 87.9744C97.9345 90.3168 97.5153 92.656 96.9489 94.9664L93.6401 108.448H124.552L121.25 94.96C120.683 92.6496 120.267 90.3104 119.842 87.968C119.381 85.4547 118.054 83.1823 116.091 81.5464C114.129 79.9105 111.654 79.0145 109.099 79.0144Z" fill="#F5F5F5"/>
<path d="M110.808 79.0144C108.252 79.0148 105.777 79.9117 103.814 81.5489C101.851 83.1861 100.525 85.4599 100.066 87.9744C99.64 90.3168 99.2208 92.656 98.6576 94.9664L95.3521 108.454H126.261L122.955 94.96C122.392 92.6496 121.973 90.3104 121.55 87.968C121.09 85.4547 119.763 83.1823 117.8 81.5464C115.837 79.9105 113.363 79.0145 110.808 79.0144Z" fill="#F5F5F5"/>
<path d="M43.0195 27.12C43.3647 25.7027 44.2569 24.4796 45.5011 23.7181C46.7453 22.9566 48.2403 22.7186 49.6595 23.056L99.2595 34.9952C100.676 35.3411 101.899 36.2335 102.66 37.4774C103.422 38.7214 103.66 40.216 103.323 41.6352C102.979 43.0529 102.087 44.2765 100.843 45.0381C99.5982 45.7998 98.1027 46.0374 96.6835 45.6992L47.0835 33.76C45.6657 33.4155 44.4422 32.5235 43.6805 31.2791C42.9189 30.0346 42.6812 28.5392 43.0195 27.12Z" fill="#F0F0F0"/>
<path d="M43.9757 26.5345C44.3231 25.1189 45.2161 23.8982 46.4601 23.1387C47.704 22.3791 49.1979 22.1424 50.6157 22.4801L100.216 34.4193C101.627 34.7667 102.844 35.657 103.603 36.8967C104.361 38.1364 104.6 39.6254 104.267 41.0401C103.922 42.4574 103.03 43.6804 101.785 44.4419C100.541 45.2034 99.0461 45.4415 97.6269 45.1041L48.0269 33.1649C46.6145 32.816 45.3968 31.924 44.6383 30.6825C43.8797 29.4411 43.6417 27.9504 43.9757 26.5345Z" fill="#C3C3C3"/>
<path d="M50.6288 28.1344C50.8064 27.4056 51.2652 26.7767 51.9049 26.3852C52.5447 25.9936 53.3135 25.8713 54.0432 26.0448L95.5249 36.032C96.2518 36.2103 96.879 36.6683 97.2703 37.3064C97.6615 37.9445 97.7852 38.7112 97.6145 39.44C97.4369 40.1688 96.9781 40.7976 96.3383 41.1892C95.6986 41.5807 94.9298 41.7031 94.2001 41.5296L52.7184 31.552C51.9894 31.3737 51.3605 30.9143 50.969 30.274C50.5775 29.6337 50.4552 28.8645 50.6288 28.1344Z" fill="#F0F0F0"/>
<path d="M44.085 27.0175C42.7724 25.7033 41.1615 24.7259 39.3897 24.1687C37.6178 23.6115 35.7375 23.4911 33.909 23.8175C30.5586 24.3999 29.3202 28.5599 31.7138 30.9759L40.1266 39.3887C42.5298 41.7919 46.7026 40.544 47.2914 37.1967C47.6176 35.3672 47.4964 33.486 46.938 31.7134C46.3797 29.9409 45.4008 28.3298 44.085 27.0175Z" fill="#F5F5F5"/>
<path d="M24.7026 63.8687V60.6687C27.525 60.67 30.2844 59.8342 32.6317 58.2671C34.979 56.7 36.8089 54.472 37.8898 51.8648C38.9708 49.2576 39.2543 46.3885 38.7044 43.6202C38.1546 40.8519 36.7961 38.3088 34.8008 36.3127C32.8056 34.3165 30.2631 32.9569 27.4951 32.4058C24.727 31.8547 21.8577 32.1369 19.2501 33.2167C16.6424 34.2965 14.4136 36.1253 12.8454 38.472C11.2772 40.8186 10.4402 43.5776 10.4402 46.4H7.24023C7.24023 42.945 8.26476 39.5675 10.1843 36.6948C12.1038 33.8221 14.832 31.5831 18.024 30.2609C21.216 28.9387 24.7284 28.5928 28.117 29.2668C31.5056 29.9409 34.6183 31.6046 37.0613 34.0477C39.5044 36.4907 41.1681 39.6033 41.8422 42.992C42.5162 46.3806 42.1703 49.893 40.8481 53.085C39.5259 56.277 37.2869 59.0052 34.4142 60.9247C31.5414 62.8442 28.164 63.8687 24.709 63.8687H24.7026Z" fill="#C3C3C3"/>
<path d="M34.1873 36.9152C35.3201 38.048 37.2369 38.1376 39.2369 37.344C41.1057 36.6016 42.3057 34.208 41.3233 33.2224L37.8801 29.7824C36.8945 28.7968 34.5009 29.9968 33.7617 31.8656C32.9681 33.8688 33.0545 35.7824 34.1873 36.9152Z" fill="#F5F5F5"/>
<path d="M44.0849 30.5376C46.029 30.5376 47.6049 28.9616 47.6049 27.0176C47.6049 25.0735 46.029 23.4976 44.0849 23.4976C42.1409 23.4976 40.5649 25.0735 40.5649 27.0176C40.5649 28.9616 42.1409 30.5376 44.0849 30.5376Z" fill="#FAFAFA"/>
<path d="M92.2899 30.7241L90.2401 31.5007C86.5149 32.9121 84.6392 37.076 86.0505 40.8011L102.911 85.3045C104.323 89.0297 108.487 90.9054 112.212 89.4941L114.262 88.7175C117.987 87.3061 119.862 83.1422 118.451 79.4171L101.59 34.9136C100.179 31.1885 96.015 29.3128 92.2899 30.7241Z" fill="#F0F0F0"/>
<path d="M93.9964 30.7246L91.9466 31.5012C88.2215 32.9125 86.3458 37.0765 87.7571 40.8016L104.618 85.305C106.029 89.0302 110.193 90.9059 113.918 89.4945L115.968 88.7179C119.693 87.3066 121.569 83.1427 120.158 79.4176L103.297 34.9141C101.885 31.189 97.7215 29.3133 93.9964 30.7246Z" fill="#F0F0F0"/>
<path d="M111.384 83.2288C111.282 83.2275 111.182 83.1966 111.098 83.1398C111.013 83.0829 110.947 83.0027 110.907 82.9088L94.0431 38.4064C94.0003 38.2835 94.006 38.1489 94.0589 38.03C94.1118 37.9112 94.2079 37.8169 94.3278 37.7664L96.379 36.9888C96.4292 36.9699 96.4823 36.9602 96.5358 36.96C96.6379 36.9608 96.7375 36.9916 96.8223 37.0484C96.907 37.1053 96.9732 37.1858 97.0127 37.28L113.877 81.7824C113.92 81.9052 113.915 82.0401 113.862 82.1592C113.809 82.2783 113.712 82.3725 113.592 82.4224L111.541 83.2C111.491 83.2199 111.438 83.2297 111.384 83.2288Z" fill="#F0F0F0"/>
<path d="M114.379 79.0144C111.823 79.0148 109.348 79.9117 107.385 81.5489C105.422 83.1861 104.096 85.4599 103.637 87.9744C103.214 90.3168 102.795 92.656 102.229 94.9664L98.9263 108.454H129.832L126.529 94.96C125.963 92.6496 125.547 90.3104 125.121 87.968C124.661 85.4547 123.334 83.1823 121.371 81.5464C119.408 79.9105 116.934 79.0145 114.379 79.0144Z" fill="#F5F5F5"/>
<path d="M116.088 79.0144C113.532 79.0148 111.057 79.9117 109.094 81.5489C107.131 83.1861 105.805 85.4599 105.345 87.9744C104.92 90.3168 104.501 92.656 103.937 94.9664L100.632 108.454H131.541L128.235 94.96C127.672 92.6496 127.253 90.3104 126.83 87.968C126.37 85.4547 125.043 83.1823 123.08 81.5464C121.117 79.9105 118.643 79.0145 116.088 79.0144Z" fill="#F5F5F5"/>
<path d="M101.383 44.4526C104.36 41.4759 104.36 36.6496 101.383 33.6729C98.4062 30.6962 93.58 30.6962 90.6032 33.6729C87.6265 36.6496 87.6265 41.4759 90.6032 44.4526C93.58 47.4293 98.4062 47.4293 101.383 44.4526Z" fill="#FAFAFA"/>
<path d="M95.9921 45.2512C94.7671 45.2518 93.5695 44.8891 92.5508 44.209C91.532 43.5288 90.7379 42.5618 90.2688 41.4302C89.7998 40.2987 89.6769 39.0534 89.9157 37.852C90.1545 36.6505 90.7443 35.5469 91.6105 34.6808C92.4766 33.8146 93.5802 33.2248 94.7817 32.986C95.9831 32.7472 97.2284 32.8701 98.3599 33.3391C99.4915 33.8082 100.459 34.6023 101.139 35.6211C101.819 36.6399 102.182 37.8375 102.181 39.0624C102.178 40.703 101.525 42.2757 100.365 43.4357C99.2053 44.5958 97.6327 45.2487 95.9921 45.2512ZM95.9921 33.1712C94.8269 33.1712 93.6879 33.5167 92.7191 34.164C91.7503 34.8114 90.9952 35.7314 90.5493 36.8079C90.1034 37.8844 89.9868 39.0689 90.2141 40.2117C90.4414 41.3545 91.0025 42.4042 91.8264 43.2281C92.6503 44.052 93.7 44.6131 94.8428 44.8404C95.9855 45.0677 97.1701 44.951 98.2465 44.5051C99.323 44.0593 100.243 43.3042 100.89 42.3354C101.538 41.3666 101.883 40.2276 101.883 39.0624C101.882 37.5005 101.26 36.003 100.156 34.8986C99.0515 33.7941 97.554 33.1729 95.9921 33.1712Z" fill="#E0E0E0"/>
<path d="M34.453 87.4399H12.1074V108.368H34.453V87.4399Z" fill="#B7CF35"/>
<path d="M5.38742 108.368H12.1074L12.1074 87.4399H5.38742L5.38742 108.368Z" fill="#B7CF35"/>
<path d="M13.2818 87.4399H32.293V74.5695H13.2818V87.4399Z" fill="#F0F0F0"/>
<path d="M38.0114 74.5696H32.293V87.44H38.0114V74.5696Z" fill="#F0F0F0"/>
<path d="M44.6862 108.368H61.2271V88.9311H44.6862V108.368Z" fill="#DCE89C"/>
<path d="M59.6113 106.438H46.3057V90.8577H59.6113V106.438ZM46.6257 106.118H59.2913V91.1777H46.6257V106.118Z" fill="#F5F5F5"/>
<path d="M66.1999 88.928H61.2271V108.365H66.1999V88.928Z" fill="#DCE89C"/>
<path d="M3.18576 65.8401H19.7266L19.7266 46.4001H3.18576L3.18576 65.8401Z" fill="#F0F0F0"/>
<path d="M24.6994 46.4032H19.7266V65.8432H24.6994V46.4032Z" fill="#F5F5F5"/>
</svg>
