<svg width="26" height="24" viewBox="0 0 26 24" fill="none" xmlns="http://www.w3.org/2000/svg">
<path d="M10.5263 2H4.13049C3.30759 2 2.63818 2.65414 2.63818 3.45827V7.20824C2.63818 8.01253 3.30759 8.66667 4.13049 8.66667H10.5263C11.3494 8.66667 12.0188 8.01253 12.0188 7.20824V3.45827C12.0188 2.65414 11.3494 2 10.5263 2Z" fill="#787A7D"/>
<path d="M10.5263 10.2963H4.13049C3.30759 10.2963 2.63818 10.9525 2.63818 11.7593V20.5371C2.63818 21.3438 3.30759 22 4.13049 22H10.5263C11.3494 22 12.0188 21.3438 12.0188 20.5371V11.7593C12.0188 10.9525 11.3494 10.2963 10.5263 10.2963Z" fill="#787A7D"/>
<path d="M21.5714 15.3334H15.1756C14.3525 15.3334 13.6831 15.9875 13.6831 16.7918V20.5418C13.6831 21.3459 14.3525 22 15.1756 22H21.5714C22.3943 22 23.0637 21.3459 23.0637 20.5418V16.7918C23.0637 15.9875 22.3943 15.3334 21.5714 15.3334V15.3334Z" fill="#787A7D"/>
<path d="M15.1756 2C14.3525 2 13.6831 2.65622 13.6831 3.46291V12.2406C13.6831 13.0475 14.3525 13.7037 15.1756 13.7037H21.5714C22.3943 13.7037 23.0637 13.0475 23.0637 12.2406V3.46291C23.0637 2.65622 22.3943 2 21.5714 2L15.1756 2Z" fill="#787A7D"/>
</svg>
