<svg width="62" height="62" viewBox="0 0 62 62" fill="none" xmlns="http://www.w3.org/2000/svg">
<g clip-path="url(#clip0_4790_18506)">
<path d="M21.4676 26.9185L18.7551 24.3352C16.5553 25.3983 14.0788 25.7495 11.6701 25.34C9.26134 24.9304 7.04012 23.7804 5.3153 22.0499C3.59048 20.3194 2.44779 18.0944 2.04614 15.6844C1.6445 13.2743 2.00387 10.799 3.07427 8.60265L6.76844 12.271C7.50154 13.0041 8.49584 13.4159 9.5326 13.4159C10.046 13.4159 10.5543 13.3148 11.0286 13.1184C11.5028 12.9219 11.9338 12.634 12.2968 12.271C12.6598 11.908 12.9477 11.4771 13.1442 11.0028C13.3406 10.5285 13.4417 10.0202 13.4417 9.50682C13.4417 8.99346 13.3406 8.48514 13.1442 8.01086C12.9477 7.53659 12.6598 7.10565 12.2968 6.74265L8.62843 3.07432C10.8244 2.03378 13.2879 1.69621 15.6829 2.10769C18.0778 2.51918 20.2874 3.65966 22.0101 5.37348" stroke="#0091B4" stroke-width="4.5" stroke-linecap="round" stroke-linejoin="round"/>
<path d="M40.8684 35.2367L43.245 37.5875C45.4343 36.5458 47.8922 36.2066 50.2818 36.6163C52.6714 37.026 54.8759 38.1647 56.5931 39.8763C58.3103 41.5878 59.4562 43.7885 59.8739 46.1767C60.2915 48.565 59.9604 51.024 58.9259 53.2167L55.2317 49.5484C54.4986 48.8153 53.5043 48.4034 52.4675 48.4034C51.4308 48.4034 50.4365 48.8153 49.7034 49.5484C48.9703 50.2815 48.5584 51.2758 48.5584 52.3125C48.5584 53.3493 48.9703 54.3436 49.7034 55.0767L53.3717 58.745C51.1758 59.7856 48.7122 60.1231 46.3173 59.7117C43.9224 59.3002 41.7128 58.1597 39.99 56.4459C38.275 54.7344 37.1347 52.5319 36.7274 50.1434C36.3201 47.755 36.6658 45.299 37.7167 43.1159L35.3142 40.7392" stroke="#0091B4" stroke-width="4.5" stroke-linecap="round" stroke-linejoin="round"/>
<path d="M3.72018 58.3575C2.64115 57.2731 2.0354 55.8056 2.0354 54.2758C2.0354 52.7461 2.64115 51.2785 3.72018 50.1942L15.8618 38.1042C16.04 37.9214 16.2529 37.7761 16.488 37.6769C16.7232 37.5777 16.9758 37.5266 17.231 37.5266C17.4862 37.5266 17.7389 37.5777 17.974 37.6769C18.2092 37.7761 18.4221 37.9214 18.6002 38.1042L24.0768 43.555C24.2557 43.7327 24.3977 43.944 24.4945 44.1767C24.5914 44.4095 24.6413 44.6591 24.6413 44.9113C24.6413 45.1634 24.5914 45.413 24.4945 45.6458C24.3977 45.8785 24.2557 46.0898 24.0768 46.2675L11.9352 58.3575C10.8453 59.446 9.36799 60.0574 7.82768 60.0574C6.28736 60.0574 4.81002 59.446 3.72018 58.3575V58.3575Z" stroke="#0091B4" stroke-width="4.5" stroke-linecap="round" stroke-linejoin="round"/>
<path d="M42.8577 3.07417L58.926 19.0908C59.6438 19.8163 60.0464 20.7957 60.0464 21.8163C60.0464 22.8368 59.6438 23.8162 58.926 24.5417L53.4494 29.9925C52.7195 30.7119 51.7358 31.1152 50.711 31.1152C49.6862 31.1152 48.7025 30.7119 47.9727 29.9925L31.9044 13.9758C31.1866 13.2504 30.7839 12.271 30.7839 11.2504C30.7839 10.2299 31.1866 9.25049 31.9044 8.52501L37.381 3.07417C37.739 2.71176 38.1654 2.42401 38.6355 2.22763C39.1056 2.03124 39.6099 1.93011 40.1194 1.93011C40.6288 1.93011 41.1332 2.03124 41.6032 2.22763C42.0733 2.42401 42.4997 2.71176 42.8577 3.07417Z" stroke="#0091B4" stroke-width="4.5" stroke-linecap="round" stroke-linejoin="round"/>
<path d="M40.1192 22.165L21.0801 40.5584" stroke="#0091B4" stroke-width="4.5" stroke-linecap="round" stroke-linejoin="round"/>
</g>
<defs>
<clipPath id="clip0_4790_18506">
<rect width="62" height="62" fill="white"/>
</clipPath>
</defs>
</svg>
