<svg width="62" height="62" viewBox="0 0 62 62" fill="none" xmlns="http://www.w3.org/2000/svg">
<g clip-path="url(#clip0_4790_18497)">
<path d="M40.6875 19.375V9.6875H52.3125V54.25C52.3116 55.1796 52.088 56.0955 51.6603 56.9209C51.2326 57.7463 50.6133 58.4572 49.8544 58.994C49.0954 59.5309 48.2189 59.878 47.2982 60.0064C46.3774 60.1348 45.4393 60.0406 44.5625 59.7318" stroke="#0091B4" stroke-width="4.5" stroke-linecap="round" stroke-linejoin="round"/>
<path d="M56.1875 9.6875H36.8125" stroke="#0091B4" stroke-width="4.5" stroke-linecap="round" stroke-linejoin="round"/>
<path d="M17.4375 1.9375H32.9375" stroke="#0091B4" stroke-width="4.5" stroke-linecap="round" stroke-linejoin="round"/>
<path d="M29.0625 21.7V1.9375H21.3125V21.7C16.6081 22.6603 12.4279 25.3332 9.58215 29.2004C6.73646 33.0677 5.42807 37.8538 5.91066 42.6309C6.39324 47.408 8.63242 51.8358 12.1941 55.0558C15.7557 58.2757 20.3861 60.0585 25.1875 60.0585C29.989 60.0585 34.6194 58.2757 38.181 55.0558C41.7427 51.8358 43.9819 47.408 44.4644 42.6309C44.947 37.8538 43.6386 33.0677 40.7929 29.2004C37.9472 25.3332 33.767 22.6603 29.0625 21.7V21.7Z" stroke="#0091B4" stroke-width="4.5" stroke-linecap="round" stroke-linejoin="round"/>
<path d="M44.175 44.5625H6.19995" stroke="#0091B4" stroke-width="4.5" stroke-linecap="round" stroke-linejoin="round"/>
</g>
<defs>
<clipPath id="clip0_4790_18497">
<rect width="62" height="62" fill="white"/>
</clipPath>
</defs>
</svg>
