<svg width="18" height="18" viewBox="0 0 18 18" fill="none" xmlns="http://www.w3.org/2000/svg">
<g clip-path="url(#clip0_2397_11849)">
<path d="M5.55755 9.39831L4.50005 10.6883C4.49039 10.7022 4.47749 10.7136 4.46247 10.7215C4.44745 10.7293 4.43076 10.7334 4.4138 10.7334C4.39685 10.7334 4.38016 10.7293 4.36514 10.7215C4.35012 10.7136 4.33722 10.7022 4.32755 10.6883L3.75005 10.1033C3.7037 10.0318 3.6417 9.97178 3.56875 9.92774C3.4958 9.88371 3.41379 9.85683 3.32893 9.84912C3.24407 9.84142 3.15856 9.8531 3.07887 9.88327C2.99918 9.91345 2.92739 9.96134 2.86892 10.0233C2.81044 10.0853 2.76682 10.1598 2.74133 10.2411C2.71584 10.3224 2.70916 10.4084 2.72179 10.4927C2.73442 10.577 2.76603 10.6573 2.81423 10.7275C2.86244 10.7978 2.92598 10.8562 3.00005 10.8983L4.10255 12.0008C4.20794 12.1063 4.35092 12.1657 4.50005 12.1658C4.58123 12.1706 4.6625 12.1584 4.73869 12.1299C4.81488 12.1015 4.88431 12.0576 4.94255 12.0008L6.44255 10.1258C6.53496 10.008 6.57731 9.85862 6.56047 9.70986C6.54363 9.56111 6.46895 9.42495 6.35255 9.33081C6.23681 9.23761 6.08959 9.19262 5.94152 9.2052C5.79346 9.21777 5.65593 9.28693 5.55755 9.39831Z" fill="#1C1C1C"/>
<path d="M6.35249 5.18237C6.23674 5.08918 6.08952 5.04419 5.94146 5.05676C5.79339 5.06933 5.65586 5.1385 5.55749 5.24987L4.49999 6.56237C4.49032 6.57629 4.47743 6.58767 4.46241 6.59553C4.44739 6.60338 4.43069 6.60749 4.41374 6.60749C4.39679 6.60749 4.38009 6.60338 4.36507 6.59553C4.35005 6.58767 4.33715 6.57629 4.32749 6.56237L3.74999 5.99987C3.64502 5.94974 3.5271 5.93338 3.41245 5.95305C3.2978 5.97272 3.19207 6.02745 3.10982 6.10971C3.02757 6.19196 2.97284 6.29769 2.95317 6.41233C2.9335 6.52698 2.94986 6.64491 2.99999 6.74987L4.12499 7.87487C4.23037 7.98039 4.37335 8.03974 4.52249 8.03987H4.49999C4.57941 8.03477 4.65696 8.01351 4.72789 7.9774C4.79882 7.9413 4.86163 7.89109 4.91249 7.82987L6.41249 5.95487C6.50168 5.84224 6.54505 5.70009 6.53393 5.55686C6.5228 5.41362 6.458 5.27987 6.35249 5.18237Z" fill="#1C1C1C"/>
<path d="M10.3125 7.125C10.3106 6.97642 10.2507 6.83447 10.1456 6.7294C10.0405 6.62433 9.89858 6.56444 9.75 6.5625H7.875C7.72582 6.5625 7.58274 6.62176 7.47725 6.72725C7.37176 6.83274 7.3125 6.97582 7.3125 7.125C7.3125 7.27418 7.37176 7.41726 7.47725 7.52275C7.58274 7.62824 7.72582 7.6875 7.875 7.6875H9.75C9.89858 7.68556 10.0405 7.62567 10.1456 7.5206C10.2507 7.41553 10.3106 7.27358 10.3125 7.125Z" fill="#1C1C1C"/>
<path d="M7.875 10.6875C7.72582 10.6875 7.58274 10.7468 7.47725 10.8523C7.37176 10.9577 7.3125 11.1008 7.3125 11.25C7.3125 11.3992 7.37176 11.5423 7.47725 11.6477C7.58274 11.7532 7.72582 11.8125 7.875 11.8125H9C9.14918 11.8125 9.29226 11.7532 9.39775 11.6477C9.50324 11.5423 9.5625 11.3992 9.5625 11.25C9.5625 11.1008 9.50324 10.9577 9.39775 10.8523C9.29226 10.7468 9.14918 10.6875 9 10.6875H7.875Z" fill="#1C1C1C"/>
<path d="M13.5 5.4375V11.685C13.5005 11.7213 13.5115 11.7566 13.5316 11.7868C13.5518 11.8169 13.5803 11.8406 13.6136 11.8549C13.647 11.8692 13.6837 11.8735 13.7195 11.8673C13.7552 11.8611 13.7884 11.8447 13.815 11.82C14.1825 11.46 14.76 10.8975 14.9475 10.725C14.9651 10.7074 14.9789 10.6863 14.9879 10.663C14.997 10.6398 15.0011 10.6149 15 10.59V4.8075C14.9992 4.61074 14.9211 4.4222 14.7825 4.2825L10.7175 0.2175C10.5778 0.0789419 10.3893 0.000828466 10.1925 0H1.5C1.10218 0 0.720644 0.158035 0.43934 0.43934C0.158035 0.720644 0 1.10218 0 1.5L0 16.5C0 16.8978 0.158035 17.2794 0.43934 17.5607C0.720644 17.842 1.10218 18 1.5 18H9.9825C10.0322 18 10.0799 17.9802 10.1151 17.9451C10.1502 17.9099 10.17 17.8622 10.17 17.8125C10.1914 17.4432 10.2315 17.0752 10.29 16.71C10.2932 16.6836 10.2907 16.6567 10.2827 16.6313C10.2748 16.6059 10.2615 16.5825 10.2437 16.5626C10.226 16.5427 10.2042 16.5269 10.1799 16.5161C10.1555 16.5053 10.1291 16.4998 10.1025 16.5H1.875C1.77554 16.5 1.68016 16.4605 1.60984 16.3902C1.53951 16.3198 1.5 16.2245 1.5 16.125V1.875C1.5 1.77554 1.53951 1.68016 1.60984 1.60984C1.68016 1.53951 1.77554 1.5 1.875 1.5H9.5625C9.61223 1.5 9.65992 1.51975 9.69508 1.55492C9.73025 1.59008 9.75 1.63777 9.75 1.6875V3.75C9.75 4.14782 9.90804 4.52936 10.1893 4.81066C10.4706 5.09196 10.8522 5.25 11.25 5.25H13.3125C13.3622 5.25 13.4099 5.26975 13.4451 5.30492C13.4802 5.34008 13.5 5.38777 13.5 5.4375Z" fill="#1C1C1C"/>
<path d="M17.5801 11.6709C17.447 11.5369 17.2886 11.4306 17.1142 11.358C16.9398 11.2854 16.7528 11.248 16.5638 11.248C16.3749 11.248 16.1879 11.2854 16.0135 11.358C15.8391 11.4306 15.6807 11.5369 15.5476 11.6709L11.7376 15.4884C11.6843 15.5388 11.6477 15.6042 11.6326 15.6759L11.2501 17.5509C11.2385 17.6115 11.242 17.674 11.2603 17.7328C11.2787 17.7917 11.3112 17.8452 11.3551 17.8884C11.3886 17.9245 11.4292 17.9531 11.4744 17.9725C11.5196 17.9918 11.5684 18.0015 11.6176 18.0009H11.6926L13.5676 17.6259C13.6393 17.6109 13.7047 17.5742 13.7551 17.5209L17.5726 13.7109C17.7082 13.5782 17.8161 13.4198 17.89 13.2449C17.9639 13.0701 18.0023 12.8823 18.003 12.6925C18.0037 12.5027 17.9667 12.3147 17.8941 12.1393C17.8215 11.9639 17.7148 11.8047 17.5801 11.6709Z" fill="#1C1C1C"/>
</g>
<defs>
<clipPath id="clip0_2397_11849">
<rect width="18" height="18" fill="white"/>
</clipPath>
</defs>
</svg>
