<svg width="26" height="24" viewBox="0 0 26 24" fill="none" xmlns="http://www.w3.org/2000/svg">
<path d="M10.3729 15.1295C9.80063 14.8971 9.35043 14.4454 9.127 13.8796C9.06749 13.6678 8.87133 13.5207 8.64702 13.5196H1.41661C1.24764 13.5173 1.08942 13.6005 0.9979 13.7396C0.912158 13.885 0.912158 14.0641 0.9979 14.2096C1.8671 16.2165 3.87781 17.5198 6.10412 17.5194H10.087C10.1555 17.5223 10.2222 17.4969 10.2707 17.4494C10.3192 17.4019 10.3452 17.3366 10.3423 17.2695V16.9995C10.3463 16.4562 10.3975 15.9143 10.4955 15.3795C10.5099 15.2796 10.4616 15.181 10.3729 15.1295Z" fill="#787A7D"/>
<path d="M4.48023 11.9996C5.04425 11.9996 5.50147 11.5519 5.50147 10.9997V2.9999C5.50147 2.44764 5.9587 1.99994 6.52272 1.99994H18.7776C19.3417 1.99994 19.7989 2.44764 19.7989 2.9999V8.29974C19.7984 8.42485 19.8962 8.5293 20.0236 8.53973C20.5295 8.59669 21.0287 8.70049 21.5146 8.84972C21.5854 8.88372 21.6684 8.88372 21.7393 8.84972C21.8023 8.80152 21.8398 8.72805 21.8414 8.64973V2.9999C21.8414 1.3431 20.4697 0 18.7776 0H6.52272C4.83066 0 3.45898 1.3431 3.45898 2.9999V10.9997C3.45898 11.2649 3.56658 11.5192 3.7581 11.7067C3.94962 11.8943 4.20938 11.9996 4.48023 11.9996Z" fill="#787A7D"/>
<ellipse cx="19.0128" cy="16.9995" rx="1.53187" ry="1.49995" fill="#787A7D"/>
<path fill-rule="evenodd" clip-rule="evenodd" d="M23.8944 16.6895C23.7308 16.8651 23.7308 17.1339 23.8944 17.3095L24.9054 18.3795C25.4513 18.9513 25.5515 19.8053 25.1524 20.4836C24.7532 21.1618 23.9484 21.5051 23.1693 21.3294L21.7294 20.9994C21.4789 20.9498 21.2339 21.1053 21.1779 21.3494L20.749 22.7393C20.5245 23.4931 19.8147 24.0082 19.0129 23.9993C18.1873 24.023 17.4526 23.4897 17.2359 22.7093L16.8478 21.3194C16.7743 21.0905 16.5366 20.9526 16.2963 20.9994L14.887 21.3294C14.108 21.5051 13.3031 21.1618 12.904 20.4836C12.5048 19.8053 12.605 18.9513 13.1509 18.3795L14.1722 17.3095C14.3358 17.1339 14.3358 16.8651 14.1722 16.6895L13.1509 15.6195C12.6151 15.051 12.5157 14.2087 12.9049 13.5355C13.2941 12.8623 14.0828 12.5123 14.8564 12.6696L16.2963 12.9996C16.5337 13.0474 16.7703 12.9145 16.8478 12.6896L17.2767 11.2897C17.5128 10.5449 18.2165 10.0374 19.0129 10.0374C19.8092 10.0374 20.5129 10.5449 20.749 11.2897L21.1779 12.6896C21.2554 12.9145 21.492 13.0474 21.7294 12.9996L23.1795 12.6696C23.9586 12.4939 24.7634 12.8372 25.1626 13.5154C25.5618 14.1937 25.4615 15.0476 24.9156 15.6195L23.8944 16.6895ZM15.9491 16.9995C15.9491 18.6563 17.3208 19.9994 19.0129 19.9994C20.7049 19.9994 22.0766 18.6563 22.0766 16.9995C22.0766 15.3427 20.7049 13.9996 19.0129 13.9996C17.3208 13.9996 15.9491 15.3427 15.9491 16.9995Z" fill="#787A7D"/>
</svg>
