<svg width="24" height="24" viewBox="0 0 24 24" fill="none" xmlns="http://www.w3.org/2000/svg">
<path d="M14.2403 21H9.76032C9.70063 21.002 9.64362 21.0253 9.59959 21.0656C9.55557 21.106 9.52745 21.1608 9.52032 21.22C9.51536 21.3133 9.51536 21.4068 9.52032 21.5C9.52032 22.1631 9.78371 22.799 10.2525 23.2678C10.7214 23.7367 11.3573 24 12.0203 24C12.6834 24 13.3192 23.7367 13.7881 23.2678C14.2569 22.799 14.5203 22.1631 14.5203 21.5C14.5253 21.4068 14.5253 21.3133 14.5203 21.22C14.5166 21.1871 14.5064 21.1553 14.4903 21.1263C14.4741 21.0974 14.4524 21.0719 14.4263 21.0515C14.4003 21.031 14.3704 21.0159 14.3385 21.0071C14.3066 20.9983 14.2732 20.9959 14.2403 21Z" fill="#2C6E59"/>
<path d="M21.4502 19.28C20.3005 17.004 19.7011 14.4899 19.7002 11.94V11.18C19.7292 9.68856 19.3914 8.21283 18.7166 6.88245C18.0418 5.55207 17.0507 4.40775 15.8302 3.55C15.1221 3.09422 14.3298 2.78481 13.5002 2.64V1.5C13.5002 1.10218 13.3422 0.720644 13.0609 0.43934C12.7796 0.158035 12.3981 0 12.0002 0C11.6024 0 11.2209 0.158035 10.9396 0.43934C10.6583 0.720644 10.5002 1.10218 10.5002 1.5V2.65C9.46241 2.84539 8.4857 3.28405 7.65023 3.93C6.58181 4.80807 5.72558 5.9162 5.14549 7.1716C4.56541 8.42701 4.27646 9.79726 4.30023 11.18V11.94C4.29941 14.4899 3.7 17.004 2.55023 19.28C2.51084 19.3539 2.49023 19.4363 2.49023 19.52C2.49023 19.6037 2.51084 19.6861 2.55023 19.76C2.59831 19.8353 2.66497 19.8969 2.74379 19.939C2.82261 19.981 2.91093 20.002 3.00023 20H21.0002C21.0862 19.9986 21.1704 19.976 21.2454 19.9341C21.3205 19.8922 21.384 19.8324 21.4302 19.76C21.4727 19.6878 21.4968 19.6062 21.5003 19.5225C21.5038 19.4388 21.4866 19.3555 21.4502 19.28Z" fill="#2C6E59"/>
</svg>
