<svg width="25" height="24" viewBox="0 0 25 24" fill="none" xmlns="http://www.w3.org/2000/svg">
<g clip-path="url(#clip0_3358_18703)">
<path d="M23.8945 8C23.6293 8 23.375 8.10536 23.1874 8.29289C22.9999 8.48043 22.8945 8.73478 22.8945 9V10.5C22.8945 10.6326 22.8419 10.7598 22.7481 10.8536C22.6543 10.9473 22.5271 11 22.3945 11H20.8945C20.7619 11 20.6347 10.9473 20.541 10.8536C20.4472 10.7598 20.3945 10.6326 20.3945 10.5V1.4C20.3945 1.0287 20.247 0.672601 19.9845 0.410051C19.7219 0.1475 19.3658 0 18.9945 0H15.7945C15.6107 0 15.4286 0.0362121 15.2588 0.106569C15.0889 0.176925 14.9346 0.280048 14.8046 0.410051C14.6746 0.540053 14.5715 0.694387 14.5011 0.864243C14.4307 1.0341 14.3945 1.21615 14.3945 1.4V10.5C14.3945 10.6326 14.3419 10.7598 14.2481 10.8536C14.1543 10.9473 14.0271 11 13.8945 11H11.8945C11.7619 11 11.6347 10.9473 11.541 10.8536C11.4472 10.7598 11.3945 10.6326 11.3945 10.5V1.4C11.3945 1.0287 11.247 0.672601 10.9845 0.410051C10.7219 0.1475 10.3658 0 9.99453 0H6.79453C6.42323 0 6.06713 0.1475 5.80458 0.410051C5.54203 0.672601 5.39453 1.0287 5.39453 1.4V10.5C5.39453 10.6326 5.34185 10.7598 5.24808 10.8536C5.15432 10.9473 5.02714 11 4.89453 11H3.39453C3.26192 11 3.13475 10.9473 3.04098 10.8536C2.94721 10.7598 2.89453 10.6326 2.89453 10.5V9C2.89453 8.73478 2.78917 8.48043 2.60164 8.29289C2.4141 8.10536 2.15975 8 1.89453 8C1.62931 8 1.37496 8.10536 1.18742 8.29289C0.999888 8.48043 0.894531 8.73478 0.894531 9L0.894531 19C0.894531 19.6566 1.02386 20.3068 1.27513 20.9134C1.52641 21.52 1.8947 22.0712 2.359 22.5355C3.29668 23.4732 4.56845 24 5.89453 24H19.8945C20.5511 24 21.2013 23.8707 21.8079 23.6194C22.4146 23.3681 22.9658 22.9998 23.4301 22.5355C23.8944 22.0712 24.2627 21.52 24.5139 20.9134C24.7652 20.3068 24.8945 19.6566 24.8945 19V9C24.8945 8.73478 24.7892 8.48043 24.6016 8.29289C24.4141 8.10536 24.1597 8 23.8945 8ZM16.3945 2.5C16.3945 2.36739 16.4472 2.24021 16.541 2.14645C16.6347 2.05268 16.7619 2 16.8945 2H17.8945C18.0271 2 18.1543 2.05268 18.2481 2.14645C18.3419 2.24021 18.3945 2.36739 18.3945 2.5V7C18.3945 7.13261 18.3419 7.25979 18.2481 7.35355C18.1543 7.44732 18.0271 7.5 17.8945 7.5H16.8945C16.7619 7.5 16.6347 7.44732 16.541 7.35355C16.4472 7.25979 16.3945 7.13261 16.3945 7V2.5ZM7.39453 2.5C7.39453 2.36739 7.44721 2.24021 7.54098 2.14645C7.63475 2.05268 7.76192 2 7.89453 2H8.89453C9.02714 2 9.15432 2.05268 9.24809 2.14645C9.34185 2.24021 9.39453 2.36739 9.39453 2.5V7C9.39453 7.13261 9.34185 7.25979 9.24809 7.35355C9.15432 7.44732 9.02714 7.5 8.89453 7.5H7.89453C7.76192 7.5 7.63475 7.44732 7.54098 7.35355C7.44721 7.25979 7.39453 7.13261 7.39453 7V2.5ZM19.8945 22H5.89453C5.09888 22 4.33582 21.6839 3.77321 21.1213C3.2106 20.5587 2.89453 19.7956 2.89453 19V13.5C2.89453 13.3674 2.94721 13.2402 3.04098 13.1464C3.13475 13.0527 3.26192 13 3.39453 13H4.89453C5.02714 13 5.15432 13.0527 5.24808 13.1464C5.34185 13.2402 5.39453 13.3674 5.39453 13.5V16.85C5.37355 17.6165 5.63828 18.3633 6.13727 18.9455C6.63626 19.5277 7.33388 19.9035 8.09453 20H8.39453C9.19018 20 9.95324 19.6839 10.5159 19.1213C11.0785 18.5587 11.3945 17.7956 11.3945 17V13.5C11.3945 13.3674 11.4472 13.2402 11.541 13.1464C11.6347 13.0527 11.7619 13 11.8945 13H13.8945C14.0271 13 14.1543 13.0527 14.2481 13.1464C14.3419 13.2402 14.3945 13.3674 14.3945 13.5V16.85C14.3735 17.6165 14.6383 18.3633 15.1373 18.9455C15.6363 19.5277 16.3339 19.9035 17.0945 20H17.3945C18.1902 20 18.9532 19.6839 19.5159 19.1213C20.0785 18.5587 20.3945 17.7956 20.3945 17V13.5C20.3945 13.3674 20.4472 13.2402 20.541 13.1464C20.6347 13.0527 20.7619 13 20.8945 13H22.3945C22.5271 13 22.6543 13.0527 22.7481 13.1464C22.8419 13.2402 22.8945 13.3674 22.8945 13.5V19C22.8945 19.7956 22.5785 20.5587 22.0159 21.1213C21.4532 21.6839 20.6902 22 19.8945 22Z" fill="#787A7D"/>
</g>
<defs>
<clipPath id="clip0_3358_18703">
<rect width="24" height="24" fill="white" transform="translate(0.894531)"/>
</clipPath>
</defs>
</svg>
