<svg width="24" height="24" viewBox="0 0 24 24" fill="none" xmlns="http://www.w3.org/2000/svg">
<path d="M20.5 2.00001H15.5C15.4581 1.99771 15.4173 1.98567 15.3808 1.96484C15.3444 1.94401 15.3133 1.91496 15.29 1.88001C14.9524 1.30777 14.4713 0.833492 13.8943 0.504006C13.3174 0.17452 12.6644 0.0012207 12 0.0012207C11.3356 0.0012207 10.6826 0.17452 10.1057 0.504006C9.5287 0.833492 9.04764 1.30777 8.71 1.88001C8.68674 1.91496 8.65564 1.94401 8.61919 1.96484C8.58273 1.98567 8.54192 1.99771 8.5 2.00001H3.5C3.10218 2.00001 2.72064 2.15805 2.43934 2.43935C2.15804 2.72065 2 3.10219 2 3.50001V22.5C2 22.8978 2.15804 23.2794 2.43934 23.5607C2.72064 23.842 3.10218 24 3.5 24H20.5C20.8978 24 21.2794 23.842 21.5607 23.5607C21.842 23.2794 22 22.8978 22 22.5V3.50001C22 3.10219 21.842 2.72065 21.5607 2.43935C21.2794 2.15805 20.8978 2.00001 20.5 2.00001ZM19 16.26C19.0012 16.8576 18.7884 17.4358 18.4 17.89L16.48 20.13C16.244 20.4025 15.9522 20.6212 15.6244 20.7712C15.2967 20.9213 14.9405 20.9993 14.58 21H5.5C5.36739 21 5.24021 20.9473 5.14645 20.8536C5.05268 20.7598 5 20.6326 5 20.5V5.50001C5 5.3674 5.05268 5.24022 5.14645 5.14646C5.24021 5.05269 5.36739 5.00001 5.5 5.00001H18.5C18.6326 5.00001 18.7598 5.05269 18.8536 5.14646C18.9473 5.24022 19 5.3674 19 5.50001V16.26Z" fill="#787A7D"/>
<path d="M16 8.25H8C7.80109 8.25 7.61032 8.32902 7.46967 8.46967C7.32902 8.61032 7.25 8.80109 7.25 9C7.25 9.19891 7.32902 9.38968 7.46967 9.53033C7.61032 9.67098 7.80109 9.75 8 9.75H16C16.1989 9.75 16.3897 9.67098 16.5303 9.53033C16.671 9.38968 16.75 9.19891 16.75 9C16.75 8.80109 16.671 8.61032 16.5303 8.46967C16.3897 8.32902 16.1989 8.25 16 8.25Z" fill="#787A7D"/>
<path d="M16 11.75H8C7.80109 11.75 7.61032 11.829 7.46967 11.9697C7.32902 12.1103 7.25 12.3011 7.25 12.5C7.25 12.6989 7.32902 12.8897 7.46967 13.0303C7.61032 13.171 7.80109 13.25 8 13.25H16C16.1989 13.25 16.3897 13.171 16.5303 13.0303C16.671 12.8897 16.75 12.6989 16.75 12.5C16.75 12.3011 16.671 12.1103 16.5303 11.9697C16.3897 11.829 16.1989 11.75 16 11.75Z" fill="#787A7D"/>
<path d="M12.5 15.25H8C7.80109 15.25 7.61032 15.329 7.46967 15.4697C7.32902 15.6103 7.25 15.8011 7.25 16C7.25 16.1989 7.32902 16.3897 7.46967 16.5303C7.61032 16.671 7.80109 16.75 8 16.75H12.5C12.6989 16.75 12.8897 16.671 13.0303 16.5303C13.171 16.3897 13.25 16.1989 13.25 16C13.25 15.8011 13.171 15.6103 13.0303 15.4697C12.8897 15.329 12.6989 15.25 12.5 15.25Z" fill="#787A7D"/>
</svg>
