<svg width="18" height="18" viewBox="0 0 18 18" fill="none" xmlns="http://www.w3.org/2000/svg">
<g clip-path="url(#clip0_2397_11845)">
<path d="M17.5726 7.89036C15.5926 5.70786 12.3226 3.39036 9.00005 3.45036C5.67755 3.51036 2.40755 5.70786 0.427554 7.89036C0.146114 8.19743 -0.0100098 8.59883 -0.0100098 9.01536C-0.0100098 9.43189 0.146114 9.83329 0.427554 10.1404C1.74755 11.5654 5.05505 14.5504 9.00005 14.5504C12.9451 14.5504 16.2451 11.5504 17.5726 10.1029C17.8435 9.79807 17.9932 9.40443 17.9932 8.99661C17.9932 8.58879 17.8435 8.19515 17.5726 7.89036ZM5.55005 9.00036C5.55005 8.31801 5.75239 7.65099 6.13148 7.08364C6.51057 6.51629 7.04939 6.0741 7.6798 5.81298C8.3102 5.55185 9.00388 5.48353 9.67311 5.61665C10.3423 5.74977 10.9571 6.07835 11.4396 6.56084C11.9221 7.04333 12.2506 7.65806 12.3838 8.3273C12.5169 8.99653 12.4486 9.69021 12.1874 10.3206C11.9263 10.951 11.4841 11.4898 10.9168 11.8689C10.3494 12.248 9.6824 12.4504 9.00005 12.4504C8.08506 12.4504 7.20754 12.0869 6.56053 11.4399C5.91353 10.7929 5.55005 9.91536 5.55005 9.00036Z" fill="#1C1C1C"/>
<path d="M9 10.5C9.82843 10.5 10.5 9.82843 10.5 9C10.5 8.17157 9.82843 7.5 9 7.5C8.17157 7.5 7.5 8.17157 7.5 9C7.5 9.82843 8.17157 10.5 9 10.5Z" fill="#1C1C1C"/>
</g>
<defs>
<clipPath id="clip0_2397_11845">
<rect width="18" height="18" fill="white"/>
</clipPath>
</defs>
</svg>
