<svg width="25" height="24" viewBox="0 0 25 24" fill="none" xmlns="http://www.w3.org/2000/svg">
<g clip-path="url(#clip0_3358_18705)">
<path d="M12.9043 2.75C13.4566 2.75 13.9043 2.30228 13.9043 1.75C13.9043 1.19772 13.4566 0.75 12.9043 0.75C12.352 0.75 11.9043 1.19772 11.9043 1.75C11.9043 2.30228 12.352 2.75 12.9043 2.75Z" fill="#787A7D"/>
<path d="M12.8941 3.24994C12.4042 3.2461 11.93 3.42216 11.5614 3.74472C11.1927 4.06729 10.9553 4.51393 10.8941 4.99994C10.8883 5.03492 10.8898 5.07071 10.8984 5.10511C10.907 5.1395 10.9225 5.17177 10.9441 5.19994C10.9673 5.22784 10.9963 5.25034 11.0291 5.26588C11.0619 5.28143 11.0978 5.28963 11.1341 5.28994H14.6041C14.6404 5.28963 14.6762 5.28143 14.709 5.26588C14.7418 5.25034 14.7708 5.22784 14.7941 5.19994C14.824 5.17568 14.8485 5.14528 14.8657 5.11078C14.883 5.07628 14.8926 5.03848 14.8941 4.99994C14.8328 4.51393 14.5954 4.06729 14.2267 3.74472C13.8581 3.42216 13.3839 3.2461 12.8941 3.24994Z" fill="#787A7D"/>
<path d="M22.4043 12.75C22.9566 12.75 23.4043 12.3023 23.4043 11.75C23.4043 11.1977 22.9566 10.75 22.4043 10.75C21.852 10.75 21.4043 11.1977 21.4043 11.75C21.4043 12.3023 21.852 12.75 22.4043 12.75Z" fill="#787A7D"/>
<path d="M20.4245 15C20.4113 15.0317 20.4045 15.0657 20.4045 15.1C20.4045 15.1343 20.4113 15.1683 20.4245 15.2C20.4477 15.2279 20.4767 15.2504 20.5096 15.2659C20.5424 15.2815 20.5782 15.2897 20.6145 15.29H24.0845C24.1208 15.2897 24.1566 15.2815 24.1894 15.2659C24.2222 15.2504 24.2512 15.2279 24.2745 15.2C24.2972 15.1723 24.3143 15.1404 24.3246 15.106C24.3349 15.0717 24.3383 15.0357 24.3345 15C24.3345 14.4696 24.1238 13.9609 23.7487 13.5858C23.3736 13.2107 22.8649 13 22.3345 13C21.804 13 21.2953 13.2107 20.9203 13.5858C20.5452 13.9609 20.3345 14.4696 20.3345 15H20.4245Z" fill="#787A7D"/>
<path d="M12.9043 20.75C13.4566 20.75 13.9043 20.3023 13.9043 19.75C13.9043 19.1977 13.4566 18.75 12.9043 18.75C12.352 18.75 11.9043 19.1977 11.9043 19.75C11.9043 20.3023 12.352 20.75 12.9043 20.75Z" fill="#787A7D"/>
<path d="M12.8941 21.2501C12.4042 21.2462 11.93 21.4223 11.5614 21.7448C11.1927 22.0674 10.9553 22.5141 10.8941 23.0001C10.8883 23.035 10.8898 23.0708 10.8984 23.1052C10.907 23.1396 10.9225 23.1719 10.9441 23.2001C10.9673 23.228 10.9963 23.2505 11.0291 23.266C11.0619 23.2815 11.0978 23.2898 11.1341 23.2901H14.6041C14.6404 23.2898 14.6762 23.2815 14.709 23.266C14.7418 23.2505 14.7708 23.228 14.7941 23.2001C14.824 23.1758 14.8485 23.1454 14.8657 23.1109C14.883 23.0764 14.8926 23.0386 14.8941 23.0001C14.8328 22.5141 14.5954 22.0674 14.2267 21.7448C13.8581 21.4223 13.3839 21.2462 12.8941 21.2501Z" fill="#787A7D"/>
<path d="M3.4043 12.75C3.95658 12.75 4.4043 12.3023 4.4043 11.75C4.4043 11.1977 3.95658 10.75 3.4043 10.75C2.85201 10.75 2.4043 11.1977 2.4043 11.75C2.4043 12.3023 2.85201 12.75 3.4043 12.75Z" fill="#787A7D"/>
<path d="M3.4043 13.25C2.9179 13.251 2.44856 13.4293 2.08412 13.7514C1.71967 14.0735 1.48509 14.5174 1.4243 15C1.41109 15.0317 1.4043 15.0657 1.4043 15.1C1.4043 15.1343 1.41109 15.1683 1.4243 15.2C1.44753 15.2279 1.47656 15.2504 1.50938 15.2659C1.54219 15.2815 1.57799 15.2897 1.6143 15.29H5.1343C5.1706 15.2897 5.20641 15.2815 5.23922 15.2659C5.27203 15.2504 5.30106 15.2279 5.3243 15.2C5.34707 15.1723 5.36411 15.1404 5.37441 15.106C5.38471 15.0717 5.38807 15.0357 5.3843 15C5.3235 14.5174 5.08892 14.0735 4.72448 13.7514C4.36003 13.4293 3.89069 13.251 3.4043 13.25Z" fill="#787A7D"/>
<path d="M17.2343 7.99998C17.2727 8.09017 17.3368 8.16708 17.4186 8.22114C17.5003 8.2752 17.5962 8.30402 17.6943 8.30402C17.7923 8.30402 17.8882 8.2752 17.97 8.22114C18.0517 8.16708 18.1158 8.09017 18.1543 7.99998L18.2643 7.77998C18.2794 7.741 18.3052 7.70714 18.3389 7.68234C18.3725 7.65755 18.4126 7.64285 18.4543 7.63998C18.4938 7.63122 18.535 7.63308 18.5737 7.64537C18.6123 7.65767 18.647 7.67995 18.6743 7.70998C19.1403 8.177 19.5498 8.69724 19.8943 9.25998C19.9802 9.41298 20.105 9.54065 20.2559 9.63017C20.4069 9.7197 20.5788 9.76791 20.7543 9.76998C20.9303 9.76815 21.1028 9.71985 21.2543 9.62998C21.483 9.49806 21.6503 9.28103 21.7196 9.02624C21.7889 8.77145 21.7546 8.49959 21.6243 8.26998C21.0497 7.29804 20.3162 6.42933 19.4543 5.69998C19.4124 5.66367 19.3839 5.61452 19.373 5.56023C19.3621 5.50593 19.3696 5.44957 19.3943 5.39998L19.8743 4.39998C19.9155 4.31038 19.93 4.21074 19.9158 4.11312C19.9016 4.0155 19.8594 3.92409 19.7943 3.84998C19.7272 3.77735 19.6401 3.72624 19.544 3.7031C19.4478 3.67996 19.347 3.68583 19.2543 3.71998L16.5943 4.71998C16.4694 4.7653 16.3672 4.85752 16.3093 4.97703C16.2514 5.09655 16.2424 5.23393 16.2843 5.35998L17.2343 7.99998Z" fill="#787A7D"/>
<path d="M4.37444 9.20999C4.3787 9.27513 4.39593 9.33876 4.42512 9.39714C4.45432 9.45553 4.49488 9.5075 4.54444 9.54999C4.63994 9.63689 4.76536 9.68347 4.89444 9.67999L7.72444 9.49999C7.82359 9.49457 7.91876 9.45916 7.99734 9.39845C8.07591 9.33773 8.13419 9.25457 8.16444 9.15999C8.19799 9.06792 8.20256 8.96778 8.17754 8.87304C8.15251 8.77829 8.09908 8.69348 8.02444 8.62999L7.26444 7.99999C7.2373 7.97829 7.2152 7.95095 7.19966 7.91988C7.18412 7.8888 7.17551 7.85472 7.17444 7.81999C7.17489 7.78613 7.18221 7.75272 7.19596 7.72178C7.20971 7.69083 7.22961 7.66301 7.25444 7.63999C7.86342 7.01182 8.56901 6.48516 9.34444 6.07999C9.46613 6.02409 9.57536 5.94432 9.66563 5.84541C9.75591 5.7465 9.82541 5.63046 9.86999 5.50419C9.91457 5.37791 9.93334 5.24397 9.92518 5.1103C9.91701 4.97663 9.88208 4.84597 9.82246 4.72605C9.76284 4.60614 9.67974 4.49943 9.5781 4.41224C9.47645 4.32505 9.35833 4.25917 9.23074 4.2185C9.10315 4.17783 8.96869 4.1632 8.83533 4.17548C8.70198 4.18776 8.57245 4.2267 8.45444 4.28999C7.43823 4.79804 6.51522 5.47423 5.72444 6.28999C5.67821 6.33286 5.61749 6.35668 5.55444 6.35668C5.49139 6.35668 5.43067 6.33286 5.38444 6.28999L5.02444 5.99999C4.94989 5.93536 4.8579 5.89423 4.76003 5.88177C4.66216 5.86932 4.56279 5.88609 4.47444 5.92999C4.38635 5.97435 4.31302 6.04331 4.26332 6.1285C4.21362 6.2137 4.1897 6.31147 4.19444 6.40999L4.37444 9.20999Z" fill="#787A7D"/>
<path d="M8.59421 18.4099C8.57695 18.3075 8.52819 18.2129 8.45471 18.1394C8.38123 18.066 8.28668 18.0172 8.18421 17.9999C8.08532 17.9857 7.98443 18.002 7.89506 18.0466C7.80569 18.0913 7.73212 18.1623 7.68421 18.2499L7.45421 18.6299C7.43511 18.6621 7.40901 18.6896 7.37786 18.7104C7.3467 18.7312 7.31128 18.7447 7.27421 18.7499C7.23621 18.7544 7.19769 18.7505 7.16139 18.7384C7.12509 18.7263 7.0919 18.7063 7.06421 18.6799C6.5321 18.1099 6.08424 17.4667 5.73421 16.7699C5.61609 16.5327 5.40861 16.352 5.15734 16.2676C4.90608 16.1832 4.6316 16.202 4.39421 16.3199C4.15693 16.4381 3.97625 16.6455 3.89187 16.8968C3.80749 17.1481 3.82632 17.4225 3.94421 17.6599C4.48454 18.7453 5.21626 19.7244 6.10421 20.5499C6.13909 20.5941 6.15806 20.6487 6.15806 20.7049C6.15806 20.7612 6.13909 20.8158 6.10421 20.8599L5.61421 21.6999C5.56044 21.7816 5.53179 21.8772 5.53179 21.9749C5.53179 22.0727 5.56044 22.1683 5.61421 22.2499C5.67419 22.3274 5.75482 22.3863 5.84682 22.4199C5.93882 22.4535 6.03844 22.4605 6.13421 22.4399L8.87421 21.7199C8.93796 21.7036 8.99786 21.6749 9.05048 21.6354C9.1031 21.5959 9.1474 21.5463 9.18085 21.4897C9.21429 21.433 9.23622 21.3703 9.24538 21.3051C9.25454 21.24 9.25074 21.1736 9.23421 21.1099L8.59421 18.4099Z" fill="#787A7D"/>
<path d="M21.4244 17.24C21.4147 17.1753 21.3922 17.1132 21.3581 17.0573C21.324 17.0014 21.2791 16.9529 21.2259 16.9147C21.1728 16.8765 21.1126 16.8493 21.0488 16.8348C20.9849 16.8202 20.9189 16.8186 20.8544 16.83L18.0544 17.26C17.9568 17.2733 17.8655 17.3157 17.7923 17.3817C17.7192 17.4477 17.6676 17.5343 17.6444 17.63C17.6214 17.7258 17.6271 17.8262 17.6609 17.9187C17.6947 18.0112 17.7551 18.0917 17.8344 18.15L18.4544 18.6C18.5086 18.6499 18.544 18.717 18.5544 18.79C18.5539 18.8614 18.5252 18.9297 18.4744 18.98C17.8861 19.5604 17.2115 20.0462 16.4744 20.42C16.2771 20.5208 16.1188 20.6842 16.0244 20.8847C15.9301 21.0851 15.9049 21.3113 15.953 21.5275C16.0011 21.7438 16.1196 21.938 16.29 22.0797C16.4604 22.2213 16.673 22.3023 16.8944 22.31C17.0502 22.3122 17.2043 22.2779 17.3444 22.21C18.3916 21.6848 19.3392 20.9809 20.1444 20.13C20.19 20.0899 20.2487 20.0678 20.3094 20.0678C20.3702 20.0678 20.4288 20.0899 20.4744 20.13L21.0544 20.55C21.1385 20.6123 21.2398 20.6472 21.3444 20.65C21.4368 20.6479 21.5268 20.6202 21.6044 20.57C21.7144 20.5272 21.8047 20.4455 21.8582 20.3403C21.9117 20.2352 21.9246 20.1141 21.8944 20L21.4244 17.24Z" fill="#787A7D"/>
<path d="M8.43419 15.51C8.39839 15.6129 8.38787 15.723 8.40354 15.8309C8.4192 15.9388 8.46058 16.0414 8.52419 16.13C8.58671 16.2173 8.66931 16.2883 8.76503 16.3371C8.86075 16.3858 8.96679 16.4108 9.07419 16.41H16.7242C16.8316 16.4108 16.9376 16.3858 17.0334 16.3371C17.1291 16.2883 17.2117 16.2173 17.2742 16.13C17.3378 16.0414 17.3792 15.9388 17.3948 15.8309C17.4105 15.723 17.4 15.6129 17.3642 15.51C17.0405 14.5839 16.4368 13.7815 15.6368 13.2137C14.8369 12.6459 13.8802 12.3409 12.8992 12.3409C11.9182 12.3409 10.9615 12.6459 10.1615 13.2137C9.36158 13.7815 8.75793 14.5839 8.43419 15.51Z" fill="#787A7D"/>
<path d="M12.9043 11.66C14.0309 11.66 14.9443 10.7466 14.9443 9.61996C14.9443 8.4933 14.0309 7.57996 12.9043 7.57996C11.7776 7.57996 10.8643 8.4933 10.8643 9.61996C10.8643 10.7466 11.7776 11.66 12.9043 11.66Z" fill="#787A7D"/>
</g>
<defs>
<clipPath id="clip0_3358_18705">
<rect width="24" height="24" fill="white" transform="translate(0.894531)"/>
</clipPath>
</defs>
</svg>
