<svg width="25" height="24" viewBox="0 0 25 24" fill="none" xmlns="http://www.w3.org/2000/svg">
<g clip-path="url(#clip0_3358_18701)">
<path d="M14.1643 11.87C14.1185 11.8497 14.0788 11.8178 14.049 11.7775C14.0192 11.7371 14.0004 11.6898 13.9943 11.64C13.9943 11.5887 14.0095 11.5385 14.038 11.4958C14.0665 11.4531 14.107 11.4198 14.1543 11.4C14.8347 11.1097 15.3939 10.5933 15.7373 9.93814C16.0808 9.28301 16.1874 8.52935 16.0393 7.80464C15.8911 7.07992 15.4972 6.42862 14.9241 5.96088C14.3511 5.49314 13.634 5.23767 12.8943 5.23767C12.1546 5.23767 11.4376 5.49314 10.8646 5.96088C10.2915 6.42862 9.89758 7.07992 9.7494 7.80464C9.60122 8.52935 9.70788 9.28301 10.0513 9.93814C10.3948 10.5933 10.954 11.1097 11.6343 11.4C11.6817 11.4198 11.7222 11.4531 11.7507 11.4958C11.7791 11.5385 11.7943 11.5887 11.7943 11.64C11.7883 11.6898 11.7695 11.7371 11.7397 11.7775C11.7099 11.8178 11.6701 11.8497 11.6243 11.87C10.847 12.1418 10.1724 12.6468 9.69277 13.3161C9.21312 13.9855 8.95174 14.7866 8.94434 15.61V18.61C8.94434 18.74 8.99596 18.8646 9.08785 18.9565C9.17975 19.0484 9.30438 19.1 9.43434 19.1H10.3243C10.3856 19.1023 10.4439 19.127 10.4881 19.1694C10.5323 19.2118 10.5595 19.269 10.5643 19.33L10.8943 23.55C10.9044 23.6729 10.9604 23.7875 11.0513 23.8709C11.1421 23.9544 11.261 24.0005 11.3843 24H14.3843C14.5076 24.0005 14.6266 23.9544 14.7174 23.8709C14.8082 23.7875 14.8643 23.6729 14.8743 23.55L15.2343 19.29C15.2392 19.229 15.2663 19.1718 15.3106 19.1294C15.3548 19.087 15.4131 19.0623 15.4743 19.06H16.3643C16.4943 19.06 16.6189 19.0084 16.7108 18.9165C16.8027 18.8246 16.8543 18.7 16.8543 18.57V15.57C16.838 14.7523 16.5714 13.9591 16.0905 13.2976C15.6095 12.636 14.9372 12.1378 14.1643 11.87Z" fill="#787A7D"/>
<path d="M5.52454 5.64004C5.47751 5.62147 5.43664 5.59006 5.40658 5.5494C5.37653 5.50874 5.3585 5.46045 5.35454 5.41004C5.35597 5.36032 5.37062 5.31188 5.39699 5.26969C5.42335 5.22751 5.46047 5.19312 5.50454 5.17004C6.06555 4.90831 6.52049 4.46303 6.79421 3.90778C7.06793 3.35252 7.14406 2.7205 7.01001 2.11613C6.87596 1.51176 6.53976 0.971198 6.05695 0.583739C5.57414 0.19628 4.9736 -0.0148926 4.35454 -0.0148926C3.73548 -0.0148926 3.13494 0.19628 2.65213 0.583739C2.16932 0.971198 1.83312 1.51176 1.69907 2.11613C1.56502 2.7205 1.64115 3.35252 1.91487 3.90778C2.18859 4.46303 2.64353 4.90831 3.20454 5.17004C3.24744 5.1936 3.28312 5.22838 3.30778 5.27065C3.33244 5.31292 3.34515 5.3611 3.34454 5.41004C3.34058 5.46045 3.32255 5.50874 3.2925 5.5494C3.26244 5.59006 3.22157 5.62147 3.17454 5.64004C2.50607 5.88102 1.92832 6.32253 1.52023 6.90423C1.11214 7.48594 0.893624 8.17947 0.89454 8.89004V10.37C0.893757 10.5005 0.943998 10.6261 1.03454 10.72C1.12959 10.8088 1.25447 10.8588 1.38454 10.86H2.20454C2.26537 10.8617 2.3237 10.8846 2.36938 10.9248C2.41507 10.965 2.4452 11.0199 2.45454 11.08L2.89454 14.87C2.90907 14.9903 2.96675 15.1012 3.05687 15.1821C3.14699 15.263 3.26343 15.3085 3.38454 15.31H5.38454C5.50738 15.3109 5.62625 15.2666 5.71847 15.1854C5.81069 15.1043 5.8698 14.992 5.88454 14.87L6.30454 11.08C6.31167 11.0208 6.3398 10.966 6.38382 10.9256C6.42784 10.8853 6.48485 10.862 6.54454 10.86H7.36454C7.4945 10.86 7.61913 10.8084 7.71102 10.7165C7.80292 10.6246 7.85454 10.5 7.85454 10.37V8.89004C7.85181 8.17342 7.62599 7.47544 7.20844 6.89303C6.7909 6.31061 6.20235 5.87268 5.52454 5.64004Z" fill="#787A7D"/>
<path d="M22.6145 5.64002C22.5675 5.62145 22.5266 5.59004 22.4965 5.54938C22.4665 5.50872 22.4484 5.46043 22.4445 5.41002C22.4436 5.3598 22.4573 5.31041 22.484 5.26782C22.5106 5.22523 22.549 5.19126 22.5945 5.17002C23.1545 4.90735 23.6083 4.46163 23.881 3.90638C24.1536 3.35114 24.2289 2.71953 24.0944 2.11576C23.9598 1.51199 23.6235 0.972113 23.1408 0.585195C22.6582 0.198277 22.0581 -0.0125732 21.4395 -0.0125732C20.8209 -0.0125732 20.2208 0.198277 19.7381 0.585195C19.2555 0.972113 18.9192 1.51199 18.7846 2.11576C18.6501 2.71953 18.7253 3.35114 18.998 3.90638C19.2707 4.46163 19.7244 4.90735 20.2845 5.17002C20.3285 5.1931 20.3657 5.22749 20.392 5.26967C20.4184 5.31186 20.4331 5.3603 20.4345 5.41002C20.4305 5.46043 20.4125 5.50872 20.3824 5.54938C20.3524 5.59004 20.3115 5.62145 20.2645 5.64002C19.596 5.881 19.0183 6.32251 18.6102 6.90421C18.2021 7.48592 17.9836 8.17945 17.9845 8.89002V10.37C17.9831 10.4347 17.9949 10.4991 18.019 10.5591C18.0431 10.6192 18.0792 10.6738 18.125 10.7195C18.1707 10.7653 18.2253 10.8014 18.2854 10.8255C18.3454 10.8496 18.4098 10.8614 18.4745 10.86H19.2945C19.3548 10.8598 19.413 10.8823 19.4575 10.9231C19.502 10.9639 19.5295 11.0199 19.5345 11.08L19.9545 14.87C19.9692 14.992 20.0283 15.1042 20.1206 15.1854C20.2128 15.2665 20.3316 15.3109 20.4545 15.31H22.4545C22.5756 15.3085 22.692 15.263 22.7822 15.1821C22.8723 15.1012 22.93 14.9903 22.9445 14.87L23.3645 11.08C23.3738 11.0199 23.404 10.9649 23.4496 10.9247C23.4953 10.8845 23.5537 10.8616 23.6145 10.86H24.4345C24.5644 10.86 24.6891 10.8084 24.781 10.7165C24.8729 10.6246 24.9245 10.5 24.9245 10.37V8.89002C24.9232 8.17583 24.7003 7.47964 24.2865 6.89751C23.8728 6.31539 23.2886 5.87601 22.6145 5.64002Z" fill="#787A7D"/>
</g>
<defs>
<clipPath id="clip0_3358_18701">
<rect width="24" height="24" fill="white" transform="translate(0.894531)"/>
</clipPath>
</defs>
</svg>
