<svg width="24" height="24" viewBox="0 0 24 24" fill="none" xmlns="http://www.w3.org/2000/svg">
<g clip-path="url(#clip0_586_8946)">
<path d="M17.0001 3.51003C16.3099 3.51003 15.6351 3.71472 15.0612 4.0982C14.4873 4.48169 14.0399 5.02675 13.7758 5.66447C13.5116 6.30218 13.4425 7.0039 13.5772 7.6809C13.7118 8.35789 14.0442 8.97975 14.5323 9.46784C15.0204 9.95592 15.6423 10.2883 16.3193 10.423C16.9963 10.5576 17.698 10.4885 18.3357 10.2244C18.9734 9.96022 19.5185 9.5129 19.902 8.93897C20.2854 8.36504 20.4901 7.69029 20.4901 7.00003C20.4901 6.07443 20.1224 5.18673 19.4679 4.53223C18.8134 3.87773 17.9257 3.51003 17.0001 3.51003ZM17.0001 8.51003C16.7039 8.51003 16.4143 8.4223 16.1678 8.25791C15.9214 8.09353 15.7291 7.85985 15.6153 7.58634C15.5015 7.31284 15.4712 7.01175 15.5283 6.72106C15.5853 6.43036 15.7272 6.16307 15.936 5.9529C16.1448 5.74273 16.4111 5.59909 16.7014 5.54008C16.9917 5.48108 17.293 5.50936 17.5673 5.62136C17.8415 5.73336 18.0765 5.92406 18.2425 6.16942C18.4085 6.41477 18.4981 6.70379 18.5001 7.00003C18.5001 7.39786 18.3421 7.77939 18.0608 8.06069C17.7795 8.342 17.3979 8.50003 17.0001 8.50003V8.51003ZM17.0001 3.51003C16.3099 3.51003 15.6351 3.71472 15.0612 4.0982C14.4873 4.48169 14.0399 5.02675 13.7758 5.66447C13.5116 6.30218 13.4425 7.0039 13.5772 7.6809C13.7118 8.35789 14.0442 8.97975 14.5323 9.46784C15.0204 9.95592 15.6423 10.2883 16.3193 10.423C16.9963 10.5576 17.698 10.4885 18.3357 10.2244C18.9734 9.96022 19.5185 9.5129 19.902 8.93897C20.2854 8.36504 20.4901 7.69029 20.4901 7.00003C20.4901 6.07443 20.1224 5.18673 19.4679 4.53223C18.8134 3.87773 17.9257 3.51003 17.0001 3.51003ZM17.0001 8.51003C16.7039 8.51003 16.4143 8.4223 16.1678 8.25791C15.9214 8.09353 15.7291 7.85985 15.6153 7.58634C15.5015 7.31284 15.4712 7.01175 15.5283 6.72106C15.5853 6.43036 15.7272 6.16307 15.936 5.9529C16.1448 5.74273 16.4111 5.59909 16.7014 5.54008C16.9917 5.48108 17.293 5.50936 17.5673 5.62136C17.8415 5.73336 18.0765 5.92406 18.2425 6.16942C18.4085 6.41477 18.4981 6.70379 18.5001 7.00003C18.5001 7.39786 18.3421 7.77939 18.0608 8.06069C17.7795 8.342 17.3979 8.50003 17.0001 8.50003V8.51003ZM17.0001 11.51C16.1129 11.51 15.2456 11.2472 14.5077 10.7547C13.7698 10.2622 13.1943 9.56214 12.8538 8.74287C12.5134 7.92359 12.4234 7.02183 12.595 6.15141C12.7666 5.28098 13.1923 4.48091 13.8182 3.85219C14.4441 3.22346 15.2423 2.79426 16.112 2.61876C16.9816 2.44326 17.8838 2.52933 18.7046 2.8661C19.5253 3.20287 20.228 3.77525 20.7237 4.51099C21.2195 5.24674 21.4862 6.11286 21.4901 7.00003C21.4848 8.18831 21.0098 9.32626 20.1686 10.1656C19.3274 11.0049 18.1884 11.4774 17.0001 11.48V11.51ZM17.0001 3.51003C16.3099 3.51003 15.6351 3.71472 15.0612 4.0982C14.4873 4.48169 14.0399 5.02675 13.7758 5.66447C13.5116 6.30218 13.4425 7.0039 13.5772 7.6809C13.7118 8.35789 14.0442 8.97975 14.5323 9.46784C15.0204 9.95592 15.6423 10.2883 16.3193 10.423C16.9963 10.5576 17.698 10.4885 18.3357 10.2244C18.9734 9.96022 19.5185 9.5129 19.902 8.93897C20.2854 8.36504 20.4901 7.69029 20.4901 7.00003C20.4901 6.07443 20.1224 5.18673 19.4679 4.53223C18.8134 3.87773 17.9257 3.51003 17.0001 3.51003ZM17.0001 8.51003C16.7039 8.51003 16.4143 8.4223 16.1678 8.25791C15.9214 8.09353 15.7291 7.85985 15.6153 7.58634C15.5015 7.31284 15.4712 7.01175 15.5283 6.72106C15.5853 6.43036 15.7272 6.16307 15.936 5.9529C16.1448 5.74273 16.4111 5.59909 16.7014 5.54008C16.9917 5.48108 17.293 5.50936 17.5673 5.62136C17.8415 5.73336 18.0765 5.92406 18.2425 6.16942C18.4085 6.41477 18.4981 6.70379 18.5001 7.00003C18.5001 7.39786 18.3421 7.77939 18.0608 8.06069C17.7795 8.342 17.3979 8.50003 17.0001 8.50003V8.51003ZM5.00012 16.51C4.50002 16.5081 4.01065 16.655 3.59429 16.932C3.17794 17.2091 2.85343 17.6037 2.66207 18.0658C2.47072 18.5278 2.42116 19.0364 2.51972 19.5266C2.61828 20.0169 2.86049 20.4668 3.21553 20.819C3.57057 21.1712 4.02238 21.4099 4.51345 21.5045C5.00452 21.5991 5.51264 21.5455 5.97314 21.3505C6.43364 21.1554 6.82569 20.8277 7.09939 20.4092C7.3731 19.9906 7.51607 19.5001 7.51012 19C7.51013 18.3334 7.246 17.694 6.77557 17.2216C6.30514 16.7493 5.66673 16.4827 5.00012 16.48V16.51ZM5.00012 19.78C4.80121 19.78 4.61044 19.701 4.46979 19.5604C4.32914 19.4197 4.25012 19.2289 4.25012 19.03C4.25012 18.8311 4.32914 18.6404 4.46979 18.4997C4.61044 18.3591 4.80121 18.28 5.00012 18.28C5.19903 18.28 5.3898 18.3591 5.53045 18.4997C5.6711 18.6404 5.75012 18.8311 5.75012 19.03C5.75012 19.2289 5.6711 19.4197 5.53045 19.5604C5.3898 19.701 5.19903 19.78 5.00012 19.78ZM5.00012 16.51C4.50002 16.5081 4.01065 16.655 3.59429 16.932C3.17794 17.2091 2.85343 17.6037 2.66207 18.0658C2.47072 18.5278 2.42116 19.0364 2.51972 19.5266C2.61828 20.0169 2.86049 20.4668 3.21553 20.819C3.57057 21.1712 4.02238 21.4099 4.51345 21.5045C5.00452 21.5991 5.51264 21.5455 5.97314 21.3505C6.43364 21.1554 6.82569 20.8277 7.09939 20.4092C7.3731 19.9906 7.51607 19.5001 7.51012 19C7.51013 18.3334 7.246 17.694 6.77557 17.2216C6.30514 16.7493 5.66673 16.4827 5.00012 16.48V16.51ZM5.00012 19.78C4.80121 19.78 4.61044 19.701 4.46979 19.5604C4.32914 19.4197 4.25012 19.2289 4.25012 19.03C4.25012 18.8311 4.32914 18.6404 4.46979 18.4997C4.61044 18.3591 4.80121 18.28 5.00012 18.28C5.19903 18.28 5.3898 18.3591 5.53045 18.4997C5.6711 18.6404 5.75012 18.8311 5.75012 19.03C5.75012 19.2289 5.6711 19.4197 5.53045 19.5604C5.3898 19.701 5.19903 19.78 5.00012 19.78ZM5.00012 16.51C4.50002 16.5081 4.01065 16.655 3.59429 16.932C3.17794 17.2091 2.85343 17.6037 2.66207 18.0658C2.47072 18.5278 2.42116 19.0364 2.51972 19.5266C2.61828 20.0169 2.86049 20.4668 3.21553 20.819C3.57057 21.1712 4.02238 21.4099 4.51345 21.5045C5.00452 21.5991 5.51264 21.5455 5.97314 21.3505C6.43364 21.1554 6.82569 20.8277 7.09939 20.4092C7.3731 19.9906 7.51607 19.5001 7.51012 19C7.51013 18.3334 7.246 17.694 6.77557 17.2216C6.30514 16.7493 5.66673 16.4827 5.00012 16.48V16.51ZM5.00012 19.78C4.80121 19.78 4.61044 19.701 4.46979 19.5604C4.32914 19.4197 4.25012 19.2289 4.25012 19.03C4.25012 18.8311 4.32914 18.6404 4.46979 18.4997C4.61044 18.3591 4.80121 18.28 5.00012 18.28C5.19903 18.28 5.3898 18.3591 5.53045 18.4997C5.6711 18.6404 5.75012 18.8311 5.75012 19.03C5.75012 19.2289 5.6711 19.4197 5.53045 19.5604C5.3898 19.701 5.19903 19.78 5.00012 19.78ZM5.00012 16.51C4.50002 16.5081 4.01065 16.655 3.59429 16.932C3.17794 17.2091 2.85343 17.6037 2.66207 18.0658C2.47072 18.5278 2.42116 19.0364 2.51972 19.5266C2.61828 20.0169 2.86049 20.4668 3.21553 20.819C3.57057 21.1712 4.02238 21.4099 4.51345 21.5045C5.00452 21.5991 5.51264 21.5455 5.97314 21.3505C6.43364 21.1554 6.82569 20.8277 7.09939 20.4092C7.3731 19.9906 7.51607 19.5001 7.51012 19C7.51013 18.3334 7.246 17.694 6.77557 17.2216C6.30514 16.7493 5.66673 16.4827 5.00012 16.48V16.51ZM5.00012 19.78C4.80121 19.78 4.61044 19.701 4.46979 19.5604C4.32914 19.4197 4.25012 19.2289 4.25012 19.03C4.25012 18.8311 4.32914 18.6404 4.46979 18.4997C4.61044 18.3591 4.80121 18.28 5.00012 18.28C5.19903 18.28 5.3898 18.3591 5.53045 18.4997C5.6711 18.6404 5.75012 18.8311 5.75012 19.03C5.75012 19.2289 5.6711 19.4197 5.53045 19.5604C5.3898 19.701 5.19903 19.78 5.00012 19.78ZM21.8701 2.13003C21.1467 1.41012 20.2805 0.84967 19.3274 0.484771C18.3742 0.119871 17.3552 -0.0413936 16.336 0.0113584C15.3167 0.0641104 14.3198 0.32971 13.4094 0.791058C12.4991 1.25241 11.6954 1.89928 11.0501 2.69003L0.890121 16.68C0.246028 17.5656 -0.0610098 18.652 0.0242118 19.7437C0.109433 20.8354 0.581324 21.8609 1.35504 22.6358C2.12875 23.4108 3.15354 23.8843 4.24513 23.9712C5.33673 24.0581 6.42352 23.7527 7.31012 23.11L21.3101 12.92C22.0974 12.2752 22.7409 11.4727 23.1993 10.5641C23.6577 9.65557 23.9208 8.6611 23.9717 7.64472C24.0226 6.62835 23.8601 5.61258 23.4947 4.66279C23.1293 3.71301 22.5691 2.85025 21.8501 2.13003H21.8701ZM5.00012 22.51C4.30308 22.512 3.62115 22.307 3.04076 21.921C2.46037 21.535 2.00765 20.9853 1.73999 20.3417C1.47233 19.6981 1.40178 18.9895 1.53729 18.3058C1.67279 17.622 2.00824 16.9939 2.50112 16.501C2.994 16.0081 3.62212 15.6727 4.30587 15.5372C4.98961 15.4017 5.69819 15.4722 6.34179 15.7399C6.9854 16.0076 7.53504 16.4603 7.92106 17.0407C8.30708 17.6211 8.5121 18.303 8.51012 19C8.50748 19.9301 8.13683 20.8214 7.47915 21.4791C6.82147 22.1367 5.93022 22.5074 5.00012 22.51ZM5.00012 16.51C4.50002 16.5081 4.01065 16.655 3.59429 16.932C3.17794 17.2091 2.85343 17.6037 2.66207 18.0658C2.47072 18.5278 2.42116 19.0364 2.51972 19.5266C2.61828 20.0169 2.86049 20.4668 3.21553 20.819C3.57057 21.1712 4.02238 21.4099 4.51345 21.5045C5.00452 21.5991 5.51264 21.5455 5.97314 21.3505C6.43364 21.1554 6.82569 20.8277 7.09939 20.4092C7.3731 19.9906 7.51607 19.5001 7.51012 19C7.51013 18.3334 7.246 17.694 6.77557 17.2216C6.30514 16.7493 5.66673 16.4827 5.00012 16.48V16.51ZM5.00012 19.78C4.80121 19.78 4.61044 19.701 4.46979 19.5604C4.32914 19.4197 4.25012 19.2289 4.25012 19.03C4.25012 18.8311 4.32914 18.6404 4.46979 18.4997C4.61044 18.3591 4.80121 18.28 5.00012 18.28C5.19903 18.28 5.3898 18.3591 5.53045 18.4997C5.6711 18.6404 5.75012 18.8311 5.75012 19.03C5.75012 19.2289 5.6711 19.4197 5.53045 19.5604C5.3898 19.701 5.19903 19.78 5.00012 19.78ZM5.00012 16.51C4.50002 16.5081 4.01065 16.655 3.59429 16.932C3.17794 17.2091 2.85343 17.6037 2.66207 18.0658C2.47072 18.5278 2.42116 19.0364 2.51972 19.5266C2.61828 20.0169 2.86049 20.4668 3.21553 20.819C3.57057 21.1712 4.02238 21.4099 4.51345 21.5045C5.00452 21.5991 5.51264 21.5455 5.97314 21.3505C6.43364 21.1554 6.82569 20.8277 7.09939 20.4092C7.3731 19.9906 7.51607 19.5001 7.51012 19C7.51013 18.3334 7.246 17.694 6.77557 17.2216C6.30514 16.7493 5.66673 16.4827 5.00012 16.48V16.51ZM5.00012 19.78C4.80121 19.78 4.61044 19.701 4.46979 19.5604C4.32914 19.4197 4.25012 19.2289 4.25012 19.03C4.25012 18.8311 4.32914 18.6404 4.46979 18.4997C4.61044 18.3591 4.80121 18.28 5.00012 18.28C5.19903 18.28 5.3898 18.3591 5.53045 18.4997C5.6711 18.6404 5.75012 18.8311 5.75012 19.03C5.75012 19.2289 5.6711 19.4197 5.53045 19.5604C5.3898 19.701 5.19903 19.78 5.00012 19.78ZM5.00012 16.51C4.50002 16.5081 4.01065 16.655 3.59429 16.932C3.17794 17.2091 2.85343 17.6037 2.66207 18.0658C2.47072 18.5278 2.42116 19.0364 2.51972 19.5266C2.61828 20.0169 2.86049 20.4668 3.21553 20.819C3.57057 21.1712 4.02238 21.4099 4.51345 21.5045C5.00452 21.5991 5.51264 21.5455 5.97314 21.3505C6.43364 21.1554 6.82569 20.8277 7.09939 20.4092C7.3731 19.9906 7.51607 19.5001 7.51012 19C7.51013 18.3334 7.246 17.694 6.77557 17.2216C6.30514 16.7493 5.66673 16.4827 5.00012 16.48V16.51ZM5.00012 19.78C4.80121 19.78 4.61044 19.701 4.46979 19.5604C4.32914 19.4197 4.25012 19.2289 4.25012 19.03C4.25012 18.8311 4.32914 18.6404 4.46979 18.4997C4.61044 18.3591 4.80121 18.28 5.00012 18.28C5.19903 18.28 5.3898 18.3591 5.53045 18.4997C5.6711 18.6404 5.75012 18.8311 5.75012 19.03C5.75012 19.2289 5.6711 19.4197 5.53045 19.5604C5.3898 19.701 5.19903 19.78 5.00012 19.78ZM5.00012 16.51C4.50002 16.5081 4.01065 16.655 3.59429 16.932C3.17794 17.2091 2.85343 17.6037 2.66207 18.0658C2.47072 18.5278 2.42116 19.0364 2.51972 19.5266C2.61828 20.0169 2.86049 20.4668 3.21553 20.819C3.57057 21.1712 4.02238 21.4099 4.51345 21.5045C5.00452 21.5991 5.51264 21.5455 5.97314 21.3505C6.43364 21.1554 6.82569 20.8277 7.09939 20.4092C7.3731 19.9906 7.51607 19.5001 7.51012 19C7.51013 18.3334 7.246 17.694 6.77557 17.2216C6.30514 16.7493 5.66673 16.4827 5.00012 16.48V16.51ZM5.00012 19.78C4.80121 19.78 4.61044 19.701 4.46979 19.5604C4.32914 19.4197 4.25012 19.2289 4.25012 19.03C4.25012 18.8311 4.32914 18.6404 4.46979 18.4997C4.61044 18.3591 4.80121 18.28 5.00012 18.28C5.19903 18.28 5.3898 18.3591 5.53045 18.4997C5.6711 18.6404 5.75012 18.8311 5.75012 19.03C5.75012 19.2289 5.6711 19.4197 5.53045 19.5604C5.3898 19.701 5.19903 19.78 5.00012 19.78ZM5.00012 16.51C4.50002 16.5081 4.01065 16.655 3.59429 16.932C3.17794 17.2091 2.85343 17.6037 2.66207 18.0658C2.47072 18.5278 2.42116 19.0364 2.51972 19.5266C2.61828 20.0169 2.86049 20.4668 3.21553 20.819C3.57057 21.1712 4.02238 21.4099 4.51345 21.5045C5.00452 21.5991 5.51264 21.5455 5.97314 21.3505C6.43364 21.1554 6.82569 20.8277 7.09939 20.4092C7.3731 19.9906 7.51607 19.5001 7.51012 19C7.51013 18.3334 7.246 17.694 6.77557 17.2216C6.30514 16.7493 5.66673 16.4827 5.00012 16.48V16.51ZM5.00012 19.78C4.80121 19.78 4.61044 19.701 4.46979 19.5604C4.32914 19.4197 4.25012 19.2289 4.25012 19.03C4.25012 18.8311 4.32914 18.6404 4.46979 18.4997C4.61044 18.3591 4.80121 18.28 5.00012 18.28C5.19903 18.28 5.3898 18.3591 5.53045 18.4997C5.6711 18.6404 5.75012 18.8311 5.75012 19.03C5.75012 19.2289 5.6711 19.4197 5.53045 19.5604C5.3898 19.701 5.19903 19.78 5.00012 19.78Z" fill="#787A7D"/>
</g>
<defs>
<clipPath id="clip0_586_8946">
<rect width="24" height="24" fill="white"/>
</clipPath>
</defs>
</svg>
