<svg width="16" height="16" viewBox="0 0 16 16" fill="none" xmlns="http://www.w3.org/2000/svg">
<g clip-path="url(#clip0_2396_10819)">
<path d="M-2.92156e-05 13.0604C-2.92156e-05 13.7677 0.280922 14.446 0.78102 14.9461C1.28112 15.4462 1.95939 15.7271 2.66664 15.7271H13.3333C14.0406 15.7271 14.7188 15.4462 15.2189 14.9461C15.719 14.446 16 13.7677 16 13.0604V11.8138C16.0102 11.7003 15.9967 11.586 15.9604 11.478C15.924 11.3701 15.8655 11.2709 15.7887 11.1868C15.7119 11.1027 15.6183 11.0356 15.5141 10.9896C15.4099 10.9437 15.2972 10.9199 15.1833 10.9199C15.0694 10.9199 14.9567 10.9437 14.8525 10.9896C14.7483 11.0356 14.6548 11.1027 14.5779 11.1868C14.5011 11.2709 14.4426 11.3701 14.4062 11.478C14.3699 11.586 14.3564 11.7003 14.3666 11.8138V13.0604C14.3667 13.337 14.2587 13.6027 14.0657 13.8007C13.8726 13.9987 13.6098 14.1135 13.3333 14.1204H2.66664C2.38551 14.1204 2.11589 14.0088 1.9171 13.81C1.71832 13.6112 1.60664 13.3416 1.60664 13.0604V11.8138C1.6169 11.7003 1.60341 11.586 1.56703 11.478C1.53065 11.3701 1.47218 11.2709 1.39535 11.1868C1.31852 11.1027 1.225 11.0356 1.12077 10.9896C1.01654 10.9437 0.903882 10.9199 0.789971 10.9199C0.67606 10.9199 0.563399 10.9437 0.459169 10.9896C0.354939 11.0356 0.261426 11.1027 0.184592 11.1868C0.107758 11.2709 0.0492887 11.3701 0.0129105 11.478C-0.0234677 11.586 -0.0369564 11.7003 -0.0266959 11.8138L-2.92156e-05 13.0604Z" fill="black"/>
<path d="M8 12.8796C8.35362 12.8796 8.69276 12.7392 8.94281 12.4891C9.19286 12.2391 9.33333 11.8999 9.33333 11.5463V5.46631C9.33991 5.43229 9.35693 5.40117 9.38202 5.37727C9.40712 5.35337 9.43903 5.33789 9.47333 5.33298H11.2667C11.3894 5.32759 11.5082 5.28841 11.6101 5.21977C11.7119 5.15112 11.7928 5.05567 11.8438 4.94395C11.8949 4.83223 11.914 4.70858 11.8993 4.58665C11.8845 4.46472 11.8363 4.34925 11.76 4.25298L8.49333 0.466309C8.43085 0.397563 8.35469 0.342636 8.26973 0.305049C8.18477 0.267463 8.0929 0.248047 8 0.248047C7.9071 0.248047 7.81523 0.267463 7.73027 0.305049C7.64531 0.342636 7.56915 0.397563 7.50667 0.466309L4.24 4.21964C4.15369 4.31527 4.09694 4.43385 4.0766 4.56105C4.05626 4.68825 4.07321 4.81862 4.1254 4.93639C4.17758 5.05416 4.26277 5.15429 4.37066 5.22468C4.47855 5.29506 4.60452 5.33267 4.73333 5.33298H6.52667C6.56097 5.33789 6.59288 5.35337 6.61797 5.37727C6.64307 5.40117 6.66009 5.43229 6.66667 5.46631V11.573C6.67365 11.922 6.8172 12.2543 7.06649 12.4986C7.31579 12.7429 7.65095 12.8797 8 12.8796Z" fill="black"/>
</g>
<defs>
<clipPath id="clip0_2396_10819">
<rect width="16" height="16" fill="white"/>
</clipPath>
</defs>
</svg>
