<svg width="20" height="20" viewBox="0 0 20 20" fill="none" xmlns="http://www.w3.org/2000/svg">
<g clip-path="url(#clip0_5273_7109)">
<path d="M18.7917 14.1172C18.5235 14.1172 18.2661 14.2231 18.0757 14.412C17.8853 14.6009 17.7772 14.8573 17.775 15.1255V16.6672C17.775 17.0142 17.6372 17.347 17.3918 17.5923C17.1464 17.8377 16.8137 17.9755 16.4667 17.9755H3.33333C2.98634 17.9755 2.65356 17.8377 2.4082 17.5923C2.16284 17.347 2.025 17.0142 2.025 16.6672V15.1255C2.00205 14.8728 1.88546 14.6379 1.69811 14.4668C1.51077 14.2957 1.26622 14.2008 1.0125 14.2008C0.758781 14.2008 0.514231 14.2957 0.326888 14.4668C0.139544 14.6379 0.0229471 14.8728 0 15.1255V16.6672C0 17.5512 0.35119 18.3991 0.976311 19.0242C1.60143 19.6493 2.44928 20.0005 3.33333 20.0005H16.4667C17.3507 20.0005 18.1986 19.6493 18.8237 19.0242C19.4488 18.3991 19.8 17.5512 19.8 16.6672V15.1255C19.8 14.8581 19.6938 14.6016 19.5047 14.4125C19.3156 14.2234 19.0591 14.1172 18.7917 14.1172Z" fill="#2C6E59"/>
<path d="M9.90016 0C9.47139 0 9.06019 0.170327 8.757 0.473511C8.45382 0.776694 8.28349 1.1879 8.28349 1.61667V9.16667C8.28349 9.22192 8.26154 9.27491 8.22247 9.31398C8.1834 9.35305 8.13041 9.375 8.07516 9.375H5.85849C5.70871 9.38525 5.56448 9.43577 5.44103 9.52122C5.31759 9.60668 5.21953 9.72389 5.15721 9.86048C5.09489 9.99707 5.07063 10.148 5.08699 10.2972C5.10335 10.4464 5.15973 10.5885 5.25016 10.7083L9.29183 15.3583C9.36978 15.4416 9.46399 15.508 9.56863 15.5533C9.67327 15.5987 9.78611 15.6221 9.90016 15.6221C10.0142 15.6221 10.1271 15.5987 10.2317 15.5533C10.3363 15.508 10.4305 15.4416 10.5085 15.3583L14.5502 10.7083C14.6406 10.5885 14.697 10.4464 14.7133 10.2972C14.7297 10.148 14.7054 9.99707 14.6431 9.86048C14.5808 9.72389 14.4827 9.60668 14.3593 9.52122C14.2358 9.43577 14.0916 9.38525 13.9418 9.375H11.7252C11.6699 9.375 11.6169 9.35305 11.5778 9.31398C11.5388 9.27491 11.5168 9.22192 11.5168 9.16667V1.61667C11.5168 1.1879 11.3465 0.776694 11.0433 0.473511C10.7401 0.170327 10.3289 0 9.90016 0V0Z" fill="#2C6E59"/>
</g>
<defs>
<clipPath id="clip0_5273_7109">
<rect width="20" height="20" fill="white"/>
</clipPath>
</defs>
</svg>
